BosaLisuMaster-Regular.ufo
<glyph name="dollar" format="2">
  <advance width="463"/>
  <unicode hex="0024"/>
  <outline>
    <contour>
      <point x="229" y="32" type="curve" smooth="yes"/>
      <point x="190" y="32"/>
      <point x="150" y="37"/>
      <point x="108" y="55" type="curve"/>
      <point x="161" y="20" type="line"/>
      <point x="145" y="91" type="line" smooth="yes"/>
      <point x="135" y="139"/>
      <point x="115" y="152"/>
      <point x="91" y="152" type="curve" smooth="yes"/>
      <point x="69" y="152"/>
      <point x="56" y="141"/>
      <point x="46" y="121" type="curve"/>
      <point x="50" y="41"/>
      <point x="123" y="-11"/>
      <point x="225" y="-11" type="curve" smooth="yes"/>
      <point x="353" y="-11"/>
      <point x="430" y="58"/>
      <point x="430" y="158" type="curve" smooth="yes"/>
      <point x="430" y="235"/>
      <point x="391" y="295"/>
      <point x="265" y="338" type="curve" smooth="yes"/>
      <point x="231" y="349" type="line" smooth="yes"/>
      <point x="166" y="370"/>
      <point x="131" y="402"/>
      <point x="131" y="459" type="curve" smooth="yes"/>
      <point x="131" y="527"/>
      <point x="182" y="559"/>
      <point x="250" y="559" type="curve" smooth="yes"/>
      <point x="278" y="559"/>
      <point x="310" y="554"/>
      <point x="350" y="538" type="curve"/>
      <point x="299" y="573" type="line"/>
      <point x="314" y="504" type="line" smooth="yes"/>
      <point x="324" y="453"/>
      <point x="349" y="440"/>
      <point x="371" y="440" type="curve" smooth="yes"/>
      <point x="390" y="440"/>
      <point x="406" y="450"/>
      <point x="414" y="471" type="curve"/>
      <point x="407" y="551"/>
      <point x="334" y="605"/>
      <point x="240" y="605" type="curve" smooth="yes"/>
      <point x="129" y="605"/>
      <point x="52" y="531"/>
      <point x="52" y="436" type="curve" smooth="yes"/>
      <point x="52" y="345"/>
      <point x="110" y="293"/>
      <point x="208" y="259" type="curve" smooth="yes"/>
      <point x="241" y="247" type="line" smooth="yes"/>
      <point x="320" y="220"/>
      <point x="351" y="194"/>
      <point x="351" y="137" type="curve" smooth="yes"/>
      <point x="351" y="70"/>
      <point x="303" y="32"/>
    </contour>
    <contour>
      <point x="261" y="295" type="line"/>
      <point x="261" y="688" type="line"/>
      <point x="221" y="688" type="line"/>
      <point x="221" y="295" type="line"/>
    </contour>
    <contour>
      <point x="219" y="-105" type="line"/>
      <point x="259" y="-105" type="line"/>
      <point x="259" y="295" type="line"/>
      <point x="219" y="295" type="line"/>
    </contour>
  </outline>
</glyph>
<glyph name="percent" format="2">
  <advance width="793"/>
  <unicode hex="0025"/>
  <outline>
    <contour>
      <point x="205" y="-23" type="line"/>
      <point x="631" y="590" type="line"/>
      <point x="600" y="614" type="line"/>
      <point x="174" y="0" type="line"/>
    </contour>
    <contour>
      <point x="131" y="414" type="curve" smooth="yes"/>
      <point x="131" y="545"/>
      <point x="161" y="574"/>
      <point x="192" y="574" type="curve" smooth="yes"/>
      <point x="223" y="574"/>
      <point x="252" y="544"/>
      <point x="252" y="414" type="curve" smooth="yes"/>
      <point x="252" y="283"/>
      <point x="223" y="254"/>
      <point x="192" y="254" type="curve" smooth="yes"/>
      <point x="161" y="254"/>
      <point x="131" y="283"/>
    </contour>
    <contour>
      <point x="192" y="605" type="curve" smooth="yes"/>
      <point x="126" y="605"/>
      <point x="61" y="547"/>
      <point x="61" y="414" type="curve" smooth="yes"/>
      <point x="61" y="281"/>
      <point x="126" y="224"/>
      <point x="192" y="224" type="curve" smooth="yes"/>
      <point x="258" y="224"/>
      <point x="322" y="281"/>
      <point x="322" y="414" type="curve" smooth="yes"/>
      <point x="322" y="547"/>
      <point x="258" y="605"/>
    </contour>
    <contour>
      <point x="540" y="181" type="curve" smooth="yes"/>
      <point x="540" y="313"/>
      <point x="570" y="341"/>
      <point x="602" y="341" type="curve" smooth="yes"/>
      <point x="633" y="341"/>
      <point x="661" y="312"/>
      <point x="661" y="181" type="curve" smooth="yes"/>
      <point x="661" y="50"/>
      <point x="633" y="22"/>
      <point x="602" y="22" type="curve" smooth="yes"/>
      <point x="570" y="22"/>
      <point x="540" y="50"/>
    </contour>
    <contour>
      <point x="602" y="372" type="curve" smooth="yes"/>
      <point x="535" y="372"/>
      <point x="471" y="315"/>
      <point x="471" y="181" type="curve" smooth="yes"/>
      <point x="471" y="48"/>
      <point x="535" y="-8"/>
      <point x="602" y="-8" type="curve" smooth="yes"/>
      <point x="667" y="-8"/>
      <point x="731" y="48"/>
      <point x="731" y="181" type="curve" smooth="yes"/>
      <point x="731" y="315"/>
      <point x="667" y="372"/>
    </contour>
  </outline>
</glyph>
<glyph name="ampersand" format="2">
  <advance width="662"/>
  <unicode hex="0026"/>
  <outline>
    <contour>
      <point x="285" y="198" type="curve" smooth="yes"/>
      <point x="330" y="146"/>
      <point x="375" y="94"/>
      <point x="435" y="31" type="curve" smooth="yes"/>
      <point x="466" y="0"/>
      <point x="496" y="-11"/>
      <point x="545" y="-11" type="curve" smooth="yes"/>
      <point x="570" y="-11"/>
      <point x="588" y="-9"/>
      <point x="618" y="-2" type="curve"/>
      <point x="621" y="40" type="line"/>
      <point x="500" y="57" type="line"/>
      <point x="550" y="34" type="line"/>
      <point x="456" y="134"/>
      <point x="403" y="190"/>
      <point x="329" y="271" type="curve" smooth="yes"/>
      <point x="268" y="337"/>
      <point x="241" y="367"/>
      <point x="207" y="408" type="curve" smooth="yes"/>
      <point x="175" y="450"/>
      <point x="168" y="479"/>
      <point x="168" y="510" type="curve" smooth="yes"/>
      <point x="168" y="559"/>
      <point x="204" y="595"/>
      <point x="249" y="595" type="curve" smooth="yes"/>
      <point x="294" y="595"/>
      <point x="326" y="563"/>
      <point x="326" y="510" type="curve" smooth="yes"/>
      <point x="326" y="454"/>
      <point x="282" y="410"/>
      <point x="218" y="366" type="curve"/>
      <point x="234" y="341" type="line"/>
      <point x="344" y="395"/>
      <point x="392" y="442"/>
      <point x="392" y="509" type="curve" smooth="yes"/>
      <point x="392" y="579"/>
      <point x="342" y="628"/>
      <point x="250" y="628" type="curve" smooth="yes"/>
      <point x="161" y="628"/>
      <point x="97" y="576"/>
      <point x="97" y="495" type="curve" smooth="yes"/>
      <point x="97" y="447"/>
      <point x="114" y="400"/>
      <point x="159" y="347" type="curve" smooth="yes"/>
      <point x="199" y="301"/>
      <point x="229" y="264"/>
    </contour>
    <contour>
      <point x="408" y="123" type="curve"/>
      <point x="438" y="103" type="line"/>
      <point x="494" y="182"/>
      <point x="534" y="259"/>
      <point x="558" y="366" type="curve"/>
      <point x="511" y="366" type="line"/>
      <point x="492" y="268"/>
      <point x="459" y="195"/>
    </contour>
    <contour>
      <point x="207" y="329" type="curve"/>
      <point x="190" y="356" type="line"/>
      <point x="80" y="309"/>
      <point x="23" y="242"/>
      <point x="23" y="155" type="curve" smooth="yes"/>
      <point x="23" y="62"/>
      <point x="102" y="-11"/>
      <point x="218" y="-11" type="curve" smooth="yes"/>
      <point x="326" y="-11"/>
      <point x="391" y="38"/>
      <point x="427" y="95" type="curve"/>
      <point x="401" y="119" type="line"/>
      <point x="368" y="75"/>
      <point x="309" y="48"/>
      <point x="246" y="48" type="curve" smooth="yes"/>
      <point x="160" y="48"/>
      <point x="109" y="113"/>
      <point x="109" y="181" type="curve" smooth="yes"/>
      <point x="109" y="231"/>
      <point x="129" y="291"/>
    </contour>
    <contour>
      <point x="540" y="343" type="line"/>
      <point x="622" y="356" type="line"/>
      <point x="622" y="394" type="line"/>
      <point x="434" y="394" type="line"/>
      <point x="434" y="356" type="line"/>
      <point x="522" y="343" type="line"/>
    </contour>
  </outline>
</glyph>
<glyph name="comma" format="2">
  <advance width="205"/>
  <unicode hex="002C"/>
  <outline>
    <contour>
      <point x="51" y="-132" type="line"/>
      <point x="125" y="-104"/>
      <point x="160" y="-49"/>
      <point x="160" y="17" type="curve" smooth="yes"/>
      <point x="160" y="70"/>
      <point x="138" y="98"/>
      <point x="99" y="98" type="curve" smooth="yes"/>
      <point x="68" y="98"/>
      <point x="45" y="74"/>
      <point x="45" y="43" type="curve" smooth="yes"/>
      <point x="45" y="12"/>
      <point x="64" y="-8"/>
      <point x="87" y="-8" type="curve" smooth="yes"/>
      <point x="110" y="-8"/>
      <point x="135" y="10"/>
      <point x="135" y="33" type="curve"/>
      <point x="130" y="33"/>
      <point x="108" y="33"/>
      <point x="101" y="33" type="curve"/>
      <point x="106" y="24"/>
      <point x="111" y="11"/>
      <point x="111" y="-15" type="curve" smooth="yes"/>
      <point x="111" y="-57"/>
      <point x="77" y="-80"/>
      <point x="43" y="-97" type="curve"/>
    </contour>
  </outline>
</glyph>
<glyph name="four" format="2">
  <advance width="434"/>
  <unicode hex="0034"/>
  <outline>
    <contour>
      <point x="406" y="121" type="line"/>
      <point x="345" y="121" type="line"/>
      <point x="345" y="2" type="line"/>
      <point x="268" y="2" type="line"/>
      <point x="268" y="121" type="line"/>
      <point x="30" y="121" type="line"/>
      <point x="30" y="192" type="line"/>
      <point x="274" y="531" type="line"/>
      <point x="345" y="531" type="line"/>
      <point x="345" y="198" type="line"/>
      <point x="406" y="198" type="line"/>
    </contour>
    <contour>
      <point x="268" y="198" type="line"/>
      <point x="268" y="400" type="line"/>
      <point x="121" y="198" type="line"/>
    </contour>
  </outline>
</glyph>
<glyph name="five" format="2">
  <advance width="434"/>
  <unicode hex="0035"/>
  <outline>
    <contour>
      <point x="394" y="179" type="curve" smooth="yes"/>
      <point x="394" y="71"/>
      <point x="322" y="-12"/>
      <point x="215" y="-12" type="curve" smooth="yes"/>
      <point x="140" y="-12"/>
      <point x="86" y="26"/>
      <point x="53" y="103" type="curve"/>
      <point x="131" y="124" type="line"/>
      <point x="144" y="87"/>
      <point x="182" y="60"/>
      <point x="221" y="60" type="curve" smooth="yes"/>
      <point x="279" y="60"/>
      <point x="317" y="113"/>
      <point x="317" y="174" type="curve" smooth="yes"/>
      <point x="317" y="237"/>
      <point x="278" y="290"/>
      <point x="217" y="290" type="curve" smooth="yes"/>
      <point x="186" y="290"/>
      <point x="158" y="274"/>
      <point x="133" y="243" type="curve"/>
      <point x="60" y="253" type="line"/>
      <point x="110" y="532" type="line"/>
      <point x="375" y="532" type="line"/>
      <point x="375" y="454" type="line"/>
      <point x="173" y="454" type="line"/>
      <point x="153" y="344" type="line"/>
      <point x="186" y="359"/>
      <point x="213" y="366"/>
      <point x="234" y="366" type="curve" smooth="yes"/>
      <point x="331" y="366"/>
      <point x="394" y="278"/>
    </contour>
  </outline>
</glyph>
<glyph name="colon" format="2">
  <advance width="276"/>
  <unicode hex="003A"/>
  <outline>
    <contour>
      <point x="138" y="319" type="curve" smooth="yes"/>
      <point x="175" y="319"/>
      <point x="205" y="349"/>
      <point x="205" y="386" type="curve" smooth="yes"/>
      <point x="205" y="423"/>
      <point x="175" y="454"/>
      <point x="138" y="454" type="curve" smooth="yes"/>
      <point x="100" y="454"/>
      <point x="70" y="423"/>
      <point x="70" y="386" type="curve" smooth="yes"/>
      <point x="70" y="349"/>
      <point x="100" y="319"/>
    </contour>
    <contour>
      <point x="138" y="-11" type="curve" smooth="yes"/>
      <point x="175" y="-11"/>
      <point x="205" y="18"/>
      <point x="205" y="55" type="curve" smooth="yes"/>
      <point x="205" y="92"/>
      <point x="175" y="123"/>
      <point x="138" y="123" type="curve" smooth="yes"/>
      <point x="100" y="123"/>
      <point x="70" y="92"/>
      <point x="70" y="55" type="curve" smooth="yes"/>
      <point x="70" y="18"/>
      <point x="100" y="-11"/>
    </contour>
  </outline>
</glyph>
<glyph name="semicolon" format="2">
  <advance width="276"/>
  <unicode hex="003B"/>
  <outline>
    <contour>
      <point x="138" y="319" type="curve" smooth="yes"/>
      <point x="175" y="319"/>
      <point x="205" y="349"/>
      <point x="205" y="386" type="curve" smooth="yes"/>
      <point x="205" y="423"/>
      <point x="175" y="454"/>
      <point x="138" y="454" type="curve" smooth="yes"/>
      <point x="100" y="454"/>
      <point x="70" y="423"/>
      <point x="70" y="386" type="curve" smooth="yes"/>
      <point x="70" y="349"/>
      <point x="100" y="319"/>
    </contour>
    <contour>
      <point x="198" y="29" type="curve" smooth="yes"/>
      <point x="198" y="51"/>
      <point x="195" y="72"/>
      <point x="188" y="96" type="curve"/>
      <point x="165" y="117"/>
      <point x="147" y="123"/>
      <point x="128" y="123" type="curve" smooth="yes"/>
      <point x="91" y="123"/>
      <point x="69" y="95"/>
      <point x="69" y="62" type="curve" smooth="yes"/>
      <point x="69" y="39"/>
      <point x="80" y="14"/>
      <point x="106" y="-4" type="curve" smooth="yes"/>
      <point x="153" y="-39" type="line"/>
      <point x="148" y="0" type="line"/>
      <point x="131" y="-84"/>
      <point x="78" y="-136"/>
      <point x="6" y="-172" type="curve"/>
      <point x="19" y="-203" type="line"/>
      <point x="107" y="-171"/>
      <point x="198" y="-83"/>
    </contour>
  </outline>
</glyph>
<glyph name="less" format="2">
  <advance width="489"/>
  <unicode hex="003C"/>
  <outline>
    <contour>
      <point x="50" y="279" type="line"/>
      <point x="409" y="73" type="line"/>
      <point x="437" y="126" type="line"/>
      <point x="103" y="310" type="line"/>
      <point x="103" y="294" type="line"/>
      <point x="437" y="478" type="line"/>
      <point x="409" y="531" type="line"/>
      <point x="50" y="325" type="line"/>
    </contour>
  </outline>
</glyph>
<glyph name="equal" format="2">
  <advance width="489"/>
  <unicode hex="003D"/>
  <outline>
    <contour>
      <point x="462" y="182" type="line"/>
      <point x="462" y="238" type="line"/>
      <point x="26" y="238" type="line"/>
      <point x="26" y="182" type="line"/>
    </contour>
    <contour>
      <point x="462" y="367" type="line"/>
      <point x="462" y="423" type="line"/>
      <point x="26" y="423" type="line"/>
      <point x="26" y="367" type="line"/>
    </contour>
  </outline>
</glyph>
<glyph name="question" format="2">
  <advance width="415"/>
  <unicode hex="003F"/>
  <outline>
    <contour>
      <point x="165" y="-8" type="curve" smooth="yes"/>
      <point x="199" y="-8"/>
      <point x="227" y="20"/>
      <point x="227" y="55" type="curve" smooth="yes"/>
      <point x="227" y="89"/>
      <point x="199" y="117"/>
      <point x="165" y="117" type="curve" smooth="yes"/>
      <point x="130" y="117"/>
      <point x="102" y="89"/>
      <point x="102" y="55" type="curve" smooth="yes"/>
      <point x="102" y="20"/>
      <point x="130" y="-8"/>
    </contour>
    <contour>
      <point x="351" y="487" type="curve" smooth="yes"/>
      <point x="351" y="574"/>
      <point x="280" y="626"/>
      <point x="191" y="626" type="curve" smooth="yes"/>
      <point x="121" y="626"/>
      <point x="42" y="589"/>
      <point x="32" y="485" type="curve"/>
      <point x="116" y="485" type="line"/>
      <point x="120" y="525"/>
      <point x="160" y="546"/>
      <point x="191" y="546" type="curve" smooth="yes"/>
      <point x="245" y="546"/>
      <point x="267" y="520"/>
      <point x="267" y="487" type="curve" smooth="yes"/>
      <point x="267" y="454"/>
      <point x="244" y="431"/>
      <point x="199" y="387" type="curve" smooth="yes"/>
      <point x="138" y="327"/>
      <point x="123" y="292"/>
      <point x="123" y="245" type="curve" smooth="yes"/>
      <point x="123" y="197" type="line"/>
      <point x="207" y="197" type="line"/>
      <point x="207" y="245" type="line" smooth="yes"/>
      <point x="207" y="283"/>
      <point x="227" y="305"/>
      <point x="267" y="343" type="curve" smooth="yes"/>
      <point x="310" y="384"/>
      <point x="351" y="425"/>
    </contour>
  </outline>
</glyph>
<glyph name="at" format="2">
  <advance width="773"/>
  <unicode hex="0040"/>
  <outline>
    <contour>
      <point x="312" y="42" type="curve" smooth="yes"/>
      <point x="375" y="42"/>
      <point x="426" y="94"/>
      <point x="476" y="164" type="curve"/>
      <point x="471" y="179" type="line"/>
      <point x="408" y="117"/>
      <point x="378" y="100"/>
      <point x="345" y="100" type="curve" smooth="yes"/>
      <point x="303" y="100"/>
      <point x="282" y="128"/>
      <point x="282" y="187" type="curve" smooth="yes"/>
      <point x="282" y="313"/>
      <point x="364" y="392"/>
      <point x="422" y="392" type="curve" smooth="yes"/>
      <point x="448" y="392"/>
      <point x="471" y="379"/>
      <point x="494" y="335" type="curve"/>
      <point x="523" y="379" type="line"/>
      <point x="493" y="422"/>
      <point x="464" y="437"/>
      <point x="428" y="437" type="curve" smooth="yes"/>
      <point x="323" y="437"/>
      <point x="213" y="299"/>
      <point x="213" y="163" type="curve" smooth="yes"/>
      <point x="213" y="78"/>
      <point x="262" y="42"/>
    </contour>
    <contour>
      <point x="540" y="42" type="curve" smooth="yes"/>
      <point x="622" y="42"/>
      <point x="739" y="123"/>
      <point x="739" y="299" type="curve" smooth="yes"/>
      <point x="739" y="478"/>
      <point x="629" y="606"/>
      <point x="439" y="606" type="curve" smooth="yes"/>
      <point x="208" y="606"/>
      <point x="34" y="420"/>
      <point x="34" y="186" type="curve" smooth="yes"/>
      <point x="34" y="-28"/>
      <point x="178" y="-142"/>
      <point x="365" y="-142" type="curve" smooth="yes"/>
      <point x="421" y="-142"/>
      <point x="485" y="-130"/>
      <point x="539" y="-103" type="curve"/>
      <point x="527" y="-74" type="line"/>
      <point x="485" y="-92"/>
      <point x="440" y="-102"/>
      <point x="385" y="-102" type="curve" smooth="yes"/>
      <point x="227" y="-102"/>
      <point x="92" y="-4"/>
      <point x="92" y="195" type="curve" smooth="yes"/>
      <point x="92" y="391"/>
      <point x="230" y="567"/>
      <point x="434" y="567" type="curve" smooth="yes"/>
      <point x="578" y="567"/>
      <point x="684" y="471"/>
      <point x="684" y="307" type="curve" smooth="yes"/>
      <point x="684" y="152"/>
      <point x="614" y="87"/>
      <point x="553" y="87" type="curve" smooth="yes"/>
      <point x="514" y="87"/>
      <point x="495" y="113"/>
      <point x="505" y="161" type="curve" smooth="yes"/>
      <point x="556" y="421" type="line"/>
      <point x="538" y="436" type="line"/>
      <point x="485" y="409" type="line"/>
      <point x="435" y="140" type="line"/>
      <point x="439" y="127" type="line"/>
      <point x="444" y="80"/>
      <point x="479" y="42"/>
    </contour>
  </outline>
</glyph>
<glyph name="A" format="2">
  <advance width="611"/>
  <unicode hex="0041"/>
  <anchor x="297" y="634" name="aboveUC"/>
  <anchor x="286" y="-20" name="belowLC"/>
  <anchor x="504" y="0" name="ogonek"/>
  <outline>
    <contour>
      <point x="5" y="0" type="line"/>
      <point x="214" y="0" type="line"/>
      <point x="214" y="38" type="line"/>
      <point x="115" y="52" type="line"/>
      <point x="97" y="52" type="line"/>
      <point x="5" y="38" type="line"/>
    </contour>
    <contour>
      <point x="64" y="0" type="line"/>
      <point x="109" y="0" type="line"/>
      <point x="282" y="510" type="line"/>
      <point x="452" y="0" type="line"/>
      <point x="549" y="0" type="line"/>
      <point x="338" y="618" type="line"/>
      <point x="276" y="618" type="line"/>
    </contour>
    <contour>
      <point x="156" y="197" type="line"/>
      <point x="435" y="197" type="line"/>
      <point x="419" y="241" type="line"/>
      <point x="171" y="241" type="line"/>
    </contour>
    <contour>
      <point x="347" y="0" type="line"/>
      <point x="601" y="0" type="line"/>
      <point x="601" y="38" type="line"/>
      <point x="487" y="52" type="line"/>
      <point x="461" y="52" type="line"/>
      <point x="347" y="38" type="line"/>
    </contour>
  </outline>
</glyph>
<glyph name="C" format="2">
  <advance width="579"/>
  <unicode hex="0043"/>
  <anchor x="340" y="634" name="aboveUC"/>
  <anchor x="348" y="0" name="baseLC"/>
  <anchor x="347" y="-20" name="belowLC"/>
  <outline>
    <contour>
      <point x="42" y="115"/>
      <point x="170" y="-14"/>
      <point x="354" y="-14" type="curve" smooth="yes"/>
      <point x="421" y="-14"/>
      <point x="484" y="0"/>
      <point x="540" y="30" type="curve"/>
      <point x="544" y="164" type="line"/>
      <point x="486" y="164" type="line"/>
      <point x="462" y="27" type="line"/>
      <point x="519" y="40" type="line"/>
      <point x="519" y="90" type="line"/>
      <point x="469" y="48"/>
      <point x="412" y="33"/>
      <point x="361" y="33" type="curve" smooth="yes"/>
      <point x="238" y="33"/>
      <point x="149" y="126"/>
      <point x="149" y="307" type="curve" smooth="yes"/>
      <point x="149" y="487"/>
      <point x="247" y="581"/>
      <point x="367" y="581" type="curve" smooth="yes"/>
      <point x="411" y="581"/>
      <point x="460" y="565"/>
      <point x="511" y="518" type="curve"/>
      <point x="511" y="574" type="line"/>
      <point x="453" y="586" type="line"/>
      <point x="478" y="449" type="line"/>
      <point x="536" y="449" type="line"/>
      <point x="532" y="584" type="line"/>
      <point x="471" y="619"/>
      <point x="407" y="629"/>
      <point x="354" y="629" type="curve" smooth="yes"/>
      <point x="176" y="629"/>
      <point x="42" y="496"/>
      <point x="42" y="307" type="curve" smooth="yes"/>
    </contour>
  </outline>
</glyph>
<glyph name="H" format="2">
  <advance width="723"/>
  <unicode hex="0048"/>
  <anchor x="361" y="634" name="aboveUC"/>
  <anchor x="361" y="-20" name="belowLC"/>
  <outline>
    <contour>
      <point x="39" y="0" type="line"/>
      <point x="302" y="0" type="line"/>
      <point x="302" y="38" type="line"/>
      <point x="180" y="52" type="line"/>
      <point x="161" y="52" type="line"/>
      <point x="39" y="38" type="line"/>
    </contour>
    <contour>
      <point x="124" y="188"/>
      <point x="124" y="92"/>
      <point x="121" y="0" type="curve"/>
      <point x="220" y="0" type="line"/>
      <point x="218" y="94"/>
      <point x="218" y="190"/>
      <point x="218" y="301" type="curve" smooth="yes"/>
      <point x="218" y="329" type="line" smooth="yes"/>
      <point x="218" y="425"/>
      <point x="218" y="521"/>
      <point x="220" y="614" type="curve"/>
      <point x="121" y="614" type="line"/>
      <point x="124" y="519"/>
      <point x="124" y="424"/>
      <point x="124" y="329" type="curve" smooth="yes"/>
      <point x="124" y="285" type="line" smooth="yes"/>
    </contour>
    <contour>
      <point x="171" y="292" type="line"/>
      <point x="552" y="292" type="line"/>
      <point x="552" y="336" type="line"/>
      <point x="171" y="336" type="line"/>
    </contour>
    <contour>
      <point x="420" y="0" type="line"/>
      <point x="683" y="0" type="line"/>
      <point x="683" y="38" type="line"/>
      <point x="562" y="52" type="line"/>
      <point x="542" y="52" type="line"/>
      <point x="420" y="38" type="line"/>
    </contour>
    <contour>
      <point x="505" y="188"/>
      <point x="505" y="92"/>
      <point x="502" y="0" type="curve"/>
      <point x="601" y="0" type="line"/>
      <point x="598" y="94"/>
      <point x="598" y="190"/>
      <point x="598" y="285" type="curve" smooth="yes"/>
      <point x="598" y="329" type="line" smooth="yes"/>
      <point x="598" y="425"/>
      <point x="598" y="521"/>
      <point x="601" y="614" type="curve"/>
      <point x="502" y="614" type="line"/>
      <point x="505" y="519"/>
      <point x="505" y="424"/>
      <point x="505" y="329" type="curve" smooth="yes"/>
      <point x="505" y="301" type="line" smooth="yes"/>
    </contour>
    <contour>
      <point x="39" y="575" type="line"/>
      <point x="161" y="562" type="line"/>
      <point x="180" y="562" type="line"/>
      <point x="302" y="575" type="line"/>
      <point x="302" y="614" type="line"/>
      <point x="39" y="614" type="line"/>
    </contour>
    <contour>
      <point x="420" y="575" type="line"/>
      <point x="542" y="562" type="line"/>
      <point x="562" y="562" type="line"/>
      <point x="683" y="575" type="line"/>
      <point x="683" y="614" type="line"/>
      <point x="420" y="614" type="line"/>
    </contour>
  </outline>
</glyph>
<glyph name="J" format="2">
  <advance width="346"/>
  <unicode hex="004A"/>
  <anchor x="182" y="634" name="aboveUC"/>
  <anchor x="89" y="-151" name="belowLC"/>
  <outline>
    <contour>
      <point x="-33" y="-139"/>
      <point x="3" y="-150"/>
      <point x="39" y="-150" type="curve" smooth="yes"/>
      <point x="90" y="-150"/>
      <point x="137" y="-130"/>
      <point x="169" y="-99" type="curve" smooth="yes"/>
      <point x="220" y="-47"/>
      <point x="230" y="8"/>
      <point x="230" y="192" type="curve" smooth="yes"/>
      <point x="230" y="330" type="line" smooth="yes"/>
      <point x="230" y="426"/>
      <point x="230" y="521"/>
      <point x="232" y="614" type="curve"/>
      <point x="133" y="614" type="line"/>
      <point x="138" y="176"/>
      <point x="142" y="69"/>
      <point x="142" y="9" type="curve" smooth="yes"/>
      <point x="142" y="-51"/>
      <point x="131" y="-87"/>
      <point x="99" y="-114" type="curve"/>
      <point x="100" y="-121" type="line"/>
      <point x="107" y="-121" type="line"/>
      <point x="115" y="-112" type="line"/>
      <point x="85" y="-86" type="line" smooth="yes"/>
      <point x="58" y="-65"/>
      <point x="38" y="-56"/>
      <point x="14" y="-56" type="curve" smooth="yes"/>
      <point x="-15" y="-56"/>
      <point x="-38" y="-69"/>
      <point x="-43" y="-103" type="curve"/>
    </contour>
    <contour>
      <point x="42" y="575" type="line"/>
      <point x="172" y="562" type="line"/>
      <point x="193" y="562" type="line"/>
      <point x="315" y="575" type="line"/>
      <point x="315" y="614" type="line"/>
      <point x="42" y="614" type="line"/>
    </contour>
  </outline>
</glyph>
<glyph name="M" format="2">
  <advance width="828"/>
  <unicode hex="004D"/>
  <anchor x="404" y="634" name="aboveUC"/>
  <anchor x="388" y="-20" name="belowLC"/>
  <outline>
    <contour>
      <point x="34" y="0" type="line"/>
      <point x="241" y="0" type="line"/>
      <point x="241" y="38" type="line"/>
      <point x="151" y="52" type="line"/>
      <point x="131" y="52" type="line"/>
      <point x="34" y="38" type="line"/>
    </contour>
    <contour>
      <point x="34" y="575" type="line"/>
      <point x="146" y="562" type="line"/>
      <point x="158" y="562" type="line"/>
      <point x="158" y="614" type="line"/>
      <point x="34" y="614" type="line"/>
    </contour>
    <contour>
      <point x="117" y="0" type="line"/>
      <point x="166" y="0" type="line"/>
      <point x="166" y="333" type="line"/>
      <point x="158" y="614" type="line"/>
      <point x="117" y="614" type="line"/>
    </contour>
    <contour>
      <point x="368" y="0" type="line"/>
      <point x="416" y="0" type="line"/>
      <point x="652" y="614" type="line"/>
      <point x="601" y="614" type="line"/>
      <point x="397" y="79" type="line"/>
      <point x="428" y="79" type="line"/>
      <point x="212" y="614" type="line"/>
      <point x="118" y="614" type="line"/>
    </contour>
    <contour>
      <point x="533" y="0" type="line"/>
      <point x="789" y="0" type="line"/>
      <point x="789" y="38" type="line"/>
      <point x="667" y="52" type="line"/>
      <point x="645" y="52" type="line"/>
      <point x="533" y="38" type="line"/>
    </contour>
    <contour>
      <point x="609" y="0" type="curve"/>
      <point x="707" y="0" type="line"/>
      <point x="704" y="94"/>
      <point x="704" y="190"/>
      <point x="704" y="285" type="curve" smooth="yes"/>
      <point x="704" y="329" type="line" smooth="yes"/>
      <point x="704" y="425"/>
      <point x="704" y="521"/>
      <point x="707" y="614" type="curve"/>
      <point x="612" y="614" type="line"/>
      <point x="611" y="282" type="line" smooth="yes"/>
      <point x="611" y="188"/>
      <point x="611" y="92"/>
    </contour>
    <contour>
      <point x="657" y="562" type="line"/>
      <point x="667" y="562" type="line"/>
      <point x="788" y="575" type="line"/>
      <point x="788" y="614" type="line"/>
      <point x="657" y="614" type="line"/>
    </contour>
  </outline>
</glyph>
<glyph name="P" format="2">
  <advance width="544"/>
  <unicode hex="0050"/>
  <anchor x="270" y="634" name="aboveUC"/>
  <anchor x="171" y="-20" name="belowLC"/>
  <outline>
    <contour>
      <point x="39" y="0" type="line"/>
      <point x="305" y="0" type="line"/>
      <point x="305" y="38" type="line"/>
      <point x="184" y="52" type="line"/>
      <point x="161" y="52" type="line"/>
      <point x="39" y="38" type="line"/>
    </contour>
    <contour>
      <point x="124" y="188"/>
      <point x="124" y="92"/>
      <point x="121" y="0" type="curve"/>
      <point x="221" y="0" type="line"/>
      <point x="218" y="94"/>
      <point x="218" y="182"/>
      <point x="218" y="273" type="curve" smooth="yes"/>
      <point x="218" y="329" type="line" smooth="yes"/>
      <point x="218" y="425"/>
      <point x="218" y="521"/>
      <point x="221" y="614" type="curve"/>
      <point x="121" y="614" type="line"/>
      <point x="124" y="519"/>
      <point x="124" y="424"/>
      <point x="124" y="329" type="curve" smooth="yes"/>
      <point x="124" y="285" type="line" smooth="yes"/>
    </contour>
    <contour>
      <point x="171" y="241" type="line"/>
      <point x="264" y="241" type="line" smooth="yes"/>
      <point x="453" y="241"/>
      <point x="524" y="328"/>
      <point x="524" y="431" type="curve" smooth="yes"/>
      <point x="524" y="540"/>
      <point x="446" y="614"/>
      <point x="287" y="614" type="curve" smooth="yes"/>
      <point x="171" y="614" type="line"/>
      <point x="171" y="570" type="line"/>
      <point x="272" y="570" type="line" smooth="yes"/>
      <point x="379" y="570"/>
      <point x="427" y="519"/>
      <point x="427" y="431" type="curve" smooth="yes"/>
      <point x="427" y="345"/>
      <point x="384" y="285"/>
      <point x="276" y="285" type="curve" smooth="yes"/>
      <point x="171" y="285" type="line"/>
    </contour>
    <contour>
      <point x="39" y="575" type="line"/>
      <point x="161" y="562" type="line"/>
      <point x="171" y="562" type="line"/>
      <point x="171" y="614" type="line"/>
      <point x="39" y="614" type="line"/>
    </contour>
  </outline>
</glyph>
<glyph name="R" format="2">
  <advance width="601"/>
  <unicode hex="0052"/>
  <anchor x="283" y="634" name="aboveUC"/>
  <anchor x="330" y="-20" name="belowLC"/>
  <outline>
    <contour>
      <point x="517" y="-10" type="curve" smooth="yes"/>
      <point x="548" y="-10"/>
      <point x="568" y="-6"/>
      <point x="589" y="0" type="curve"/>
      <point x="589" y="38" type="line"/>
      <point x="488" y="50" type="line"/>
      <point x="524" y="28" type="line"/>
      <point x="482" y="179" type="line" smooth="yes"/>
      <point x="459" y="264"/>
      <point x="418" y="298"/>
      <point x="340" y="303" type="curve"/>
      <point x="337" y="296" type="line"/>
      <point x="465" y="306"/>
      <point x="525" y="377"/>
      <point x="525" y="454" type="curve" smooth="yes"/>
      <point x="525" y="554"/>
      <point x="442" y="614"/>
      <point x="301" y="614" type="curve" smooth="yes"/>
      <point x="171" y="614" type="line"/>
      <point x="171" y="570" type="line"/>
      <point x="294" y="570" type="line" smooth="yes"/>
      <point x="387" y="570"/>
      <point x="428" y="529"/>
      <point x="428" y="452" type="curve" smooth="yes"/>
      <point x="428" y="379"/>
      <point x="383" y="326"/>
      <point x="285" y="326" type="curve" smooth="yes"/>
      <point x="172" y="326" type="line"/>
      <point x="172" y="284" type="line"/>
      <point x="262" y="284" type="line" smooth="yes"/>
      <point x="334" y="284"/>
      <point x="367" y="268"/>
      <point x="384" y="195" type="curve" smooth="yes"/>
      <point x="418" y="53" type="line" smooth="yes"/>
      <point x="429" y="6"/>
      <point x="457" y="-10"/>
    </contour>
    <contour>
      <point x="39" y="0" type="line"/>
      <point x="303" y="0" type="line"/>
      <point x="303" y="38" type="line"/>
      <point x="181" y="52" type="line"/>
      <point x="161" y="52" type="line"/>
      <point x="39" y="38" type="line"/>
    </contour>
    <contour>
      <point x="121" y="0" type="curve"/>
      <point x="220" y="0" type="line"/>
      <point x="218" y="94"/>
      <point x="218" y="190"/>
      <point x="218" y="293" type="curve" smooth="yes"/>
      <point x="218" y="321" type="line" smooth="yes"/>
      <point x="218" y="428"/>
      <point x="218" y="518"/>
      <point x="220" y="614" type="curve"/>
      <point x="121" y="614" type="line"/>
      <point x="124" y="519"/>
      <point x="124" y="424"/>
      <point x="124" y="329" type="curve" smooth="yes"/>
      <point x="124" y="285" type="line" smooth="yes"/>
      <point x="124" y="188"/>
      <point x="124" y="92"/>
    </contour>
    <contour>
      <point x="161" y="562" type="line"/>
      <point x="171" y="562" type="line"/>
      <point x="171" y="614" type="line"/>
      <point x="39" y="614" type="line"/>
      <point x="39" y="575" type="line"/>
    </contour>
  </outline>
</glyph>
<glyph name="S" format="2">
  <advance width="473"/>
  <unicode hex="0053"/>
  <anchor x="239" y="634" name="aboveUC"/>
  <anchor x="224" y="0" name="baseLC"/>
  <anchor x="227" y="-20" name="belowLC"/>
  <outline>
    <contour>
      <point x="218" y="-14" type="curve" smooth="yes"/>
      <point x="348" y="-14"/>
      <point x="438" y="53"/>
      <point x="438" y="161" type="curve" smooth="yes"/>
      <point x="438" y="249"/>
      <point x="391" y="302"/>
      <point x="270" y="350" type="curve" smooth="yes"/>
      <point x="233" y="365" type="line" smooth="yes"/>
      <point x="168" y="391"/>
      <point x="131" y="423"/>
      <point x="131" y="480" type="curve" smooth="yes"/>
      <point x="131" y="545"/>
      <point x="184" y="581"/>
      <point x="253" y="581" type="curve" smooth="yes"/>
      <point x="301" y="581"/>
      <point x="335" y="564"/>
      <point x="381" y="522" type="curve"/>
      <point x="381" y="568" type="line"/>
      <point x="320" y="598" type="line"/>
      <point x="345" y="459" type="line"/>
      <point x="404" y="459" type="line"/>
      <point x="411" y="580" type="line"/>
      <point x="370" y="609"/>
      <point x="319" y="629"/>
      <point x="257" y="629" type="curve" smooth="yes"/>
      <point x="137" y="629"/>
      <point x="47" y="563"/>
      <point x="47" y="457" type="curve" smooth="yes"/>
      <point x="47" y="362"/>
      <point x="112" y="309"/>
      <point x="207" y="270" type="curve" smooth="yes"/>
      <point x="243" y="255" type="line" smooth="yes"/>
      <point x="319" y="225"/>
      <point x="353" y="199"/>
      <point x="353" y="141" type="curve" smooth="yes"/>
      <point x="353" y="72"/>
      <point x="299" y="33"/>
      <point x="215" y="33" type="curve" smooth="yes"/>
      <point x="153" y="33"/>
      <point x="121" y="51"/>
      <point x="63" y="91" type="curve"/>
      <point x="63" y="46" type="line"/>
      <point x="125" y="21" type="line"/>
      <point x="101" y="164" type="line"/>
      <point x="41" y="164" type="line"/>
      <point x="35" y="34" type="line"/>
      <point x="80" y="6"/>
      <point x="149" y="-14"/>
    </contour>
  </outline>
</glyph>
<glyph name="T" format="2">
  <advance width="558"/>
  <unicode hex="0054"/>
  <anchor x="279" y="634" name="aboveUC"/>
  <anchor x="279" y="0" name="baseLC"/>
  <anchor x="279" y="-20" name="belowLC"/>
  <outline>
    <contour>
      <point x="138" y="0" type="line"/>
      <point x="420" y="0" type="line"/>
      <point x="420" y="38" type="line"/>
      <point x="289" y="52" type="line"/>
      <point x="267" y="52" type="line"/>
      <point x="138" y="38" type="line"/>
    </contour>
    <contour>
      <point x="231" y="188"/>
      <point x="231" y="92"/>
      <point x="229" y="0" type="curve"/>
      <point x="329" y="0" type="line"/>
      <point x="326" y="94"/>
      <point x="326" y="190"/>
      <point x="326" y="285" type="curve" smooth="yes"/>
      <point x="326" y="329" type="line" smooth="yes"/>
      <point x="326" y="425"/>
      <point x="326" y="521"/>
      <point x="329" y="614" type="curve"/>
      <point x="229" y="614" type="line"/>
      <point x="231" y="519"/>
      <point x="231" y="424"/>
      <point x="231" y="329" type="curve" smooth="yes"/>
      <point x="231" y="285" type="line" smooth="yes"/>
    </contour>
    <contour>
      <point x="18" y="449" type="line"/>
      <point x="73" y="449" type="line"/>
      <point x="102" y="614" type="line"/>
      <point x="57" y="567" type="line"/>
      <point x="501" y="567" type="line"/>
      <point x="456" y="614" type="line"/>
      <point x="484" y="449" type="line"/>
      <point x="540" y="449" type="line"/>
      <point x="533" y="614" type="line"/>
      <point x="24" y="614" type="line"/>
    </contour>
  </outline>
</glyph>
<glyph name="U" format="2">
  <advance width="669"/>
  <unicode hex="0055"/>
  <anchor x="353" y="634" name="aboveUC"/>
  <anchor x="344" y="-20" name="belowLC"/>
  <anchor x="540" y="624" name="hornLC"/>
  <anchor x="415" y="0" name="ogonek"/>
  <outline>
    <contour>
      <point x="112" y="58"/>
      <point x="203" y="-14"/>
      <point x="337" y="-14" type="curve" smooth="yes"/>
      <point x="465" y="-14"/>
      <point x="559" y="58"/>
      <point x="559" y="253" type="curve" smooth="yes"/>
      <point x="559" y="614" type="line"/>
      <point x="510" y="614" type="line"/>
      <point x="510" y="272" type="line" smooth="yes"/>
      <point x="510" y="112"/>
      <point x="458" y="53"/>
      <point x="356" y="53" type="curve" smooth="yes"/>
      <point x="263" y="53"/>
      <point x="206" y="103"/>
      <point x="206" y="258" type="curve" smooth="yes"/>
      <point x="206" y="331" type="line" smooth="yes"/>
      <point x="206" y="426"/>
      <point x="206" y="521"/>
      <point x="208" y="614" type="curve"/>
      <point x="109" y="614" type="line"/>
      <point x="112" y="519"/>
      <point x="112" y="425"/>
      <point x="112" y="331" type="curve" smooth="yes"/>
      <point x="112" y="230" type="line" smooth="yes"/>
    </contour>
    <contour>
      <point x="34" y="575" type="line"/>
      <point x="157" y="562" type="line"/>
      <point x="177" y="562" type="line"/>
      <point x="299" y="575" type="line"/>
      <point x="299" y="614" type="line"/>
      <point x="34" y="614" type="line"/>
    </contour>
    <contour>
      <point x="417" y="575" type="line"/>
      <point x="518" y="563" type="line"/>
      <point x="538" y="563" type="line"/>
      <point x="638" y="575" type="line"/>
      <point x="638" y="614" type="line"/>
      <point x="417" y="614" type="line"/>
    </contour>
  </outline>
</glyph>
<glyph name="W" format="2">
  <advance width="886"/>
  <unicode hex="0057"/>
  <anchor x="464" y="634" name="aboveUC"/>
  <anchor x="458" y="-20" name="belowLC"/>
  <outline>
    <contour>
      <point x="253" y="-5" type="line"/>
      <point x="297" y="-5" type="line"/>
      <point x="453" y="491" type="line"/>
      <point x="436" y="490" type="line"/>
      <point x="601" y="-5" type="line"/>
      <point x="646" y="-5" type="line"/>
      <point x="816" y="614" type="line"/>
      <point x="768" y="614" type="line"/>
      <point x="630" y="116" type="line"/>
      <point x="645" y="116" type="line"/>
      <point x="488" y="614" type="line"/>
      <point x="448" y="614" type="line"/>
      <point x="286" y="122" type="line"/>
      <point x="302" y="121" type="line"/>
      <point x="171" y="614" type="line"/>
      <point x="73" y="614" type="line"/>
    </contour>
    <contour>
      <point x="12" y="575" type="line"/>
      <point x="134" y="562" type="line"/>
      <point x="154" y="562" type="line"/>
      <point x="266" y="575" type="line"/>
      <point x="266" y="614" type="line"/>
      <point x="12" y="614" type="line"/>
    </contour>
    <contour>
      <point x="343" y="575" type="line"/>
      <point x="460" y="562" type="line"/>
      <point x="483" y="562" type="line"/>
      <point x="596" y="575" type="line"/>
      <point x="596" y="614" type="line"/>
      <point x="343" y="614" type="line"/>
    </contour>
    <contour>
      <point x="671" y="575" type="line"/>
      <point x="766" y="562" type="line"/>
      <point x="785" y="562" type="line"/>
      <point x="878" y="575" type="line"/>
      <point x="878" y="614" type="line"/>
      <point x="671" y="614" type="line"/>
    </contour>
  </outline>
</glyph>
<glyph name="X" format="2">
  <advance width="597"/>
  <unicode hex="0058"/>
  <anchor x="299" y="634" name="aboveUC"/>
  <anchor x="287" y="-20" name="belowLC"/>
  <outline>
    <contour>
      <point x="9" y="0" type="line"/>
      <point x="218" y="0" type="line"/>
      <point x="218" y="38" type="line"/>
      <point x="126" y="51" type="line"/>
      <point x="107" y="51" type="line"/>
      <point x="9" y="38" type="line"/>
    </contour>
    <contour>
      <point x="62" y="0" type="line"/>
      <point x="116" y="0" type="line"/>
      <point x="308" y="302" type="line"/>
      <point x="276" y="325" type="line"/>
    </contour>
    <contour>
      <point x="323" y="0" type="line"/>
      <point x="587" y="0" type="line"/>
      <point x="587" y="38" type="line"/>
      <point x="466" y="52" type="line"/>
      <point x="444" y="52" type="line"/>
      <point x="323" y="38" type="line"/>
    </contour>
    <contour>
      <point x="310" y="292" type="line"/>
      <point x="519" y="614" type="line"/>
      <point x="464" y="614" type="line"/>
      <point x="279" y="315" type="line"/>
    </contour>
    <contour>
      <point x="435" y="0" type="line"/>
      <point x="540" y="0" type="line"/>
      <point x="171" y="614" type="line"/>
      <point x="67" y="614" type="line"/>
    </contour>
    <contour>
      <point x="16" y="575" type="line"/>
      <point x="135" y="562" type="line"/>
      <point x="158" y="562" type="line"/>
      <point x="278" y="575" type="line"/>
      <point x="278" y="614" type="line"/>
      <point x="16" y="614" type="line"/>
    </contour>
    <contour>
      <point x="358" y="575" type="line"/>
      <point x="449" y="563" type="line"/>
      <point x="469" y="563" type="line"/>
      <point x="567" y="575" type="line"/>
      <point x="567" y="614" type="line"/>
      <point x="358" y="614" type="line"/>
    </contour>
  </outline>
</glyph>
<glyph name="Y" format="2">
  <advance width="581"/>
  <unicode hex="0059"/>
  <anchor x="310" y="634" name="aboveUC"/>
  <anchor x="289" y="-20" name="belowLC"/>
  <outline>
    <contour>
      <point x="150" y="0" type="line"/>
      <point x="433" y="0" type="line"/>
      <point x="433" y="38" type="line"/>
      <point x="302" y="52" type="line"/>
      <point x="280" y="52" type="line"/>
      <point x="150" y="38" type="line"/>
    </contour>
    <contour>
      <point x="241" y="0" type="curve"/>
      <point x="342" y="0" type="line"/>
      <point x="339" y="81"/>
      <point x="339" y="167"/>
      <point x="339" y="276" type="curve"/>
      <point x="244" y="276" type="line"/>
      <point x="244" y="166"/>
      <point x="244" y="80"/>
    </contour>
    <contour>
      <point x="261" y="205" type="line"/>
      <point x="320" y="205" type="line"/>
      <point x="517" y="614" type="line"/>
      <point x="469" y="614" type="line"/>
      <point x="300" y="258" type="line"/>
      <point x="332" y="258" type="line"/>
      <point x="168" y="614" type="line"/>
      <point x="59" y="614" type="line"/>
    </contour>
    <contour>
      <point x="12" y="575" type="line"/>
      <point x="135" y="562" type="line"/>
      <point x="157" y="562" type="line"/>
      <point x="276" y="575" type="line"/>
      <point x="276" y="614" type="line"/>
      <point x="12" y="614" type="line"/>
    </contour>
    <contour>
      <point x="364" y="575" type="line"/>
      <point x="464" y="562" type="line"/>
      <point x="482" y="562" type="line"/>
      <point x="573" y="575" type="line"/>
      <point x="573" y="614" type="line"/>
      <point x="364" y="614" type="line"/>
    </contour>
  </outline>
</glyph>
<glyph name="asciicircum" format="2">
  <advance width="489"/>
  <unicode hex="005E"/>
  <outline>
    <contour>
      <point x="77" y="221" type="line"/>
      <point x="121" y="189" type="line"/>
      <point x="263" y="412" type="line"/>
      <point x="229" y="412" type="line"/>
      <point x="370" y="189" type="line"/>
      <point x="414" y="221" type="line"/>
      <point x="276" y="445" type="line"/>
      <point x="215" y="445" type="line"/>
    </contour>
  </outline>
</glyph>
<glyph name="underscore" format="2">
  <advance width="473"/>
  <unicode hex="005F"/>
  <outline>
    <contour>
      <point x="36" y="-62" type="line"/>
      <point x="437" y="-62" type="line"/>
      <point x="437" y="0" type="line"/>
      <point x="36" y="0" type="line"/>
    </contour>
  </outline>
</glyph>
<glyph name="grave" format="2">
  <advance width="368"/>
  <unicode hex="0060"/>
  <anchor x="187" y="467" name="_aboveLC"/>
  <anchor x="187" y="680" name="aboveLC"/>
  <outline>
    <contour>
      <point x="238" y="530" type="line"/>
      <point x="213" y="572"/>
      <point x="188" y="612"/>
      <point x="158" y="659" type="curve" smooth="yes"/>
      <point x="139" y="689"/>
      <point x="124" y="699"/>
      <point x="105" y="699" type="curve" smooth="yes"/>
      <point x="87" y="699"/>
      <point x="69" y="687"/>
      <point x="69" y="662" type="curve" smooth="yes"/>
      <point x="69" y="647"/>
      <point x="76" y="632"/>
      <point x="103" y="609" type="curve" smooth="yes"/>
      <point x="142" y="574"/>
      <point x="177" y="543"/>
      <point x="213" y="511" type="curve"/>
    </contour>
  </outline>
</glyph>
<glyph name="b" format="2">
  <advance width="533"/>
  <unicode hex="0062"/>
  <anchor x="124" y="677" name="aboveLC"/>
  <anchor x="297" y="-20" name="belowLC"/>
  <outline>
    <contour>
      <point x="27" y="0" type="line"/>
      <point x="169" y="-10" type="line"/>
      <point x="181" y="71" type="line"/>
      <point x="181" y="357" type="line"/>
      <point x="178" y="369" type="line"/>
      <point x="178" y="540" type="line"/>
      <point x="182" y="670" type="line"/>
      <point x="168" y="678" type="line"/>
      <point x="22" y="637" type="line"/>
      <point x="22" y="604" type="line"/>
      <point x="95" y="595" type="line"/>
      <point x="95" y="193" type="line" smooth="yes"/>
      <point x="95" y="151"/>
      <point x="94" y="92"/>
      <point x="93" y="46" type="curve"/>
      <point x="27" y="34" type="line"/>
    </contour>
    <contour>
      <point x="199" y="10"/>
      <point x="250" y="-11"/>
      <point x="304" y="-11" type="curve" smooth="yes"/>
      <point x="411" y="-11"/>
      <point x="494" y="80"/>
      <point x="494" y="223" type="curve" smooth="yes"/>
      <point x="494" y="367"/>
      <point x="416" y="449"/>
      <point x="318" y="449" type="curve" smooth="yes"/>
      <point x="260" y="449"/>
      <point x="206" y="420"/>
      <point x="157" y="354" type="curve"/>
      <point x="139" y="354" type="line"/>
      <point x="148" y="312" type="line"/>
      <point x="209" y="374"/>
      <point x="253" y="394"/>
      <point x="289" y="394" type="curve" smooth="yes"/>
      <point x="356" y="394"/>
      <point x="403" y="333"/>
      <point x="403" y="216" type="curve" smooth="yes"/>
      <point x="403" y="98"/>
      <point x="349" y="42"/>
      <point x="285" y="42" type="curve" smooth="yes"/>
      <point x="241" y="42"/>
      <point x="195" y="67"/>
      <point x="149" y="126" type="curve"/>
      <point x="140" y="84" type="line"/>
      <point x="155" y="84" type="line"/>
    </contour>
  </outline>
</glyph>
<glyph name="d" format="2">
  <advance width="524"/>
  <unicode hex="0064"/>
  <anchor x="368" y="677" name="aboveLC"/>
  <anchor x="266" y="-20" name="belowLC"/>
  <outline>
    <contour>
      <point x="39" y="79"/>
      <point x="115" y="-11"/>
      <point x="227" y="-11" type="curve" smooth="yes"/>
      <point x="291" y="-11"/>
      <point x="334" y="18"/>
      <point x="369" y="71" type="curve"/>
      <point x="381" y="71" type="line"/>
      <point x="373" y="117" type="line"/>
      <point x="333" y="65"/>
      <point x="300" y="43"/>
      <point x="254" y="43" type="curve" smooth="yes"/>
      <point x="183" y="43"/>
      <point x="130" y="97"/>
      <point x="130" y="217" type="curve" smooth="yes"/>
      <point x="130" y="340"/>
      <point x="187" y="394"/>
      <point x="253" y="394" type="curve" smooth="yes"/>
      <point x="289" y="394"/>
      <point x="324" y="379"/>
      <point x="375" y="328" type="curve"/>
      <point x="384" y="375" type="line"/>
      <point x="368" y="375" type="line"/>
      <point x="327" y="430"/>
      <point x="286" y="449"/>
      <point x="236" y="449" type="curve" smooth="yes"/>
      <point x="125" y="449"/>
      <point x="39" y="356"/>
      <point x="39" y="215" type="curve" smooth="yes"/>
    </contour>
    <contour>
      <point x="362" y="-9" type="line"/>
      <point x="509" y="0" type="line"/>
      <point x="509" y="34" type="line"/>
      <point x="437" y="45" type="line"/>
      <point x="437" y="540" type="line"/>
      <point x="441" y="670" type="line"/>
      <point x="428" y="678" type="line"/>
      <point x="278" y="637" type="line"/>
      <point x="278" y="604" type="line"/>
      <point x="356" y="595" type="line"/>
      <point x="356" y="369" type="line"/>
      <point x="352" y="357" type="line"/>
      <point x="352" y="82" type="line"/>
    </contour>
  </outline>
</glyph>
<glyph name="e" format="2">
  <advance width="470"/>
  <unicode hex="0065"/>
  <anchor x="254" y="467" name="aboveLC"/>
  <anchor x="262" y="-20" name="belowLC"/>
  <anchor x="318" y="0" name="ogonek"/>
  <outline>
    <contour>
      <point x="39" y="73"/>
      <point x="122" y="-11"/>
      <point x="247" y="-11" type="curve" smooth="yes"/>
      <point x="332" y="-11"/>
      <point x="391" y="28"/>
      <point x="425" y="94" type="curve"/>
      <point x="402" y="113" type="line"/>
      <point x="370" y="76"/>
      <point x="333" y="50"/>
      <point x="276" y="50" type="curve" smooth="yes"/>
      <point x="188" y="50"/>
      <point x="129" y="111"/>
      <point x="129" y="227" type="curve" smooth="yes"/>
      <point x="129" y="358"/>
      <point x="193" y="407"/>
      <point x="248" y="407" type="curve" smooth="yes"/>
      <point x="302" y="407"/>
      <point x="344" y="362"/>
      <point x="344" y="309" type="curve" smooth="yes"/>
      <point x="344" y="280"/>
      <point x="333" y="260"/>
      <point x="289" y="260" type="curve" smooth="yes"/>
      <point x="78" y="260" type="line"/>
      <point x="78" y="219" type="line"/>
      <point x="421" y="219" type="line"/>
      <point x="425" y="232"/>
      <point x="426" y="250"/>
      <point x="426" y="271" type="curve" smooth="yes"/>
      <point x="426" y="382"/>
      <point x="352" y="449"/>
      <point x="253" y="449" type="curve" smooth="yes"/>
      <point x="138" y="449"/>
      <point x="39" y="357"/>
      <point x="39" y="214" type="curve" smooth="yes"/>
    </contour>
  </outline>
</glyph>
<glyph name="f" format="2">
  <advance width="326"/>
  <unicode hex="0066"/>
  <anchor x="270" y="689" name="aboveLC"/>
  <anchor x="147" y="-20" name="belowLC"/>
  <outline>
    <contour>
      <point x="32" y="0" type="line"/>
      <point x="273" y="0" type="line"/>
      <point x="273" y="34" type="line"/>
      <point x="164" y="52" type="line"/>
      <point x="134" y="52" type="line"/>
      <point x="32" y="34" type="line"/>
    </contour>
    <contour>
      <point x="102" y="0" type="curve"/>
      <point x="192" y="0" type="line"/>
      <point x="190" y="64"/>
      <point x="189" y="128"/>
      <point x="189" y="193" type="curve" smooth="yes"/>
      <point x="189" y="400" type="line"/>
      <point x="182" y="526"/>
      <point x="198" y="598"/>
      <point x="234" y="633" type="curve" smooth="yes"/>
      <point x="252" y="651"/>
      <point x="273" y="660"/>
      <point x="292" y="660" type="curve" smooth="yes"/>
      <point x="303" y="660"/>
      <point x="317" y="655"/>
      <point x="327" y="649" type="curve"/>
      <point x="308" y="677" type="line"/>
      <point x="229" y="658" type="line"/>
      <point x="270" y="624" type="line" smooth="yes"/>
      <point x="292" y="603"/>
      <point x="313" y="592"/>
      <point x="338" y="592" type="curve" smooth="yes"/>
      <point x="372" y="592"/>
      <point x="393" y="611"/>
      <point x="394" y="636" type="curve"/>
      <point x="385" y="673"/>
      <point x="348" y="688"/>
      <point x="304" y="688" type="curve" smooth="yes"/>
      <point x="261" y="688"/>
      <point x="215" y="674"/>
      <point x="175" y="634" type="curve" smooth="yes"/>
      <point x="128" y="588"/>
      <point x="114" y="533"/>
      <point x="105" y="434" type="curve"/>
      <point x="104" y="426" type="line"/>
      <point x="135" y="442" type="line"/>
      <point x="30" y="428" type="line"/>
      <point x="30" y="387" type="line"/>
      <point x="104" y="387" type="line"/>
      <point x="104" y="193" type="line" smooth="yes"/>
      <point x="104" y="128"/>
      <point x="103" y="64"/>
    </contour>
    <contour>
      <point x="147" y="387" type="line"/>
      <point x="311" y="387" type="line"/>
      <point x="311" y="437" type="line"/>
      <point x="147" y="437" type="line"/>
    </contour>
  </outline>
</glyph>
<glyph name="h" format="2">
  <advance width="554"/>
  <unicode hex="0068"/>
  <anchor x="127" y="677" name="aboveLC"/>
  <anchor x="288" y="-20" name="belowLC"/>
  <outline>
    <contour>
      <point x="27" y="0" type="line"/>
      <point x="243" y="0" type="line"/>
      <point x="243" y="34" type="line"/>
      <point x="152" y="52" type="line"/>
      <point x="126" y="52" type="line"/>
      <point x="27" y="34" type="line"/>
    </contour>
    <contour>
      <point x="95" y="136"/>
      <point x="94" y="41"/>
      <point x="92" y="0" type="curve"/>
      <point x="184" y="0" type="line"/>
      <point x="182" y="41"/>
      <point x="181" y="136"/>
      <point x="181" y="193" type="curve" smooth="yes"/>
      <point x="181" y="335" type="line"/>
      <point x="178" y="347" type="line"/>
      <point x="178" y="540" type="line"/>
      <point x="182" y="670" type="line"/>
      <point x="168" y="678" type="line"/>
      <point x="22" y="637" type="line"/>
      <point x="22" y="604" type="line"/>
      <point x="95" y="595" type="line"/>
      <point x="95" y="193" type="line" smooth="yes"/>
    </contour>
    <contour>
      <point x="310" y="0" type="line"/>
      <point x="527" y="0" type="line"/>
      <point x="527" y="34" type="line"/>
      <point x="436" y="52" type="line"/>
      <point x="409" y="52" type="line"/>
      <point x="310" y="34" type="line"/>
    </contour>
    <contour>
      <point x="378" y="134"/>
      <point x="377" y="41"/>
      <point x="375" y="0" type="curve"/>
      <point x="466" y="0" type="line"/>
      <point x="464" y="41"/>
      <point x="463" y="134"/>
      <point x="463" y="193" type="curve" smooth="yes"/>
      <point x="463" y="281" type="line" smooth="yes"/>
      <point x="463" y="400"/>
      <point x="423" y="449"/>
      <point x="344" y="449" type="curve" smooth="yes"/>
      <point x="281" y="449"/>
      <point x="214" y="410"/>
      <point x="167" y="353" type="curve"/>
      <point x="157" y="353" type="line"/>
      <point x="172" y="316" type="line"/>
      <point x="223" y="363"/>
      <point x="261" y="381"/>
      <point x="305" y="381" type="curve" smooth="yes"/>
      <point x="357" y="381"/>
      <point x="378" y="355"/>
      <point x="378" y="273" type="curve" smooth="yes"/>
      <point x="378" y="193" type="line" smooth="yes"/>
    </contour>
  </outline>
</glyph>
<glyph name="k" format="2">
  <advance width="508"/>
  <unicode hex="006B"/>
  <anchor x="138" y="677" name="aboveLC"/>
  <anchor x="285" y="-20" name="belowLC"/>
  <outline>
    <contour>
      <point x="23" y="0" type="line"/>
      <point x="253" y="0" type="line"/>
      <point x="253" y="34" type="line"/>
      <point x="150" y="52" type="line"/>
      <point x="124" y="52" type="line"/>
      <point x="23" y="34" type="line"/>
    </contour>
    <contour>
      <point x="95" y="130"/>
      <point x="94" y="60"/>
      <point x="92" y="0" type="curve"/>
      <point x="184" y="0" type="line"/>
      <point x="182" y="60"/>
      <point x="181" y="130"/>
      <point x="181" y="194" type="curve" smooth="yes"/>
      <point x="181" y="540" type="line"/>
      <point x="184" y="670" type="line"/>
      <point x="171" y="678" type="line"/>
      <point x="22" y="637" type="line"/>
      <point x="22" y="604" type="line"/>
      <point x="95" y="595" type="line"/>
      <point x="95" y="193" type="line" smooth="yes"/>
    </contour>
    <contour>
      <point x="138" y="125" type="line"/>
      <point x="446" y="437" type="line"/>
      <point x="388" y="437" type="line"/>
      <point x="138" y="179" type="line"/>
    </contour>
    <contour>
      <point x="376" y="0" type="line"/>
      <point x="507" y="0" type="line"/>
      <point x="507" y="34" type="line"/>
      <point x="448" y="45" type="line"/>
      <point x="288" y="303" type="line"/>
      <point x="229" y="243" type="line"/>
    </contour>
    <contour>
      <point x="268" y="401" type="line"/>
      <point x="355" y="380" type="line"/>
      <point x="381" y="386" type="line"/>
      <point x="483" y="401" type="line"/>
      <point x="483" y="437" type="line"/>
      <point x="269" y="437" type="line"/>
    </contour>
  </outline>
</glyph>
<glyph name="o" format="2">
  <advance width="506"/>
  <unicode hex="006F"/>
  <anchor x="253" y="467" name="aboveLC"/>
  <anchor x="253" y="-20" name="belowLC"/>
  <anchor x="363" y="442" name="hornLC"/>
  <anchor x="323" y="0" name="ogonek"/>
  <outline>
    <contour>
      <point x="253" y="-11" type="curve" smooth="yes"/>
      <point x="363" y="-11"/>
      <point x="466" y="66"/>
      <point x="466" y="217" type="curve" smooth="yes"/>
      <point x="466" y="368"/>
      <point x="361" y="449"/>
      <point x="253" y="449" type="curve" smooth="yes"/>
      <point x="143" y="449"/>
      <point x="39" y="368"/>
      <point x="39" y="217" type="curve" smooth="yes"/>
      <point x="39" y="66"/>
      <point x="141" y="-11"/>
    </contour>
    <contour>
      <point x="253" y="30" type="curve" smooth="yes"/>
      <point x="175" y="30"/>
      <point x="134" y="92"/>
      <point x="134" y="217" type="curve" smooth="yes"/>
      <point x="134" y="341"/>
      <point x="175" y="407"/>
      <point x="253" y="407" type="curve" smooth="yes"/>
      <point x="328" y="407"/>
      <point x="372" y="341"/>
      <point x="372" y="217" type="curve" smooth="yes"/>
      <point x="372" y="92"/>
      <point x="328" y="30"/>
    </contour>
  </outline>
</glyph>
<glyph name="q" format="2">
  <advance width="514"/>
  <unicode hex="0071"/>
  <anchor x="279" y="467" name="aboveLC"/>
  <anchor x="394" y="-230" name="belowLC"/>
  <outline>
    <contour>
      <point x="275" y="-218" type="line"/>
      <point x="513" y="-218" type="line"/>
      <point x="513" y="-184" type="line"/>
      <point x="413" y="-166" type="line"/>
      <point x="383" y="-166" type="line"/>
      <point x="275" y="-184" type="line"/>
    </contour>
    <contour>
      <point x="39" y="78"/>
      <point x="115" y="-11"/>
      <point x="227" y="-11" type="curve" smooth="yes"/>
      <point x="287" y="-11"/>
      <point x="333" y="14"/>
      <point x="371" y="77" type="curve"/>
      <point x="381" y="77" type="line"/>
      <point x="373" y="117" type="line"/>
      <point x="333" y="66"/>
      <point x="299" y="43"/>
      <point x="254" y="43" type="curve" smooth="yes"/>
      <point x="183" y="43"/>
      <point x="130" y="96"/>
      <point x="130" y="216" type="curve" smooth="yes"/>
      <point x="130" y="339"/>
      <point x="186" y="394"/>
      <point x="254" y="394" type="curve" smooth="yes"/>
      <point x="288" y="394"/>
      <point x="325" y="379"/>
      <point x="376" y="329" type="curve"/>
      <point x="385" y="371" type="line"/>
      <point x="373" y="371" type="line"/>
      <point x="328" y="430"/>
      <point x="283" y="449"/>
      <point x="234" y="449" type="curve" smooth="yes"/>
      <point x="125" y="449"/>
      <point x="39" y="356"/>
      <point x="39" y="214" type="curve" smooth="yes"/>
    </contour>
    <contour>
      <point x="358" y="-88"/>
      <point x="357" y="-154"/>
      <point x="356" y="-218" type="curve"/>
      <point x="443" y="-218" type="line"/>
      <point x="441" y="-154"/>
      <point x="440" y="-88"/>
      <point x="440" y="-23" type="curve" smooth="yes"/>
      <point x="440" y="316" type="line"/>
      <point x="443" y="440" type="line"/>
      <point x="427" y="449" type="line"/>
      <point x="356" y="384" type="line"/>
      <point x="356" y="78" type="line"/>
      <point x="358" y="65" type="line"/>
      <point x="358" y="-23" type="line" smooth="yes"/>
    </contour>
  </outline>
</glyph>
<glyph name="t" format="2">
  <advance width="302"/>
  <unicode hex="0074"/>
  <anchor x="150" y="587" name="aboveLC"/>
  <anchor x="180" y="0" name="baseLC"/>
  <anchor x="180" y="-20" name="belowLC"/>
  <outline>
    <contour>
      <point x="81" y="21"/>
      <point x="123" y="-11"/>
      <point x="189" y="-11" type="curve" smooth="yes"/>
      <point x="239" y="-11"/>
      <point x="277" y="6"/>
      <point x="300" y="38" type="curve"/>
      <point x="279" y="63" type="line"/>
      <point x="256" y="46"/>
      <point x="238" y="38"/>
      <point x="218" y="38" type="curve" smooth="yes"/>
      <point x="188" y="38"/>
      <point x="168" y="58"/>
      <point x="168" y="105" type="curve" smooth="yes"/>
      <point x="168" y="401" type="line"/>
      <point x="169" y="419" type="line"/>
      <point x="174" y="563" type="line"/>
      <point x="115" y="563" type="line"/>
      <point x="82" y="412" type="line"/>
      <point x="121" y="443" type="line"/>
      <point x="8" y="428" type="line"/>
      <point x="8" y="387" type="line"/>
      <point x="82" y="387" type="line"/>
      <point x="82" y="174" type="line" smooth="yes"/>
      <point x="82" y="138"/>
      <point x="81" y="118"/>
      <point x="81" y="95" type="curve" smooth="yes"/>
    </contour>
    <contour>
      <point x="126" y="387" type="line"/>
      <point x="290" y="387" type="line"/>
      <point x="290" y="437" type="line"/>
      <point x="126" y="437" type="line"/>
    </contour>
  </outline>
</glyph>
<glyph name="v" format="2">
  <advance width="467"/>
  <unicode hex="0076"/>
  <anchor x="245" y="467" name="aboveLC"/>
  <anchor x="234" y="-20" name="belowLC"/>
  <outline>
    <contour>
      <point x="216" y="-4" type="line"/>
      <point x="258" y="-4" type="line"/>
      <point x="426" y="437" type="line"/>
      <point x="374" y="437" type="line"/>
      <point x="247" y="75" type="line"/>
      <point x="266" y="75" type="line"/>
      <point x="128" y="437" type="line"/>
      <point x="30" y="437" type="line"/>
    </contour>
    <contour>
      <point x="0" y="401" type="line"/>
      <point x="88" y="385" type="line"/>
      <point x="118" y="385" type="line"/>
      <point x="226" y="401" type="line"/>
      <point x="226" y="437" type="line"/>
      <point x="0" y="437" type="line"/>
    </contour>
    <contour>
      <point x="283" y="401" type="line"/>
      <point x="373" y="386" type="line"/>
      <point x="391" y="386" type="line"/>
      <point x="458" y="401" type="line"/>
      <point x="458" y="437" type="line"/>
      <point x="283" y="437" type="line"/>
    </contour>
  </outline>
</glyph>
<glyph name="x" format="2">
  <advance width="485"/>
  <unicode hex="0078"/>
  <anchor x="248" y="467" name="aboveLC"/>
  <anchor x="233" y="-20" name="belowLC"/>
  <outline>
    <contour>
      <point x="9" y="0" type="line"/>
      <point x="192" y="0" type="line"/>
      <point x="192" y="34" type="line"/>
      <point x="109" y="48" type="line"/>
      <point x="88" y="48" type="line"/>
      <point x="9" y="34" type="line"/>
    </contour>
    <contour>
      <point x="32" y="0" type="line"/>
      <point x="91" y="0" type="line"/>
      <point x="258" y="221" type="line"/>
      <point x="226" y="242" type="line"/>
    </contour>
    <contour>
      <point x="248" y="0" type="line"/>
      <point x="476" y="0" type="line"/>
      <point x="476" y="34" type="line"/>
      <point x="375" y="52" type="line"/>
      <point x="353" y="52" type="line"/>
      <point x="248" y="34" type="line"/>
    </contour>
    <contour>
      <point x="257" y="201" type="line"/>
      <point x="448" y="437" type="line"/>
      <point x="389" y="437" type="line"/>
      <point x="227" y="225" type="line"/>
    </contour>
    <contour>
      <point x="343" y="0" type="line"/>
      <point x="441" y="0" type="line"/>
      <point x="266" y="253" type="line"/>
      <point x="140" y="437" type="line"/>
      <point x="46" y="437" type="line"/>
      <point x="210" y="194" type="line"/>
    </contour>
    <contour>
      <point x="14" y="401" type="line"/>
      <point x="111" y="386" type="line"/>
      <point x="138" y="386" type="line"/>
      <point x="226" y="401" type="line"/>
      <point x="226" y="437" type="line"/>
      <point x="14" y="437" type="line"/>
    </contour>
    <contour>
      <point x="294" y="401" type="line"/>
      <point x="368" y="387" type="line"/>
      <point x="389" y="387" type="line"/>
      <point x="464" y="401" type="line"/>
      <point x="464" y="437" type="line"/>
      <point x="294" y="437" type="line"/>
    </contour>
  </outline>
</glyph>
<glyph name="z" format="2">
  <advance width="419"/>
  <unicode hex="007A"/>
  <anchor x="220" y="467" name="aboveLC"/>
  <anchor x="222" y="-20" name="belowLC"/>
  <outline>
    <contour>
      <point x="25" y="0" type="line"/>
      <point x="389" y="0" type="line"/>
      <point x="398" y="150" type="line"/>
      <point x="347" y="150" type="line"/>
      <point x="313" y="12" type="line"/>
      <point x="347" y="39" type="line"/>
      <point x="99" y="39" type="line"/>
      <point x="111" y="16" type="line"/>
      <point x="385" y="404" type="line"/>
      <point x="385" y="437" type="line"/>
      <point x="38" y="437" type="line"/>
      <point x="31" y="299" type="line"/>
      <point x="81" y="296" type="line"/>
      <point x="113" y="425" type="line"/>
      <point x="79" y="398" type="line"/>
      <point x="312" y="398" type="line"/>
      <point x="301" y="420" type="line"/>
      <point x="25" y="33" type="line"/>
    </contour>
  </outline>
</glyph>
<glyph name="braceleft" format="2">
  <advance width="315"/>
  <unicode hex="007B"/>
  <outline>
    <contour>
      <point x="36" y="236" type="line"/>
      <point x="114" y="226"/>
      <point x="145" y="197"/>
      <point x="145" y="152" type="curve" smooth="yes"/>
      <point x="145" y="102"/>
      <point x="104" y="41"/>
      <point x="104" y="-34" type="curve" smooth="yes"/>
      <point x="104" y="-107"/>
      <point x="159" y="-146"/>
      <point x="248" y="-146" type="curve" smooth="yes"/>
      <point x="287" y="-146" type="line"/>
      <point x="287" y="-108" type="line"/>
      <point x="263" y="-105" type="line" smooth="yes"/>
      <point x="202" y="-98"/>
      <point x="176" y="-82"/>
      <point x="176" y="-30" type="curve" smooth="yes"/>
      <point x="176" y="37"/>
      <point x="197" y="103"/>
      <point x="197" y="141" type="curve" smooth="yes"/>
      <point x="197" y="212"/>
      <point x="159" y="258"/>
      <point x="69" y="261" type="curve"/>
      <point x="69" y="250" type="line"/>
      <point x="159" y="253"/>
      <point x="197" y="299"/>
      <point x="197" y="369" type="curve" smooth="yes"/>
      <point x="197" y="408"/>
      <point x="176" y="473"/>
      <point x="176" y="541" type="curve" smooth="yes"/>
      <point x="176" y="594"/>
      <point x="202" y="609"/>
      <point x="263" y="617" type="curve" smooth="yes"/>
      <point x="287" y="620" type="line"/>
      <point x="287" y="657" type="line"/>
      <point x="248" y="657" type="line" smooth="yes"/>
      <point x="159" y="657"/>
      <point x="104" y="619"/>
      <point x="104" y="545" type="curve" smooth="yes"/>
      <point x="104" y="470"/>
      <point x="145" y="409"/>
      <point x="145" y="358" type="curve" smooth="yes"/>
      <point x="145" y="313"/>
      <point x="114" y="285"/>
      <point x="36" y="275" type="curve"/>
    </contour>
  </outline>
</glyph>
<glyph name="braceright" format="2">
  <advance width="315"/>
  <unicode hex="007D"/>
  <outline>
    <contour>
      <point x="278" y="275" type="line"/>
      <point x="201" y="285"/>
      <point x="170" y="313"/>
      <point x="170" y="358" type="curve" smooth="yes"/>
      <point x="170" y="409"/>
      <point x="209" y="470"/>
      <point x="209" y="545" type="curve" smooth="yes"/>
      <point x="209" y="619"/>
      <point x="156" y="657"/>
      <point x="67" y="657" type="curve" smooth="yes"/>
      <point x="27" y="657" type="line"/>
      <point x="27" y="620" type="line"/>
      <point x="52" y="617" type="line" smooth="yes"/>
      <point x="113" y="609"/>
      <point x="138" y="594"/>
      <point x="138" y="541" type="curve" smooth="yes"/>
      <point x="138" y="473"/>
      <point x="117" y="408"/>
      <point x="117" y="369" type="curve" smooth="yes"/>
      <point x="117" y="299"/>
      <point x="156" y="253"/>
      <point x="246" y="250" type="curve"/>
      <point x="246" y="261" type="line"/>
      <point x="156" y="258"/>
      <point x="117" y="212"/>
      <point x="117" y="141" type="curve" smooth="yes"/>
      <point x="117" y="103"/>
      <point x="138" y="37"/>
      <point x="138" y="-30" type="curve" smooth="yes"/>
      <point x="138" y="-82"/>
      <point x="113" y="-98"/>
      <point x="52" y="-105" type="curve" smooth="yes"/>
      <point x="27" y="-108" type="line"/>
      <point x="27" y="-146" type="line"/>
      <point x="67" y="-146" type="line" smooth="yes"/>
      <point x="156" y="-146"/>
      <point x="209" y="-107"/>
      <point x="209" y="-34" type="curve" smooth="yes"/>
      <point x="209" y="41"/>
      <point x="170" y="102"/>
      <point x="170" y="152" type="curve" smooth="yes"/>
      <point x="170" y="197"/>
      <point x="201" y="226"/>
      <point x="278" y="236" type="curve"/>
    </contour>
  </outline>
</glyph>
<glyph name="asciitilde" format="2">
  <advance width="489"/>
  <unicode hex="007E"/>
  <outline>
    <contour>
      <point x="263" y="339" type="curve" smooth="yes"/>
      <point x="227" y="375"/>
      <point x="194" y="390"/>
      <point x="156" y="390" type="curve" smooth="yes"/>
      <point x="87" y="390"/>
      <point x="49" y="345"/>
      <point x="44" y="256" type="curve"/>
      <point x="93" y="249" type="line"/>
      <point x="101" y="314"/>
      <point x="125" y="333"/>
      <point x="150" y="333" type="curve" smooth="yes"/>
      <point x="174" y="333"/>
      <point x="196" y="325"/>
      <point x="227" y="295" type="curve" smooth="yes"/>
      <point x="263" y="259"/>
      <point x="295" y="244"/>
      <point x="333" y="244" type="curve" smooth="yes"/>
      <point x="402" y="244"/>
      <point x="440" y="288"/>
      <point x="446" y="378" type="curve"/>
      <point x="396" y="385" type="line"/>
      <point x="389" y="320"/>
      <point x="365" y="300"/>
      <point x="339" y="300" type="curve" smooth="yes"/>
      <point x="315" y="300"/>
      <point x="292" y="310"/>
    </contour>
  </outline>
</glyph>
<glyph name="exclamdown" format="2">
  <advance width="272"/>
  <unicode hex="00A1"/>
  <outline>
    <contour>
      <point x="136" y="448" type="curve" smooth="yes"/>
      <point x="101" y="448"/>
      <point x="73" y="420"/>
      <point x="73" y="387" type="curve" smooth="yes"/>
      <point x="73" y="353"/>
      <point x="101" y="323"/>
      <point x="136" y="323" type="curve" smooth="yes"/>
      <point x="171" y="323"/>
      <point x="198" y="353"/>
      <point x="198" y="387" type="curve" smooth="yes"/>
      <point x="198" y="420"/>
      <point x="171" y="448"/>
    </contour>
    <contour>
      <point x="136" y="-190" type="curve" smooth="yes"/>
      <point x="171" y="-190"/>
      <point x="192" y="-172"/>
      <point x="192" y="-129" type="curve" smooth="yes"/>
      <point x="192" y="-95"/>
      <point x="183" y="-12"/>
      <point x="167" y="114" type="curve" smooth="yes"/>
      <point x="153" y="235" type="line"/>
      <point x="117" y="235" type="line"/>
      <point x="104" y="114" type="line" smooth="yes"/>
      <point x="89" y="-11"/>
      <point x="79" y="-95"/>
      <point x="79" y="-129" type="curve" smooth="yes"/>
      <point x="79" y="-172"/>
      <point x="101" y="-190"/>
    </contour>
  </outline>
</glyph>
<glyph name="cent" format="2">
  <advance width="463"/>
  <unicode hex="00A2"/>
  <outline>
    <contour>
      <point x="271" y="-41" type="line"/>
      <point x="271" y="606" type="line"/>
      <point x="230" y="606" type="line"/>
      <point x="230" y="-41" type="line"/>
    </contour>
    <contour>
      <point x="258" y="480" type="curve" smooth="yes"/>
      <point x="287" y="480"/>
      <point x="318" y="473"/>
      <point x="349" y="457" type="curve"/>
      <point x="305" y="492" type="line"/>
      <point x="318" y="436" type="line" smooth="yes"/>
      <point x="330" y="385"/>
      <point x="347" y="365"/>
      <point x="379" y="365" type="curve" smooth="yes"/>
      <point x="403" y="365"/>
      <point x="417" y="377"/>
      <point x="422" y="401" type="curve"/>
      <point x="411" y="471"/>
      <point x="343" y="522"/>
      <point x="258" y="522" type="curve" smooth="yes"/>
      <point x="140" y="522"/>
      <point x="38" y="432"/>
      <point x="38" y="287" type="curve" smooth="yes"/>
      <point x="38" y="146"/>
      <point x="122" y="56"/>
      <point x="248" y="56" type="curve" smooth="yes"/>
      <point x="338" y="56"/>
      <point x="398" y="98"/>
      <point x="424" y="173" type="curve"/>
      <point x="401" y="187" type="line"/>
      <point x="371" y="142"/>
      <point x="319" y="116"/>
      <point x="263" y="116" type="curve" smooth="yes"/>
      <point x="183" y="116"/>
      <point x="125" y="182"/>
      <point x="125" y="297" type="curve" smooth="yes"/>
      <point x="125" y="414"/>
      <point x="181" y="480"/>
    </contour>
  </outline>
</glyph>
<glyph name="sterling" format="2">
  <advance width="463"/>
  <unicode hex="00A3"/>
  <outline>
    <contour>
      <point x="39" y="260" type="line"/>
      <point x="356" y="260" type="line"/>
      <point x="356" y="307" type="line"/>
      <point x="39" y="307" type="line"/>
    </contour>
    <contour>
      <point x="33" y="0" type="line"/>
      <point x="431" y="0" type="line"/>
      <point x="431" y="80" type="line"/>
      <point x="89" y="80" type="line"/>
      <point x="88" y="57" type="line"/>
      <point x="154" y="91"/>
      <point x="191" y="147"/>
      <point x="192" y="236" type="curve" smooth="yes"/>
      <point x="194" y="315"/>
      <point x="172" y="360"/>
      <point x="172" y="440" type="curve" smooth="yes"/>
      <point x="172" y="526"/>
      <point x="215" y="563"/>
      <point x="273" y="563" type="curve" smooth="yes"/>
      <point x="293" y="563"/>
      <point x="322" y="558"/>
      <point x="358" y="542" type="curve"/>
      <point x="304" y="573" type="line"/>
      <point x="320" y="502" type="line" smooth="yes"/>
      <point x="330" y="454"/>
      <point x="349" y="439"/>
      <point x="376" y="439" type="curve" smooth="yes"/>
      <point x="396" y="439"/>
      <point x="412" y="448"/>
      <point x="419" y="470" type="curve"/>
      <point x="414" y="550"/>
      <point x="344" y="605"/>
      <point x="256" y="605" type="curve" smooth="yes"/>
      <point x="155" y="605"/>
      <point x="81" y="534"/>
      <point x="81" y="436" type="curve" smooth="yes"/>
      <point x="81" y="345"/>
      <point x="135" y="313"/>
      <point x="135" y="229" type="curve" smooth="yes"/>
      <point x="135" y="160"/>
      <point x="97" y="88"/>
      <point x="33" y="52" type="curve"/>
    </contour>
  </outline>
</glyph>
<glyph name="dieresis" format="2">
  <advance width="368"/>
  <unicode hex="00A8"/>
  <anchor x="184" y="467" name="_aboveLC"/>
  <anchor x="184" y="631" name="aboveLC"/>
  <outline>
    <contour>
      <point x="85" y="546" type="curve" smooth="yes"/>
      <point x="116" y="546"/>
      <point x="142" y="568"/>
      <point x="142" y="599" type="curve" smooth="yes"/>
      <point x="142" y="631"/>
      <point x="116" y="654"/>
      <point x="85" y="654" type="curve" smooth="yes"/>
      <point x="55" y="654"/>
      <point x="30" y="631"/>
      <point x="30" y="599" type="curve" smooth="yes"/>
      <point x="30" y="568"/>
      <point x="55" y="546"/>
    </contour>
    <contour>
      <point x="282" y="546" type="curve" smooth="yes"/>
      <point x="312" y="546"/>
      <point x="337" y="568"/>
      <point x="337" y="599" type="curve" smooth="yes"/>
      <point x="337" y="631"/>
      <point x="312" y="654"/>
      <point x="282" y="654" type="curve" smooth="yes"/>
      <point x="251" y="654"/>
      <point x="225" y="631"/>
      <point x="225" y="599" type="curve" smooth="yes"/>
      <point x="225" y="568"/>
      <point x="251" y="546"/>
    </contour>
  </outline>
</glyph>
<glyph name="copyright" format="2">
  <advance width="693"/>
  <unicode hex="00A9"/>
  <outline>
    <contour>
      <point x="75" y="309" type="curve" smooth="yes"/>
      <point x="75" y="484"/>
      <point x="194" y="590"/>
      <point x="346" y="590" type="curve" smooth="yes"/>
      <point x="500" y="590"/>
      <point x="619" y="483"/>
      <point x="619" y="309" type="curve" smooth="yes"/>
      <point x="619" y="134"/>
      <point x="500" y="23"/>
      <point x="346" y="23" type="curve" smooth="yes"/>
      <point x="194" y="23"/>
      <point x="75" y="133"/>
    </contour>
    <contour>
      <point x="27" y="309" type="curve" smooth="yes"/>
      <point x="27" y="109"/>
      <point x="170" y="-14"/>
      <point x="346" y="-14" type="curve" smooth="yes"/>
      <point x="524" y="-14"/>
      <point x="666" y="109"/>
      <point x="666" y="309" type="curve" smooth="yes"/>
      <point x="666" y="508"/>
      <point x="524" y="629"/>
      <point x="346" y="629" type="curve" smooth="yes"/>
      <point x="170" y="629"/>
      <point x="27" y="508"/>
    </contour>
    <contour>
      <point x="370" y="160" type="curve" smooth="yes"/>
      <point x="299" y="160"/>
      <point x="252" y="212"/>
      <point x="252" y="310" type="curve" smooth="yes"/>
      <point x="252" y="408"/>
      <point x="305" y="460"/>
      <point x="370" y="460" type="curve" smooth="yes"/>
      <point x="395" y="460"/>
      <point x="425" y="451"/>
      <point x="454" y="427" type="curve"/>
      <point x="414" y="471" type="line"/>
      <point x="428" y="383" type="line"/>
      <point x="469" y="383" type="line"/>
      <point x="467" y="471" type="line"/>
      <point x="431" y="491"/>
      <point x="402" y="496"/>
      <point x="361" y="496" type="curve" smooth="yes"/>
      <point x="259" y="496"/>
      <point x="181" y="419"/>
      <point x="181" y="310" type="curve" smooth="yes"/>
      <point x="181" y="197"/>
      <point x="255" y="122"/>
      <point x="362" y="122" type="curve" smooth="yes"/>
      <point x="402" y="122"/>
      <point x="438" y="130"/>
      <point x="471" y="148" type="curve"/>
      <point x="473" y="235" type="line"/>
      <point x="433" y="235" type="line"/>
      <point x="418" y="147" type="line"/>
      <point x="459" y="191" type="line"/>
      <point x="431" y="167"/>
      <point x="391" y="160"/>
    </contour>
  </outline>
</glyph>
<glyph name="macron" format="2">
  <advance width="368"/>
  <unicode hex="00AF"/>
  <anchor x="184" y="467" name="_aboveLC"/>
  <anchor x="184" y="617" name="aboveLC"/>
  <outline>
    <contour>
      <point x="60" y="547" type="line"/>
      <point x="307" y="547" type="line"/>
      <point x="307" y="608" type="line"/>
      <point x="60" y="608" type="line"/>
    </contour>
  </outline>
</glyph>
<glyph name="degree" format="2">
  <advance width="301"/>
  <unicode hex="00B0"/>
  <outline>
    <contour>
      <point x="150" y="425" type="curve" smooth="yes"/>
      <point x="106" y="425"/>
      <point x="73" y="460"/>
      <point x="73" y="509" type="curve" smooth="yes"/>
      <point x="73" y="557"/>
      <point x="106" y="594"/>
      <point x="150" y="594" type="curve" smooth="yes"/>
      <point x="195" y="594"/>
      <point x="228" y="557"/>
      <point x="228" y="509" type="curve" smooth="yes"/>
      <point x="228" y="460"/>
      <point x="195" y="425"/>
    </contour>
    <contour>
      <point x="150" y="391" type="curve" smooth="yes"/>
      <point x="214" y="391"/>
      <point x="268" y="437"/>
      <point x="268" y="509" type="curve" smooth="yes"/>
      <point x="268" y="581"/>
      <point x="214" y="629"/>
      <point x="150" y="629" type="curve" smooth="yes"/>
      <point x="87" y="629"/>
      <point x="33" y="581"/>
      <point x="33" y="509" type="curve" smooth="yes"/>
      <point x="33" y="437"/>
      <point x="87" y="391"/>
    </contour>
  </outline>
</glyph>
<glyph name="two.sups" format="2">
  <advance width="340"/>
  <unicode hex="00B2"/>
  <outline>
    <contour>
      <point x="48" y="390" type="line"/>
      <point x="298" y="390" type="line"/>
      <point x="298" y="455" type="line"/>
      <point x="89" y="455" type="line"/>
      <point x="79" y="421" type="line"/>
      <point x="163" y="496" type="line" smooth="yes"/>
      <point x="248" y="572"/>
      <point x="285" y="613"/>
      <point x="285" y="666" type="curve" smooth="yes"/>
      <point x="285" y="715"/>
      <point x="253" y="762"/>
      <point x="172" y="762" type="curve" smooth="yes"/>
      <point x="105" y="762"/>
      <point x="47" y="732"/>
      <point x="44" y="668" type="curve"/>
      <point x="51" y="655"/>
      <point x="62" y="646"/>
      <point x="78" y="646" type="curve" smooth="yes"/>
      <point x="94" y="646"/>
      <point x="106" y="656"/>
      <point x="115" y="692" type="curve" smooth="yes"/>
      <point x="126" y="745" type="line"/>
      <point x="89" y="719" type="line"/>
      <point x="111" y="728"/>
      <point x="129" y="731"/>
      <point x="146" y="731" type="curve" smooth="yes"/>
      <point x="188" y="731"/>
      <point x="214" y="706"/>
      <point x="214" y="659" type="curve" smooth="yes"/>
      <point x="214" y="611"/>
      <point x="187" y="570"/>
      <point x="133" y="517" type="curve" smooth="yes"/>
      <point x="48" y="436" type="line"/>
    </contour>
  </outline>
</glyph>
<glyph name="three.sups" format="2">
  <advance width="340"/>
  <unicode hex="00B3"/>
  <outline>
    <contour>
      <point x="117" y="598" type="line"/>
      <point x="117" y="562" type="line"/>
      <point x="145" y="562" type="line" smooth="yes"/>
      <point x="203" y="562"/>
      <point x="229" y="535"/>
      <point x="229" y="489" type="curve" smooth="yes"/>
      <point x="229" y="440"/>
      <point x="198" y="411"/>
      <point x="145" y="411" type="curve" smooth="yes"/>
      <point x="128" y="411"/>
      <point x="114" y="414"/>
      <point x="95" y="420" type="curve"/>
      <point x="120" y="395" type="line"/>
      <point x="110" y="448" type="line" smooth="yes"/>
      <point x="103" y="483"/>
      <point x="90" y="493"/>
      <point x="72" y="493" type="curve" smooth="yes"/>
      <point x="59" y="493"/>
      <point x="46" y="487"/>
      <point x="40" y="469" type="curve"/>
      <point x="48" y="413"/>
      <point x="91" y="380"/>
      <point x="164" y="380" type="curve" smooth="yes"/>
      <point x="234" y="380"/>
      <point x="299" y="412"/>
      <point x="299" y="486" type="curve" smooth="yes"/>
      <point x="299" y="548"/>
      <point x="257" y="584"/>
      <point x="177" y="585" type="curve"/>
      <point x="183" y="577" type="line"/>
      <point x="241" y="578"/>
      <point x="284" y="620"/>
      <point x="284" y="671" type="curve" smooth="yes"/>
      <point x="284" y="725"/>
      <point x="238" y="762"/>
      <point x="168" y="762" type="curve" smooth="yes"/>
      <point x="109" y="762"/>
      <point x="60" y="735"/>
      <point x="53" y="676" type="curve"/>
      <point x="59" y="664"/>
      <point x="71" y="657"/>
      <point x="85" y="657" type="curve" smooth="yes"/>
      <point x="102" y="657"/>
      <point x="117" y="668"/>
      <point x="122" y="695" type="curve" smooth="yes"/>
      <point x="131" y="745" type="line"/>
      <point x="103" y="724" type="line"/>
      <point x="123" y="729"/>
      <point x="138" y="731"/>
      <point x="149" y="731" type="curve" smooth="yes"/>
      <point x="190" y="731"/>
      <point x="215" y="708"/>
      <point x="215" y="665" type="curve" smooth="yes"/>
      <point x="215" y="621"/>
      <point x="190" y="598"/>
      <point x="140" y="598" type="curve" smooth="yes"/>
    </contour>
  </outline>
</glyph>
<glyph name="mu" format="2">
  <advance width="525"/>
  <unicode hex="00B5"/>
  <outline>
    <contour>
      <point x="70" y="-164" type="line"/>
      <point x="81" y="-175" type="line"/>
      <point x="163" y="-157" type="line"/>
      <point x="138" y="76" type="line"/>
      <point x="152" y="95" type="line"/>
      <point x="152" y="176"/>
      <point x="160" y="257"/>
      <point x="170" y="440" type="curve"/>
      <point x="160" y="449" type="line"/>
      <point x="75" y="431" type="line"/>
      <point x="91" y="93" type="line"/>
    </contour>
    <contour>
      <point x="240" y="-11" type="curve" smooth="yes"/>
      <point x="301" y="-11"/>
      <point x="350" y="35"/>
      <point x="379" y="149" type="curve"/>
      <point x="363" y="165" type="line"/>
      <point x="332" y="81"/>
      <point x="297" y="62"/>
      <point x="250" y="62" type="curve" smooth="yes"/>
      <point x="215" y="62"/>
      <point x="177" y="77"/>
      <point x="149" y="140" type="curve"/>
      <point x="129" y="85" type="line"/>
      <point x="149" y="20"/>
      <point x="198" y="-11"/>
    </contour>
    <contour>
      <point x="433" y="-11" type="curve" smooth="yes"/>
      <point x="471" y="-11"/>
      <point x="498" y="9"/>
      <point x="513" y="37" type="curve"/>
      <point x="505" y="62" type="line"/>
      <point x="493" y="57"/>
      <point x="479" y="54"/>
      <point x="467" y="54" type="curve" smooth="yes"/>
      <point x="437" y="54"/>
      <point x="428" y="69"/>
      <point x="426" y="125" type="curve" smooth="yes"/>
      <point x="425" y="188"/>
      <point x="433" y="255"/>
      <point x="447" y="440" type="curve"/>
      <point x="437" y="449" type="line"/>
      <point x="353" y="431" type="line"/>
      <point x="360" y="113" type="line"/>
      <point x="362" y="34"/>
      <point x="379" y="-11"/>
    </contour>
  </outline>
</glyph>
<glyph name="one.sups" format="2">
  <advance width="340"/>
  <unicode hex="00B9"/>
  <outline>
    <contour>
      <point x="71" y="729" type="line"/>
      <point x="71" y="695" type="line"/>
      <point x="142" y="701" type="line"/>
      <point x="142" y="390" type="line"/>
      <point x="211" y="390" type="line"/>
      <point x="211" y="754" type="line"/>
      <point x="203" y="759" type="line"/>
    </contour>
    <contour>
      <point x="206" y="432" type="line"/>
      <point x="146" y="432" type="line"/>
      <point x="60" y="416" type="line"/>
      <point x="60" y="390" type="line"/>
      <point x="290" y="390" type="line"/>
      <point x="290" y="416" type="line"/>
    </contour>
  </outline>
</glyph>
<glyph name="ordmasculine" format="2">
  <advance width="346"/>
  <unicode hex="00BA"/>
  <outline>
    <contour>
      <point x="173" y="655" type="curve" smooth="yes"/>
      <point x="225" y="655"/>
      <point x="253" y="616"/>
      <point x="253" y="534" type="curve" smooth="yes"/>
      <point x="253" y="450"/>
      <point x="225" y="413"/>
      <point x="173" y="413" type="curve" smooth="yes"/>
      <point x="121" y="413"/>
      <point x="92" y="450"/>
      <point x="92" y="534" type="curve" smooth="yes"/>
      <point x="92" y="616"/>
      <point x="121" y="655"/>
    </contour>
    <contour>
      <point x="173" y="688" type="curve" smooth="yes"/>
      <point x="96" y="688"/>
      <point x="24" y="630"/>
      <point x="24" y="534" type="curve" smooth="yes"/>
      <point x="24" y="437"/>
      <point x="94" y="380"/>
      <point x="173" y="380" type="curve" smooth="yes"/>
      <point x="252" y="380"/>
      <point x="322" y="437"/>
      <point x="322" y="534" type="curve" smooth="yes"/>
      <point x="322" y="631"/>
      <point x="249" y="688"/>
    </contour>
  </outline>
</glyph>
<glyph name="onequarter" format="2">
  <advance width="793"/>
  <unicode hex="00BC"/>
  <outline>
    <contour>
      <point x="221" y="-23" type="line"/>
      <point x="647" y="590" type="line"/>
      <point x="617" y="614" type="line"/>
      <point x="191" y="0" type="line"/>
    </contour>
    <contour>
      <point x="71" y="572" type="line"/>
      <point x="71" y="538" type="line"/>
      <point x="142" y="544" type="line"/>
      <point x="142" y="232" type="line"/>
      <point x="211" y="232" type="line"/>
      <point x="211" y="597" type="line"/>
      <point x="203" y="602" type="line"/>
    </contour>
    <contour>
      <point x="207" y="275" type="line"/>
      <point x="146" y="275" type="line"/>
      <point x="60" y="259" type="line"/>
      <point x="60" y="232" type="line"/>
      <point x="290" y="232" type="line"/>
      <point x="290" y="259" type="line"/>
    </contour>
    <contour>
      <point x="440" y="91" type="line"/>
      <point x="717" y="91" type="line"/>
      <point x="717" y="146" type="line"/>
      <point x="468" y="146" type="line"/>
      <point x="477" y="132" type="line"/>
      <point x="610" y="322" type="line"/>
      <point x="597" y="322" type="line"/>
      <point x="597" y="0" type="line"/>
      <point x="659" y="0" type="line"/>
      <point x="659" y="368" type="line"/>
      <point x="613" y="368" type="line"/>
      <point x="440" y="135" type="line"/>
    </contour>
  </outline>
</glyph>
<glyph name="threequarters" format="2">
  <advance width="793"/>
  <unicode hex="00BE"/>
  <outline>
    <contour>
      <point x="229" y="-24" type="line"/>
      <point x="655" y="589" type="line"/>
      <point x="624" y="613" type="line"/>
      <point x="198" y="0" type="line"/>
    </contour>
    <contour>
      <point x="148" y="441" type="line"/>
      <point x="148" y="404" type="line"/>
      <point x="175" y="404" type="line" smooth="yes"/>
      <point x="233" y="404"/>
      <point x="259" y="378"/>
      <point x="259" y="333" type="curve" smooth="yes"/>
      <point x="259" y="283"/>
      <point x="230" y="254"/>
      <point x="175" y="254" type="curve" smooth="yes"/>
      <point x="159" y="254"/>
      <point x="144" y="257"/>
      <point x="126" y="263" type="curve"/>
      <point x="150" y="238" type="line"/>
      <point x="140" y="291" type="line" smooth="yes"/>
      <point x="134" y="326"/>
      <point x="120" y="335"/>
      <point x="103" y="335" type="curve" smooth="yes"/>
      <point x="90" y="335"/>
      <point x="77" y="330"/>
      <point x="70" y="311" type="curve"/>
      <point x="79" y="255"/>
      <point x="121" y="223"/>
      <point x="195" y="223" type="curve" smooth="yes"/>
      <point x="265" y="223"/>
      <point x="330" y="254"/>
      <point x="330" y="329" type="curve" smooth="yes"/>
      <point x="330" y="391"/>
      <point x="287" y="426"/>
      <point x="207" y="427" type="curve"/>
      <point x="214" y="420" type="line"/>
      <point x="273" y="421"/>
      <point x="314" y="462"/>
      <point x="314" y="514" type="curve" smooth="yes"/>
      <point x="314" y="568"/>
      <point x="268" y="605"/>
      <point x="198" y="605" type="curve" smooth="yes"/>
      <point x="139" y="605"/>
      <point x="91" y="577"/>
      <point x="83" y="518" type="curve"/>
      <point x="90" y="506"/>
      <point x="102" y="500"/>
      <point x="115" y="500" type="curve" smooth="yes"/>
      <point x="132" y="500"/>
      <point x="148" y="511"/>
      <point x="152" y="538" type="curve" smooth="yes"/>
      <point x="161" y="587" type="line"/>
      <point x="133" y="566" type="line"/>
      <point x="153" y="572"/>
      <point x="168" y="574"/>
      <point x="180" y="574" type="curve" smooth="yes"/>
      <point x="220" y="574"/>
      <point x="245" y="551"/>
      <point x="245" y="507" type="curve" smooth="yes"/>
      <point x="245" y="463"/>
      <point x="220" y="441"/>
      <point x="171" y="441" type="curve" smooth="yes"/>
    </contour>
    <contour>
      <point x="448" y="91" type="line"/>
      <point x="725" y="91" type="line"/>
      <point x="725" y="146" type="line"/>
      <point x="477" y="146" type="line"/>
      <point x="485" y="132" type="line"/>
      <point x="620" y="322" type="line"/>
      <point x="606" y="322" type="line"/>
      <point x="606" y="0" type="line"/>
      <point x="667" y="0" type="line"/>
      <point x="667" y="368" type="line"/>
      <point x="621" y="368" type="line"/>
      <point x="448" y="135" type="line"/>
    </contour>
  </outline>
</glyph>
<glyph name="Aacute" format="2">
  <advance width="611"/>
  <unicode hex="00C1"/>
  <anchor x="308" y="806" name="aboveUC"/>
  <anchor x="286" y="-20" name="belowLC"/>
  <anchor x="504" y="0" name="ogonek"/>
  <outline>
    <contour>
      <point x="5" y="0" type="line"/>
      <point x="214" y="0" type="line"/>
      <point x="214" y="38" type="line"/>
      <point x="115" y="52" type="line"/>
      <point x="97" y="52" type="line"/>
      <point x="5" y="38" type="line"/>
    </contour>
    <contour>
      <point x="64" y="0" type="line"/>
      <point x="109" y="0" type="line"/>
      <point x="282" y="510" type="line"/>
      <point x="452" y="0" type="line"/>
      <point x="549" y="0" type="line"/>
      <point x="338" y="618" type="line"/>
      <point x="276" y="618" type="line"/>
    </contour>
    <contour>
      <point x="156" y="197" type="line"/>
      <point x="435" y="197" type="line"/>
      <point x="419" y="241" type="line"/>
      <point x="171" y="241" type="line"/>
    </contour>
    <contour>
      <point x="347" y="0" type="line"/>
      <point x="601" y="0" type="line"/>
      <point x="601" y="38" type="line"/>
      <point x="487" y="52" type="line"/>
      <point x="461" y="52" type="line"/>
      <point x="347" y="38" type="line"/>
    </contour>
    <contour>
      <point x="243" y="684" type="curve"/>
      <point x="262" y="660" type="line"/>
      <point x="301" y="679"/>
      <point x="341" y="701"/>
      <point x="380" y="722" type="curve" smooth="yes"/>
      <point x="416" y="741"/>
      <point x="427" y="757"/>
      <point x="427" y="774" type="curve" smooth="yes"/>
      <point x="427" y="793"/>
      <point x="411" y="806"/>
      <point x="391" y="806" type="curve" smooth="yes"/>
      <point x="374" y="806"/>
      <point x="358" y="798"/>
      <point x="332" y="771" type="curve" smooth="yes"/>
      <point x="303" y="744"/>
      <point x="273" y="714"/>
    </contour>
  </outline>
</glyph>
<glyph name="Adieresis" format="2">
  <advance width="611"/>
  <unicode hex="00C4"/>
  <anchor x="306" y="794" name="aboveUC"/>
  <anchor x="286" y="-20" name="belowLC"/>
  <anchor x="504" y="0" name="ogonek"/>
  <outline>
    <contour>
      <point x="5" y="0" type="line"/>
      <point x="214" y="0" type="line"/>
      <point x="214" y="38" type="line"/>
      <point x="115" y="52" type="line"/>
      <point x="97" y="52" type="line"/>
      <point x="5" y="38" type="line"/>
    </contour>
    <contour>
      <point x="64" y="0" type="line"/>
      <point x="109" y="0" type="line"/>
      <point x="282" y="510" type="line"/>
      <point x="452" y="0" type="line"/>
      <point x="549" y="0" type="line"/>
      <point x="338" y="618" type="line"/>
      <point x="276" y="618" type="line"/>
    </contour>
    <contour>
      <point x="156" y="197" type="line"/>
      <point x="435" y="197" type="line"/>
      <point x="419" y="241" type="line"/>
      <point x="171" y="241" type="line"/>
    </contour>
    <contour>
      <point x="347" y="0" type="line"/>
      <point x="601" y="0" type="line"/>
      <point x="601" y="38" type="line"/>
      <point x="487" y="52" type="line"/>
      <point x="461" y="52" type="line"/>
      <point x="347" y="38" type="line"/>
    </contour>
    <contour>
      <point x="202" y="681" type="curve" smooth="yes"/>
      <point x="231" y="681"/>
      <point x="256" y="702"/>
      <point x="256" y="733" type="curve" smooth="yes"/>
      <point x="256" y="763"/>
      <point x="231" y="785"/>
      <point x="202" y="785" type="curve" smooth="yes"/>
      <point x="172" y="785"/>
      <point x="147" y="763"/>
      <point x="147" y="733" type="curve" smooth="yes"/>
      <point x="147" y="702"/>
      <point x="172" y="681"/>
    </contour>
    <contour>
      <point x="409" y="681" type="curve" smooth="yes"/>
      <point x="439" y="681"/>
      <point x="464" y="702"/>
      <point x="464" y="733" type="curve" smooth="yes"/>
      <point x="464" y="763"/>
      <point x="439" y="785"/>
      <point x="409" y="785" type="curve" smooth="yes"/>
      <point x="379" y="785"/>
      <point x="355" y="763"/>
      <point x="355" y="733" type="curve" smooth="yes"/>
      <point x="355" y="702"/>
      <point x="379" y="681"/>
    </contour>
  </outline>
</glyph>
<glyph name="Eacute" format="2">
  <advance width="554"/>
  <unicode hex="00C9"/>
  <anchor x="312" y="806" name="aboveUC"/>
  <anchor x="321" y="-20" name="belowLC"/>
  <anchor x="440" y="0" name="ogonek"/>
  <outline>
    <contour>
      <point x="39" y="0" type="line"/>
      <point x="171" y="0" type="line"/>
      <point x="171" y="52" type="line"/>
      <point x="161" y="52" type="line"/>
      <point x="39" y="38" type="line"/>
    </contour>
    <contour>
      <point x="124" y="188"/>
      <point x="124" y="92"/>
      <point x="121" y="0" type="curve"/>
      <point x="221" y="0" type="line"/>
      <point x="218" y="94"/>
      <point x="218" y="190"/>
      <point x="218" y="295" type="curve" smooth="yes"/>
      <point x="218" y="329" type="line" smooth="yes"/>
      <point x="218" y="425"/>
      <point x="218" y="521"/>
      <point x="221" y="614" type="curve"/>
      <point x="121" y="614" type="line"/>
      <point x="124" y="519"/>
      <point x="124" y="424"/>
      <point x="124" y="329" type="curve" smooth="yes"/>
      <point x="124" y="285" type="line" smooth="yes"/>
    </contour>
    <contour>
      <point x="171" y="0" type="line"/>
      <point x="517" y="0" type="line"/>
      <point x="523" y="162" type="line"/>
      <point x="468" y="162" type="line"/>
      <point x="443" y="19" type="line"/>
      <point x="475" y="46" type="line"/>
      <point x="171" y="46" type="line"/>
    </contour>
    <contour>
      <point x="171" y="292" type="line"/>
      <point x="378" y="292" type="line"/>
      <point x="378" y="336" type="line"/>
      <point x="171" y="336" type="line"/>
    </contour>
    <contour>
      <point x="363" y="207" type="line"/>
      <point x="406" y="207" type="line"/>
      <point x="406" y="422" type="line"/>
      <point x="363" y="422" type="line"/>
      <point x="349" y="325" type="line"/>
      <point x="349" y="308" type="line"/>
    </contour>
    <contour>
      <point x="39" y="575" type="line"/>
      <point x="161" y="562" type="line"/>
      <point x="171" y="562" type="line"/>
      <point x="171" y="614" type="line"/>
      <point x="39" y="614" type="line"/>
    </contour>
    <contour>
      <point x="449" y="451" type="line"/>
      <point x="505" y="451" type="line"/>
      <point x="498" y="614" type="line"/>
      <point x="171" y="614" type="line"/>
      <point x="171" y="567" type="line"/>
      <point x="457" y="567" type="line"/>
      <point x="425" y="595" type="line"/>
    </contour>
    <contour>
      <point x="248" y="684" type="curve"/>
      <point x="266" y="660" type="line"/>
      <point x="305" y="679"/>
      <point x="345" y="701"/>
      <point x="385" y="722" type="curve" smooth="yes"/>
      <point x="420" y="741"/>
      <point x="432" y="757"/>
      <point x="432" y="774" type="curve" smooth="yes"/>
      <point x="432" y="793"/>
      <point x="415" y="806"/>
      <point x="395" y="806" type="curve" smooth="yes"/>
      <point x="379" y="806"/>
      <point x="363" y="798"/>
      <point x="336" y="771" type="curve" smooth="yes"/>
      <point x="307" y="744"/>
      <point x="277" y="714"/>
    </contour>
  </outline>
</glyph>
<glyph name="Igrave" format="2">
  <advance width="343"/>
  <unicode hex="00CC"/>
  <anchor x="169" y="806" name="aboveUC"/>
  <anchor x="171" y="-20" name="belowLC"/>
  <anchor x="208" y="0" name="ogonek"/>
  <outline>
    <contour>
      <point x="39" y="0" type="line"/>
      <point x="303" y="0" type="line"/>
      <point x="303" y="38" type="line"/>
      <point x="181" y="52" type="line"/>
      <point x="161" y="52" type="line"/>
      <point x="39" y="38" type="line"/>
    </contour>
    <contour>
      <point x="124" y="188"/>
      <point x="124" y="92"/>
      <point x="121" y="0" type="curve"/>
      <point x="221" y="0" type="line"/>
      <point x="218" y="94"/>
      <point x="218" y="190"/>
      <point x="218" y="285" type="curve" smooth="yes"/>
      <point x="218" y="329" type="line" smooth="yes"/>
      <point x="218" y="425"/>
      <point x="218" y="521"/>
      <point x="221" y="614" type="curve"/>
      <point x="121" y="614" type="line"/>
      <point x="124" y="519"/>
      <point x="124" y="424"/>
      <point x="124" y="329" type="curve" smooth="yes"/>
      <point x="124" y="285" type="line" smooth="yes"/>
    </contour>
    <contour>
      <point x="39" y="575" type="line"/>
      <point x="161" y="562" type="line"/>
      <point x="181" y="562" type="line"/>
      <point x="303" y="575" type="line"/>
      <point x="303" y="614" type="line"/>
      <point x="39" y="614" type="line"/>
    </contour>
    <contour>
      <point x="233" y="684" type="line"/>
      <point x="205" y="713"/>
      <point x="175" y="743"/>
      <point x="145" y="771" type="curve" smooth="yes"/>
      <point x="118" y="798"/>
      <point x="103" y="806"/>
      <point x="86" y="806" type="curve" smooth="yes"/>
      <point x="66" y="806"/>
      <point x="49" y="793"/>
      <point x="49" y="774" type="curve" smooth="yes"/>
      <point x="49" y="757"/>
      <point x="61" y="740"/>
      <point x="97" y="722" type="curve" smooth="yes"/>
      <point x="136" y="701"/>
      <point x="175" y="680"/>
      <point x="215" y="660" type="curve"/>
    </contour>
  </outline>
</glyph>
<glyph name="Ntilde" format="2">
  <advance width="675"/>
  <unicode hex="00D1"/>
  <anchor x="345" y="794" name="aboveUC"/>
  <anchor x="346" y="-20" name="belowLC"/>
  <outline>
    <contour>
      <point x="34" y="0" type="line"/>
      <point x="259" y="0" type="line"/>
      <point x="259" y="38" type="line"/>
      <point x="151" y="52" type="line"/>
      <point x="131" y="52" type="line"/>
      <point x="34" y="38" type="line"/>
    </contour>
    <contour>
      <point x="113" y="0" type="line"/>
      <point x="161" y="0" type="line"/>
      <point x="161" y="592" type="line"/>
      <point x="113" y="592" type="line"/>
    </contour>
    <contour>
      <point x="415" y="575" type="line"/>
      <point x="528" y="562" type="line"/>
      <point x="547" y="562" type="line"/>
      <point x="640" y="575" type="line"/>
      <point x="640" y="614" type="line"/>
      <point x="415" y="614" type="line"/>
    </contour>
    <contour>
      <point x="524" y="-5" type="line"/>
      <point x="562" y="-5" type="line"/>
      <point x="562" y="614" type="line"/>
      <point x="513" y="614" type="line"/>
      <point x="513" y="166" type="line"/>
      <point x="188" y="614" type="line"/>
      <point x="39" y="614" type="line"/>
      <point x="39" y="575" type="line"/>
      <point x="103" y="567" type="line"/>
    </contour>
    <contour>
      <point x="179" y="666" type="curve"/>
      <point x="207" y="655" type="line"/>
      <point x="222" y="700"/>
      <point x="241" y="727"/>
      <point x="270" y="727" type="curve" smooth="yes"/>
      <point x="298" y="727"/>
      <point x="317" y="702"/>
      <point x="339" y="685" type="curve" smooth="yes"/>
      <point x="359" y="668"/>
      <point x="380" y="655"/>
      <point x="414" y="655" type="curve" smooth="yes"/>
      <point x="471" y="655"/>
      <point x="499" y="701"/>
      <point x="511" y="774" type="curve"/>
      <point x="483" y="783" type="line"/>
      <point x="468" y="739"/>
      <point x="450" y="712"/>
      <point x="419" y="712" type="curve" smooth="yes"/>
      <point x="392" y="712"/>
      <point x="373" y="736"/>
      <point x="353" y="752" type="curve" smooth="yes"/>
      <point x="330" y="770"/>
      <point x="310" y="784"/>
      <point x="276" y="784" type="curve" smooth="yes"/>
      <point x="220" y="784"/>
      <point x="190" y="738"/>
    </contour>
  </outline>
</glyph>
<glyph name="Odieresis" format="2">
  <advance width="649"/>
  <unicode hex="00D6"/>
  <anchor x="325" y="794" name="aboveUC"/>
  <anchor x="324" y="-20" name="belowLC"/>
  <anchor x="463" y="606" name="hornLC"/>
  <anchor x="408" y="0" name="ogonek"/>
  <outline>
    <contour>
      <point x="325" y="-14" type="curve" smooth="yes"/>
      <point x="469" y="-14"/>
      <point x="607" y="103"/>
      <point x="607" y="307" type="curve" smooth="yes"/>
      <point x="607" y="517"/>
      <point x="468" y="629"/>
      <point x="325" y="629" type="curve" smooth="yes"/>
      <point x="182" y="629"/>
      <point x="42" y="510"/>
      <point x="42" y="307" type="curve" smooth="yes"/>
      <point x="42" y="96"/>
      <point x="181" y="-14"/>
    </contour>
    <contour>
      <point x="325" y="33" type="curve" smooth="yes"/>
      <point x="201" y="33"/>
      <point x="149" y="166"/>
      <point x="149" y="307" type="curve" smooth="yes"/>
      <point x="149" y="447"/>
      <point x="201" y="581"/>
      <point x="325" y="581" type="curve" smooth="yes"/>
      <point x="448" y="581"/>
      <point x="500" y="447"/>
      <point x="500" y="307" type="curve" smooth="yes"/>
      <point x="500" y="166"/>
      <point x="448" y="33"/>
    </contour>
    <contour>
      <point x="220" y="681" type="curve" smooth="yes"/>
      <point x="251" y="681"/>
      <point x="275" y="702"/>
      <point x="275" y="733" type="curve" smooth="yes"/>
      <point x="275" y="763"/>
      <point x="251" y="785"/>
      <point x="220" y="785" type="curve" smooth="yes"/>
      <point x="191" y="785"/>
      <point x="166" y="763"/>
      <point x="166" y="733" type="curve" smooth="yes"/>
      <point x="166" y="702"/>
      <point x="191" y="681"/>
    </contour>
    <contour>
      <point x="428" y="681" type="curve" smooth="yes"/>
      <point x="458" y="681"/>
      <point x="483" y="702"/>
      <point x="483" y="733" type="curve" smooth="yes"/>
      <point x="483" y="763"/>
      <point x="458" y="785"/>
      <point x="428" y="785" type="curve" smooth="yes"/>
      <point x="399" y="785"/>
      <point x="374" y="763"/>
      <point x="374" y="733" type="curve" smooth="yes"/>
      <point x="374" y="702"/>
      <point x="399" y="681"/>
    </contour>
  </outline>
</glyph>
<glyph name="multiply" format="2">
  <advance width="489"/>
  <unicode hex="00D7"/>
  <outline>
    <contour>
      <point x="410" y="96" type="line"/>
      <point x="450" y="137" type="line"/>
      <point x="79" y="508" type="line"/>
      <point x="38" y="468" type="line"/>
    </contour>
    <contour>
      <point x="450" y="468" type="line"/>
      <point x="410" y="508" type="line"/>
      <point x="38" y="137" type="line"/>
      <point x="79" y="96" type="line"/>
    </contour>
  </outline>
</glyph>
<glyph name="Oslash" format="2">
  <advance width="649"/>
  <unicode hex="00D8"/>
  <anchor x="324" y="634" name="aboveUC"/>
  <outline>
    <contour>
      <point x="595" y="602" type="line"/>
      <point x="554" y="634" type="line"/>
      <point x="46" y="11" type="line"/>
      <point x="87" y="-20" type="line"/>
    </contour>
    <contour>
      <point x="139" y="307" type="curve" smooth="yes"/>
      <point x="139" y="447"/>
      <point x="194" y="581"/>
      <point x="325" y="581" type="curve" smooth="yes"/>
      <point x="456" y="581"/>
      <point x="509" y="447"/>
      <point x="509" y="307" type="curve" smooth="yes"/>
      <point x="509" y="166"/>
      <point x="456" y="33"/>
      <point x="325" y="33" type="curve" smooth="yes"/>
      <point x="194" y="33"/>
      <point x="139" y="166"/>
    </contour>
    <contour>
      <point x="325" y="629" type="curve" smooth="yes"/>
      <point x="182" y="629"/>
      <point x="42" y="510"/>
      <point x="42" y="307" type="curve" smooth="yes"/>
      <point x="42" y="96"/>
      <point x="181" y="-14"/>
      <point x="325" y="-14" type="curve" smooth="yes"/>
      <point x="469" y="-14"/>
      <point x="607" y="103"/>
      <point x="607" y="307" type="curve" smooth="yes"/>
      <point x="607" y="517"/>
      <point x="468" y="629"/>
    </contour>
  </outline>
</glyph>
<glyph name="Uacute" format="2">
  <advance width="669"/>
  <unicode hex="00DA"/>
  <anchor x="364" y="799" name="aboveUC"/>
  <anchor x="344" y="-20" name="belowLC"/>
  <anchor x="540" y="624" name="hornLC"/>
  <anchor x="415" y="0" name="ogonek"/>
  <outline>
    <contour>
      <point x="112" y="58"/>
      <point x="203" y="-14"/>
      <point x="337" y="-14" type="curve" smooth="yes"/>
      <point x="465" y="-14"/>
      <point x="559" y="58"/>
      <point x="559" y="253" type="curve" smooth="yes"/>
      <point x="559" y="614" type="line"/>
      <point x="510" y="614" type="line"/>
      <point x="510" y="272" type="line" smooth="yes"/>
      <point x="510" y="112"/>
      <point x="458" y="53"/>
      <point x="356" y="53" type="curve" smooth="yes"/>
      <point x="263" y="53"/>
      <point x="206" y="103"/>
      <point x="206" y="258" type="curve" smooth="yes"/>
      <point x="206" y="331" type="line" smooth="yes"/>
      <point x="206" y="426"/>
      <point x="206" y="521"/>
      <point x="208" y="614" type="curve"/>
      <point x="109" y="614" type="line"/>
      <point x="112" y="519"/>
      <point x="112" y="425"/>
      <point x="112" y="331" type="curve" smooth="yes"/>
      <point x="112" y="230" type="line" smooth="yes"/>
    </contour>
    <contour>
      <point x="34" y="575" type="line"/>
      <point x="157" y="562" type="line"/>
      <point x="177" y="562" type="line"/>
      <point x="299" y="575" type="line"/>
      <point x="299" y="614" type="line"/>
      <point x="34" y="614" type="line"/>
    </contour>
    <contour>
      <point x="417" y="575" type="line"/>
      <point x="518" y="563" type="line"/>
      <point x="538" y="563" type="line"/>
      <point x="638" y="575" type="line"/>
      <point x="638" y="614" type="line"/>
      <point x="417" y="614" type="line"/>
    </contour>
    <contour>
      <point x="299" y="676" type="curve"/>
      <point x="317" y="652" type="line"/>
      <point x="356" y="671"/>
      <point x="397" y="692"/>
      <point x="436" y="713" type="curve" smooth="yes"/>
      <point x="471" y="733"/>
      <point x="483" y="749"/>
      <point x="483" y="766" type="curve" smooth="yes"/>
      <point x="483" y="785"/>
      <point x="466" y="799"/>
      <point x="447" y="799" type="curve" smooth="yes"/>
      <point x="430" y="799"/>
      <point x="414" y="790"/>
      <point x="388" y="763" type="curve" smooth="yes"/>
      <point x="358" y="736"/>
      <point x="329" y="706"/>
    </contour>
  </outline>
</glyph>
<glyph name="Ucircumflex" format="2">
  <advance width="669"/>
  <unicode hex="00DB"/>
  <anchor x="355" y="790" name="aboveUC"/>
  <anchor x="344" y="-20" name="belowLC"/>
  <anchor x="540" y="624" name="hornLC"/>
  <anchor x="415" y="0" name="ogonek"/>
  <outline>
    <contour>
      <point x="112" y="58"/>
      <point x="203" y="-14"/>
      <point x="337" y="-14" type="curve" smooth="yes"/>
      <point x="465" y="-14"/>
      <point x="559" y="58"/>
      <point x="559" y="253" type="curve" smooth="yes"/>
      <point x="559" y="614" type="line"/>
      <point x="510" y="614" type="line"/>
      <point x="510" y="272" type="line" smooth="yes"/>
      <point x="510" y="112"/>
      <point x="458" y="53"/>
      <point x="356" y="53" type="curve" smooth="yes"/>
      <point x="263" y="53"/>
      <point x="206" y="103"/>
      <point x="206" y="258" type="curve" smooth="yes"/>
      <point x="206" y="331" type="line" smooth="yes"/>
      <point x="206" y="426"/>
      <point x="206" y="521"/>
      <point x="208" y="614" type="curve"/>
      <point x="109" y="614" type="line"/>
      <point x="112" y="519"/>
      <point x="112" y="425"/>
      <point x="112" y="331" type="curve" smooth="yes"/>
      <point x="112" y="230" type="line" smooth="yes"/>
    </contour>
    <contour>
      <point x="34" y="575" type="line"/>
      <point x="157" y="562" type="line"/>
      <point x="177" y="562" type="line"/>
      <point x="299" y="575" type="line"/>
      <point x="299" y="614" type="line"/>
      <point x="34" y="614" type="line"/>
    </contour>
    <contour>
      <point x="417" y="575" type="line"/>
      <point x="518" y="563" type="line"/>
      <point x="538" y="563" type="line"/>
      <point x="638" y="575" type="line"/>
      <point x="638" y="614" type="line"/>
      <point x="417" y="614" type="line"/>
    </contour>
    <contour>
      <point x="372" y="781" type="line"/>
      <point x="337" y="781" type="line"/>
      <point x="215" y="671" type="line"/>
      <point x="234" y="647" type="line"/>
      <point x="394" y="739" type="line"/>
      <point x="315" y="739" type="line"/>
      <point x="475" y="647" type="line"/>
      <point x="494" y="671" type="line"/>
    </contour>
  </outline>
</glyph>
<glyph name="Udieresis" format="2">
  <advance width="669"/>
  <unicode hex="00DC"/>
  <anchor x="366" y="794" name="aboveUC"/>
  <anchor x="344" y="-20" name="belowLC"/>
  <anchor x="540" y="624" name="hornLC"/>
  <anchor x="415" y="0" name="ogonek"/>
  <outline>
    <contour>
      <point x="112" y="58"/>
      <point x="203" y="-14"/>
      <point x="337" y="-14" type="curve" smooth="yes"/>
      <point x="465" y="-14"/>
      <point x="559" y="58"/>
      <point x="559" y="253" type="curve" smooth="yes"/>
      <point x="559" y="614" type="line"/>
      <point x="510" y="614" type="line"/>
      <point x="510" y="272" type="line" smooth="yes"/>
      <point x="510" y="112"/>
      <point x="458" y="53"/>
      <point x="356" y="53" type="curve" smooth="yes"/>
      <point x="263" y="53"/>
      <point x="206" y="103"/>
      <point x="206" y="258" type="curve" smooth="yes"/>
      <point x="206" y="331" type="line" smooth="yes"/>
      <point x="206" y="426"/>
      <point x="206" y="521"/>
      <point x="208" y="614" type="curve"/>
      <point x="109" y="614" type="line"/>
      <point x="112" y="519"/>
      <point x="112" y="425"/>
      <point x="112" y="331" type="curve" smooth="yes"/>
      <point x="112" y="230" type="line" smooth="yes"/>
    </contour>
    <contour>
      <point x="34" y="575" type="line"/>
      <point x="157" y="562" type="line"/>
      <point x="177" y="562" type="line"/>
      <point x="299" y="575" type="line"/>
      <point x="299" y="614" type="line"/>
      <point x="34" y="614" type="line"/>
    </contour>
    <contour>
      <point x="417" y="575" type="line"/>
      <point x="518" y="563" type="line"/>
      <point x="538" y="563" type="line"/>
      <point x="638" y="575" type="line"/>
      <point x="638" y="614" type="line"/>
      <point x="417" y="614" type="line"/>
    </contour>
    <contour>
      <point x="262" y="681" type="curve" smooth="yes"/>
      <point x="291" y="681"/>
      <point x="315" y="702"/>
      <point x="315" y="733" type="curve" smooth="yes"/>
      <point x="315" y="763"/>
      <point x="291" y="785"/>
      <point x="262" y="785" type="curve" smooth="yes"/>
      <point x="231" y="785"/>
      <point x="207" y="763"/>
      <point x="207" y="733" type="curve" smooth="yes"/>
      <point x="207" y="702"/>
      <point x="231" y="681"/>
    </contour>
    <contour>
      <point x="469" y="681" type="curve" smooth="yes"/>
      <point x="498" y="681"/>
      <point x="524" y="702"/>
      <point x="524" y="733" type="curve" smooth="yes"/>
      <point x="524" y="763"/>
      <point x="498" y="785"/>
      <point x="469" y="785" type="curve" smooth="yes"/>
      <point x="439" y="785"/>
      <point x="414" y="763"/>
      <point x="414" y="733" type="curve" smooth="yes"/>
      <point x="414" y="702"/>
      <point x="439" y="681"/>
    </contour>
  </outline>
</glyph>
<glyph name="Yacute" format="2">
  <advance width="581"/>
  <unicode hex="00DD"/>
  <anchor x="344" y="799" name="aboveUC"/>
  <anchor x="289" y="-20" name="belowLC"/>
  <outline>
    <contour>
      <point x="150" y="0" type="line"/>
      <point x="433" y="0" type="line"/>
      <point x="433" y="38" type="line"/>
      <point x="302" y="52" type="line"/>
      <point x="280" y="52" type="line"/>
      <point x="150" y="38" type="line"/>
    </contour>
    <contour>
      <point x="241" y="0" type="curve"/>
      <point x="342" y="0" type="line"/>
      <point x="339" y="81"/>
      <point x="339" y="167"/>
      <point x="339" y="276" type="curve"/>
      <point x="244" y="276" type="line"/>
      <point x="244" y="166"/>
      <point x="244" y="80"/>
    </contour>
    <contour>
      <point x="261" y="205" type="line"/>
      <point x="320" y="205" type="line"/>
      <point x="517" y="614" type="line"/>
      <point x="469" y="614" type="line"/>
      <point x="300" y="258" type="line"/>
      <point x="332" y="258" type="line"/>
      <point x="168" y="614" type="line"/>
      <point x="59" y="614" type="line"/>
    </contour>
    <contour>
      <point x="12" y="575" type="line"/>
      <point x="135" y="562" type="line"/>
      <point x="157" y="562" type="line"/>
      <point x="276" y="575" type="line"/>
      <point x="276" y="614" type="line"/>
      <point x="12" y="614" type="line"/>
    </contour>
    <contour>
      <point x="364" y="575" type="line"/>
      <point x="464" y="562" type="line"/>
      <point x="482" y="562" type="line"/>
      <point x="573" y="575" type="line"/>
      <point x="573" y="614" type="line"/>
      <point x="364" y="614" type="line"/>
    </contour>
    <contour>
      <point x="279" y="676" type="curve"/>
      <point x="297" y="652" type="line"/>
      <point x="336" y="671"/>
      <point x="376" y="692"/>
      <point x="415" y="713" type="curve" smooth="yes"/>
      <point x="451" y="733"/>
      <point x="462" y="749"/>
      <point x="462" y="766" type="curve" smooth="yes"/>
      <point x="462" y="785"/>
      <point x="446" y="799"/>
      <point x="426" y="799" type="curve" smooth="yes"/>
      <point x="410" y="799"/>
      <point x="393" y="790"/>
      <point x="367" y="763" type="curve" smooth="yes"/>
      <point x="338" y="736"/>
      <point x="309" y="706"/>
    </contour>
  </outline>
</glyph>
<glyph name="Thorn" format="2">
  <advance width="563"/>
  <unicode hex="00DE"/>
  <outline>
    <contour>
      <point x="161" y="562" type="line"/>
      <point x="185" y="562" type="line"/>
      <point x="308" y="575" type="line"/>
      <point x="308" y="614" type="line"/>
      <point x="39" y="614" type="line"/>
      <point x="39" y="575" type="line"/>
    </contour>
    <contour>
      <point x="161" y="52" type="line"/>
      <point x="39" y="38" type="line"/>
      <point x="39" y="0" type="line"/>
      <point x="308" y="0" type="line"/>
      <point x="308" y="38" type="line"/>
      <point x="186" y="52" type="line"/>
    </contour>
    <contour>
      <point x="124" y="285" type="line" smooth="yes"/>
      <point x="124" y="188"/>
      <point x="124" y="92"/>
      <point x="121" y="0" type="curve"/>
      <point x="220" y="0" type="line"/>
      <point x="218" y="92"/>
      <point x="218" y="194"/>
      <point x="218" y="285" type="curve" smooth="yes"/>
      <point x="218" y="331" type="line" smooth="yes"/>
      <point x="218" y="425"/>
      <point x="218" y="520"/>
      <point x="220" y="614" type="curve"/>
      <point x="121" y="614" type="line"/>
      <point x="124" y="519"/>
      <point x="124" y="424"/>
      <point x="124" y="329" type="curve" smooth="yes"/>
    </contour>
    <contour>
      <point x="540" y="318" type="curve" smooth="yes"/>
      <point x="540" y="423"/>
      <point x="463" y="492"/>
      <point x="299" y="492" type="curve" smooth="yes"/>
      <point x="172" y="492" type="line"/>
      <point x="172" y="448" type="line"/>
      <point x="288" y="448" type="line" smooth="yes"/>
      <point x="396" y="448"/>
      <point x="444" y="402"/>
      <point x="444" y="319" type="curve" smooth="yes"/>
      <point x="444" y="240"/>
      <point x="394" y="184"/>
      <point x="290" y="184" type="curve" smooth="yes"/>
      <point x="172" y="184" type="line"/>
      <point x="172" y="140" type="line"/>
      <point x="276" y="140" type="line" smooth="yes"/>
      <point x="488" y="140"/>
      <point x="540" y="228"/>
    </contour>
  </outline>
</glyph>
<glyph name="germandbls" format="2">
  <advance width="551"/>
  <unicode hex="00DF"/>
  <outline>
    <contour>
      <point x="139" y="52" type="line"/>
      <point x="125" y="52" type="line"/>
      <point x="23" y="34" type="line"/>
      <point x="23" y="0" type="line"/>
      <point x="139" y="0" type="line"/>
    </contour>
    <contour>
      <point x="95" y="193" type="line" smooth="yes"/>
      <point x="95" y="128"/>
      <point x="94" y="64"/>
      <point x="92" y="0" type="curve"/>
      <point x="184" y="0" type="line"/>
      <point x="182" y="64"/>
      <point x="181" y="128"/>
      <point x="181" y="193" type="curve" smooth="yes"/>
      <point x="181" y="432" type="line" smooth="yes"/>
      <point x="181" y="548"/>
      <point x="193" y="588"/>
      <point x="220" y="616" type="curve" smooth="yes"/>
      <point x="241" y="637"/>
      <point x="266" y="645"/>
      <point x="300" y="645" type="curve" smooth="yes"/>
      <point x="367" y="645"/>
      <point x="396" y="608"/>
      <point x="396" y="549" type="curve" smooth="yes"/>
      <point x="396" y="506"/>
      <point x="380" y="479"/>
      <point x="338" y="444" type="curve" smooth="yes"/>
      <point x="294" y="408"/>
      <point x="274" y="372"/>
      <point x="274" y="325" type="curve" smooth="yes"/>
      <point x="274" y="260"/>
      <point x="311" y="232"/>
      <point x="372" y="197" type="curve" smooth="yes"/>
      <point x="440" y="158"/>
      <point x="453" y="135"/>
      <point x="453" y="103" type="curve" smooth="yes"/>
      <point x="453" y="57"/>
      <point x="427" y="30"/>
      <point x="367" y="30" type="curve" smooth="yes"/>
      <point x="340" y="30"/>
      <point x="310" y="35"/>
      <point x="266" y="59" type="curve"/>
      <point x="316" y="13" type="line"/>
      <point x="288" y="124" type="line"/>
      <point x="241" y="124" type="line"/>
      <point x="243" y="13" type="line"/>
      <point x="285" y="-2"/>
      <point x="326" y="-11"/>
      <point x="372" y="-11" type="curve" smooth="yes"/>
      <point x="481" y="-11"/>
      <point x="532" y="41"/>
      <point x="532" y="122" type="curve" smooth="yes"/>
      <point x="532" y="183"/>
      <point x="506" y="215"/>
      <point x="418" y="269" type="curve" smooth="yes"/>
      <point x="364" y="301"/>
      <point x="345" y="316"/>
      <point x="345" y="352" type="curve" smooth="yes"/>
      <point x="345" y="379"/>
      <point x="356" y="405"/>
      <point x="399" y="435" type="curve" smooth="yes"/>
      <point x="449" y="471"/>
      <point x="478" y="511"/>
      <point x="478" y="561" type="curve" smooth="yes"/>
      <point x="478" y="634"/>
      <point x="413" y="688"/>
      <point x="314" y="688" type="curve" smooth="yes"/>
      <point x="258" y="688"/>
      <point x="207" y="671"/>
      <point x="166" y="630" type="curve" smooth="yes"/>
      <point x="121" y="585"/>
      <point x="95" y="531"/>
      <point x="95" y="388" type="curve" smooth="yes"/>
    </contour>
  </outline>
</glyph>
<glyph name="aacute" format="2">
  <advance width="471"/>
  <unicode hex="00E1"/>
  <anchor x="255" y="699" name="aboveLC"/>
  <anchor x="225" y="-20" name="belowLC"/>
  <anchor x="412" y="0" name="ogonek"/>
  <outline>
    <contour>
      <point x="40" y="26"/>
      <point x="94" y="-11"/>
      <point x="162" y="-11" type="curve" smooth="yes"/>
      <point x="220" y="-11"/>
      <point x="252" y="13"/>
      <point x="305" y="68" type="curve"/>
      <point x="333" y="68" type="line"/>
      <point x="321" y="115" type="line"/>
      <point x="247" y="59"/>
      <point x="229" y="49"/>
      <point x="198" y="49" type="curve" smooth="yes"/>
      <point x="158" y="49"/>
      <point x="127" y="69"/>
      <point x="127" y="117" type="curve" smooth="yes"/>
      <point x="127" y="147"/>
      <point x="139" y="181"/>
      <point x="216" y="211" type="curve" smooth="yes"/>
      <point x="242" y="222"/>
      <point x="297" y="239"/>
      <point x="338" y="248" type="curve"/>
      <point x="338" y="282" type="line"/>
      <point x="292" y="273"/>
      <point x="233" y="256"/>
      <point x="195" y="243" type="curve" smooth="yes"/>
      <point x="69" y="198"/>
      <point x="40" y="157"/>
      <point x="40" y="103" type="curve" smooth="yes"/>
    </contour>
    <contour>
      <point x="382" y="-10" type="curve" smooth="yes"/>
      <point x="417" y="-10"/>
      <point x="443" y="3"/>
      <point x="465" y="40" type="curve"/>
      <point x="446" y="60" type="line"/>
      <point x="436" y="47"/>
      <point x="426" y="40"/>
      <point x="412" y="40" type="curve" smooth="yes"/>
      <point x="391" y="40"/>
      <point x="379" y="53"/>
      <point x="379" y="91" type="curve" smooth="yes"/>
      <point x="379" y="287" type="line" smooth="yes"/>
      <point x="379" y="405"/>
      <point x="333" y="449"/>
      <point x="235" y="449" type="curve" smooth="yes"/>
      <point x="137" y="449"/>
      <point x="68" y="404"/>
      <point x="52" y="333" type="curve"/>
      <point x="55" y="310"/>
      <point x="70" y="296"/>
      <point x="97" y="296" type="curve" smooth="yes"/>
      <point x="123" y="296"/>
      <point x="139" y="311"/>
      <point x="147" y="344" type="curve" smooth="yes"/>
      <point x="168" y="421" type="line"/>
      <point x="127" y="391" type="line"/>
      <point x="162" y="404"/>
      <point x="189" y="407"/>
      <point x="210" y="407" type="curve" smooth="yes"/>
      <point x="271" y="407"/>
      <point x="295" y="384"/>
      <point x="295" y="296" type="curve" smooth="yes"/>
      <point x="295" y="82" type="line"/>
      <point x="296" y="26"/>
      <point x="330" y="-10"/>
    </contour>
    <contour>
      <point x="200" y="530" type="curve"/>
      <point x="225" y="511" type="line"/>
      <point x="261" y="543"/>
      <point x="296" y="574"/>
      <point x="335" y="609" type="curve" smooth="yes"/>
      <point x="362" y="632"/>
      <point x="369" y="647"/>
      <point x="369" y="662" type="curve" smooth="yes"/>
      <point x="369" y="687"/>
      <point x="351" y="699"/>
      <point x="333" y="699" type="curve" smooth="yes"/>
      <point x="315" y="699"/>
      <point x="299" y="689"/>
      <point x="280" y="658" type="curve" smooth="yes"/>
      <point x="250" y="612"/>
      <point x="225" y="572"/>
    </contour>
  </outline>
</glyph>
<glyph name="ae" format="2">
  <advance width="720"/>
  <unicode hex="00E6"/>
  <anchor x="368" y="467" name="aboveLC"/>
  <anchor x="345" y="-20" name="belowLC"/>
  <outline>
    <contour>
      <point x="127" y="119" type="curve" smooth="yes"/>
      <point x="127" y="149"/>
      <point x="139" y="179"/>
      <point x="216" y="209" type="curve" smooth="yes"/>
      <point x="242" y="220"/>
      <point x="295" y="237"/>
      <point x="336" y="246" type="curve"/>
      <point x="336" y="280" type="line"/>
      <point x="291" y="272"/>
      <point x="233" y="254"/>
      <point x="195" y="241" type="curve" smooth="yes"/>
      <point x="69" y="197"/>
      <point x="40" y="158"/>
      <point x="40" y="104" type="curve" smooth="yes"/>
      <point x="40" y="28"/>
      <point x="94" y="-11"/>
      <point x="163" y="-11" type="curve" smooth="yes"/>
      <point x="222" y="-11"/>
      <point x="259" y="7"/>
      <point x="340" y="89" type="curve"/>
      <point x="322" y="112" type="line"/>
      <point x="255" y="60"/>
      <point x="236" y="49"/>
      <point x="199" y="49" type="curve" smooth="yes"/>
      <point x="161" y="49"/>
      <point x="127" y="71"/>
    </contour>
    <contour>
      <point x="499" y="-11" type="curve" smooth="yes"/>
      <point x="584" y="-11"/>
      <point x="644" y="28"/>
      <point x="678" y="94" type="curve"/>
      <point x="655" y="113" type="line"/>
      <point x="622" y="76"/>
      <point x="586" y="50"/>
      <point x="529" y="50" type="curve" smooth="yes"/>
      <point x="440" y="50"/>
      <point x="381" y="111"/>
      <point x="381" y="223" type="curve" smooth="yes"/>
      <point x="381" y="358"/>
      <point x="445" y="407"/>
      <point x="499" y="407" type="curve" smooth="yes"/>
      <point x="554" y="407"/>
      <point x="596" y="362"/>
      <point x="596" y="309" type="curve" smooth="yes"/>
      <point x="596" y="279"/>
      <point x="585" y="260"/>
      <point x="541" y="260" type="curve" smooth="yes"/>
      <point x="333" y="260" type="line"/>
      <point x="333" y="219" type="line"/>
      <point x="673" y="219" type="line"/>
      <point x="677" y="232"/>
      <point x="678" y="250"/>
      <point x="678" y="270" type="curve" smooth="yes"/>
      <point x="678" y="382"/>
      <point x="604" y="449"/>
      <point x="505" y="449" type="curve" smooth="yes"/>
      <point x="439" y="449"/>
      <point x="379" y="414"/>
      <point x="340" y="356" type="curve"/>
      <point x="327" y="348" type="line"/>
      <point x="305" y="311"/>
      <point x="291" y="266"/>
      <point x="291" y="215" type="curve" smooth="yes"/>
      <point x="291" y="70"/>
      <point x="374" y="-11"/>
    </contour>
    <contour>
      <point x="374" y="302" type="line" smooth="yes"/>
      <point x="374" y="407"/>
      <point x="316" y="449"/>
      <point x="235" y="449" type="curve" smooth="yes"/>
      <point x="137" y="449"/>
      <point x="68" y="402"/>
      <point x="52" y="332" type="curve"/>
      <point x="55" y="308"/>
      <point x="70" y="292"/>
      <point x="97" y="292" type="curve" smooth="yes"/>
      <point x="123" y="292"/>
      <point x="141" y="309"/>
      <point x="149" y="341" type="curve" smooth="yes"/>
      <point x="170" y="419" type="line"/>
      <point x="127" y="391" type="line"/>
      <point x="162" y="404"/>
      <point x="190" y="407"/>
      <point x="213" y="407" type="curve" smooth="yes"/>
      <point x="269" y="407"/>
      <point x="295" y="384"/>
      <point x="295" y="296" type="curve" smooth="yes"/>
      <point x="295" y="219" type="line"/>
      <point x="374" y="219" type="line"/>
    </contour>
  </outline>
</glyph>
<glyph name="ccedilla" format="2">
  <advance width="450"/>
  <unicode hex="00E7"/>
  <anchor x="253" y="467" name="aboveLC"/>
  <anchor x="253" y="0" name="baseLC"/>
  <anchor x="253" y="-20" name="belowLC"/>
  <outline>
    <contour>
      <point x="37" y="74"/>
      <point x="120" y="-11"/>
      <point x="246" y="-11" type="curve" smooth="yes"/>
      <point x="333" y="-11"/>
      <point x="392" y="29"/>
      <point x="419" y="104" type="curve"/>
      <point x="395" y="118" type="line"/>
      <point x="368" y="75"/>
      <point x="322" y="50"/>
      <point x="271" y="50" type="curve" smooth="yes"/>
      <point x="185" y="50"/>
      <point x="126" y="113"/>
      <point x="126" y="227" type="curve" smooth="yes"/>
      <point x="126" y="345"/>
      <point x="183" y="407"/>
      <point x="258" y="407" type="curve" smooth="yes"/>
      <point x="285" y="407"/>
      <point x="315" y="401"/>
      <point x="345" y="384" type="curve"/>
      <point x="299" y="419" type="line"/>
      <point x="321" y="341" type="line" smooth="yes"/>
      <point x="326" y="310"/>
      <point x="341" y="292"/>
      <point x="372" y="292" type="curve" smooth="yes"/>
      <point x="397" y="292"/>
      <point x="412" y="303"/>
      <point x="417" y="328" type="curve"/>
      <point x="406" y="397"/>
      <point x="338" y="449"/>
      <point x="253" y="449" type="curve" smooth="yes"/>
      <point x="139" y="449"/>
      <point x="37" y="363"/>
      <point x="37" y="218" type="curve" smooth="yes"/>
    </contour>
    <contour>
      <point x="218" y="-79" type="line"/>
      <point x="262" y="-85"/>
      <point x="283" y="-98"/>
      <point x="283" y="-126" type="curve" smooth="yes"/>
      <point x="283" y="-151"/>
      <point x="265" y="-167"/>
      <point x="230" y="-167" type="curve" smooth="yes"/>
      <point x="214" y="-167"/>
      <point x="200" y="-166"/>
      <point x="185" y="-164" type="curve"/>
      <point x="178" y="-194" type="line"/>
      <point x="192" y="-198"/>
      <point x="211" y="-203"/>
      <point x="238" y="-203" type="curve" smooth="yes"/>
      <point x="307" y="-203"/>
      <point x="343" y="-171"/>
      <point x="343" y="-127" type="curve" smooth="yes"/>
      <point x="343" y="-79"/>
      <point x="296" y="-53"/>
      <point x="236" y="-50" type="curve"/>
      <point x="256" y="-69" type="line"/>
      <point x="265" y="2" type="line"/>
      <point x="230" y="2" type="line"/>
    </contour>
  </outline>
</glyph>
<glyph name="egrave" format="2">
  <advance width="470"/>
  <unicode hex="00E8"/>
  <anchor x="236" y="680" name="aboveLC"/>
  <anchor x="262" y="-20" name="belowLC"/>
  <anchor x="318" y="0" name="ogonek"/>
  <outline>
    <contour>
      <point x="39" y="73"/>
      <point x="122" y="-11"/>
      <point x="247" y="-11" type="curve" smooth="yes"/>
      <point x="332" y="-11"/>
      <point x="391" y="28"/>
      <point x="425" y="94" type="curve"/>
      <point x="402" y="113" type="line"/>
      <point x="370" y="76"/>
      <point x="333" y="50"/>
      <point x="276" y="50" type="curve" smooth="yes"/>
      <point x="188" y="50"/>
      <point x="129" y="111"/>
      <point x="129" y="227" type="curve" smooth="yes"/>
      <point x="129" y="358"/>
      <point x="193" y="407"/>
      <point x="248" y="407" type="curve" smooth="yes"/>
      <point x="302" y="407"/>
      <point x="344" y="362"/>
      <point x="344" y="309" type="curve" smooth="yes"/>
      <point x="344" y="280"/>
      <point x="333" y="260"/>
      <point x="289" y="260" type="curve" smooth="yes"/>
      <point x="78" y="260" type="line"/>
      <point x="78" y="219" type="line"/>
      <point x="421" y="219" type="line"/>
      <point x="425" y="232"/>
      <point x="426" y="250"/>
      <point x="426" y="271" type="curve" smooth="yes"/>
      <point x="426" y="382"/>
      <point x="352" y="449"/>
      <point x="253" y="449" type="curve" smooth="yes"/>
      <point x="138" y="449"/>
      <point x="39" y="357"/>
      <point x="39" y="214" type="curve" smooth="yes"/>
    </contour>
    <contour>
      <point x="287" y="530" type="line"/>
      <point x="263" y="572"/>
      <point x="237" y="612"/>
      <point x="207" y="659" type="curve" smooth="yes"/>
      <point x="188" y="689"/>
      <point x="172" y="699"/>
      <point x="155" y="699" type="curve" smooth="yes"/>
      <point x="136" y="699"/>
      <point x="118" y="687"/>
      <point x="118" y="662" type="curve" smooth="yes"/>
      <point x="118" y="647"/>
      <point x="126" y="632"/>
      <point x="152" y="609" type="curve" smooth="yes"/>
      <point x="192" y="574"/>
      <point x="226" y="543"/>
      <point x="263" y="511" type="curve"/>
    </contour>
  </outline>
</glyph>
<glyph name="eacute" format="2">
  <advance width="470"/>
  <unicode hex="00E9"/>
  <anchor x="262" y="699" name="aboveLC"/>
  <anchor x="262" y="-20" name="belowLC"/>
  <anchor x="318" y="0" name="ogonek"/>
  <outline>
    <contour>
      <point x="39" y="73"/>
      <point x="122" y="-11"/>
      <point x="247" y="-11" type="curve" smooth="yes"/>
      <point x="332" y="-11"/>
      <point x="391" y="28"/>
      <point x="425" y="94" type="curve"/>
      <point x="402" y="113" type="line"/>
      <point x="370" y="76"/>
      <point x="333" y="50"/>
      <point x="276" y="50" type="curve" smooth="yes"/>
      <point x="188" y="50"/>
      <point x="129" y="111"/>
      <point x="129" y="227" type="curve" smooth="yes"/>
      <point x="129" y="358"/>
      <point x="193" y="407"/>
      <point x="248" y="407" type="curve" smooth="yes"/>
      <point x="302" y="407"/>
      <point x="344" y="362"/>
      <point x="344" y="309" type="curve" smooth="yes"/>
      <point x="344" y="280"/>
      <point x="333" y="260"/>
      <point x="289" y="260" type="curve" smooth="yes"/>
      <point x="78" y="260" type="line"/>
      <point x="78" y="219" type="line"/>
      <point x="421" y="219" type="line"/>
      <point x="425" y="232"/>
      <point x="426" y="250"/>
      <point x="426" y="271" type="curve" smooth="yes"/>
      <point x="426" y="382"/>
      <point x="352" y="449"/>
      <point x="253" y="449" type="curve" smooth="yes"/>
      <point x="138" y="449"/>
      <point x="39" y="357"/>
      <point x="39" y="214" type="curve" smooth="yes"/>
    </contour>
    <contour>
      <point x="207" y="530" type="curve"/>
      <point x="231" y="511" type="line"/>
      <point x="267" y="543"/>
      <point x="302" y="574"/>
      <point x="342" y="609" type="curve" smooth="yes"/>
      <point x="368" y="632"/>
      <point x="376" y="647"/>
      <point x="376" y="662" type="curve" smooth="yes"/>
      <point x="376" y="687"/>
      <point x="357" y="699"/>
      <point x="339" y="699" type="curve" smooth="yes"/>
      <point x="322" y="699"/>
      <point x="305" y="689"/>
      <point x="287" y="658" type="curve" smooth="yes"/>
      <point x="256" y="612"/>
      <point x="231" y="572"/>
    </contour>
  </outline>
</glyph>
<glyph name="igrave" format="2">
  <advance width="276"/>
  <unicode hex="00EC"/>
  <anchor x="131" y="680" name="aboveLC"/>
  <anchor x="138" y="-20" name="belowLC"/>
  <anchor x="173" y="0" name="ogonek"/>
  <outline>
    <contour>
      <point x="97" y="0" type="curve"/>
      <point x="187" y="0" type="line"/>
      <point x="185" y="41"/>
      <point x="184" y="136"/>
      <point x="184" y="193" type="curve" smooth="yes"/>
      <point x="184" y="314" type="line"/>
      <point x="187" y="440" type="line"/>
      <point x="173" y="449" type="line"/>
      <point x="26" y="393" type="line"/>
      <point x="26" y="360" type="line"/>
      <point x="97" y="352" type="line"/>
      <point x="99" y="315"/>
      <point x="100" y="287"/>
      <point x="100" y="236" type="curve" smooth="yes"/>
      <point x="100" y="193" type="line" smooth="yes"/>
      <point x="100" y="136"/>
      <point x="99" y="41"/>
    </contour>
    <contour>
      <point x="31" y="0" type="line"/>
      <point x="248" y="0" type="line"/>
      <point x="248" y="34" type="line"/>
      <point x="156" y="52" type="line"/>
      <point x="129" y="52" type="line"/>
      <point x="31" y="34" type="line"/>
    </contour>
    <contour>
      <point x="183" y="530" type="line"/>
      <point x="158" y="572"/>
      <point x="133" y="612"/>
      <point x="103" y="659" type="curve" smooth="yes"/>
      <point x="83" y="689"/>
      <point x="68" y="699"/>
      <point x="50" y="699" type="curve" smooth="yes"/>
      <point x="31" y="699"/>
      <point x="13" y="687"/>
      <point x="13" y="662" type="curve" smooth="yes"/>
      <point x="13" y="647"/>
      <point x="21" y="632"/>
      <point x="47" y="609" type="curve" smooth="yes"/>
      <point x="87" y="574"/>
      <point x="122" y="543"/>
      <point x="158" y="511" type="curve"/>
    </contour>
  </outline>
</glyph>
<glyph name="iacute" format="2">
  <advance width="276"/>
  <unicode hex="00ED"/>
  <anchor x="155" y="699" name="aboveLC"/>
  <anchor x="138" y="-20" name="belowLC"/>
  <anchor x="173" y="0" name="ogonek"/>
  <outline>
    <contour>
      <point x="97" y="0" type="curve"/>
      <point x="187" y="0" type="line"/>
      <point x="185" y="41"/>
      <point x="184" y="136"/>
      <point x="184" y="193" type="curve" smooth="yes"/>
      <point x="184" y="314" type="line"/>
      <point x="187" y="440" type="line"/>
      <point x="173" y="449" type="line"/>
      <point x="26" y="393" type="line"/>
      <point x="26" y="360" type="line"/>
      <point x="97" y="352" type="line"/>
      <point x="99" y="315"/>
      <point x="100" y="287"/>
      <point x="100" y="236" type="curve" smooth="yes"/>
      <point x="100" y="193" type="line" smooth="yes"/>
      <point x="100" y="136"/>
      <point x="99" y="41"/>
    </contour>
    <contour>
      <point x="31" y="0" type="line"/>
      <point x="248" y="0" type="line"/>
      <point x="248" y="34" type="line"/>
      <point x="156" y="52" type="line"/>
      <point x="129" y="52" type="line"/>
      <point x="31" y="34" type="line"/>
    </contour>
    <contour>
      <point x="100" y="530" type="curve"/>
      <point x="125" y="511" type="line"/>
      <point x="161" y="543"/>
      <point x="195" y="574"/>
      <point x="235" y="609" type="curve" smooth="yes"/>
      <point x="262" y="632"/>
      <point x="269" y="647"/>
      <point x="269" y="662" type="curve" smooth="yes"/>
      <point x="269" y="687"/>
      <point x="251" y="699"/>
      <point x="232" y="699" type="curve" smooth="yes"/>
      <point x="214" y="699"/>
      <point x="198" y="689"/>
      <point x="180" y="658" type="curve" smooth="yes"/>
      <point x="149" y="612"/>
      <point x="125" y="572"/>
    </contour>
  </outline>
</glyph>
<glyph name="idieresis" format="2">
  <advance width="276"/>
  <unicode hex="00EF"/>
  <anchor x="137" y="467" name="aboveLC"/>
  <anchor x="138" y="-20" name="belowLC"/>
  <anchor x="173" y="0" name="ogonek"/>
  <outline>
    <contour>
      <point x="50" y="546" type="curve" smooth="yes"/>
      <point x="81" y="546"/>
      <point x="107" y="568"/>
      <point x="107" y="599" type="curve" smooth="yes"/>
      <point x="107" y="631"/>
      <point x="81" y="654"/>
      <point x="50" y="654" type="curve" smooth="yes"/>
      <point x="20" y="654"/>
      <point x="-5" y="631"/>
      <point x="-5" y="599" type="curve" smooth="yes"/>
      <point x="-5" y="568"/>
      <point x="20" y="546"/>
    </contour>
    <contour>
      <point x="225" y="546" type="curve" smooth="yes"/>
      <point x="255" y="546"/>
      <point x="281" y="568"/>
      <point x="281" y="599" type="curve" smooth="yes"/>
      <point x="281" y="631"/>
      <point x="255" y="654"/>
      <point x="225" y="654" type="curve" smooth="yes"/>
      <point x="195" y="654"/>
      <point x="168" y="631"/>
      <point x="168" y="599" type="curve" smooth="yes"/>
      <point x="168" y="568"/>
      <point x="195" y="546"/>
    </contour>
    <contour>
      <point x="97" y="0" type="curve"/>
      <point x="187" y="0" type="line"/>
      <point x="185" y="41"/>
      <point x="184" y="136"/>
      <point x="184" y="193" type="curve" smooth="yes"/>
      <point x="184" y="314" type="line"/>
      <point x="187" y="440" type="line"/>
      <point x="173" y="449" type="line"/>
      <point x="26" y="393" type="line"/>
      <point x="26" y="360" type="line"/>
      <point x="97" y="352" type="line"/>
      <point x="99" y="315"/>
      <point x="100" y="287"/>
      <point x="100" y="236" type="curve" smooth="yes"/>
      <point x="100" y="193" type="line" smooth="yes"/>
      <point x="100" y="136"/>
      <point x="99" y="41"/>
    </contour>
    <contour>
      <point x="31" y="0" type="line"/>
      <point x="248" y="0" type="line"/>
      <point x="248" y="34" type="line"/>
      <point x="156" y="52" type="line"/>
      <point x="129" y="52" type="line"/>
      <point x="31" y="34" type="line"/>
    </contour>
  </outline>
</glyph>
<glyph name="eth" format="2">
  <advance width="502"/>
  <unicode hex="00F0"/>
  <outline>
    <contour>
      <point x="241" y="-11" type="curve" smooth="yes"/>
      <point x="376" y="-11"/>
      <point x="458" y="88"/>
      <point x="458" y="257" type="curve" smooth="yes"/>
      <point x="458" y="470"/>
      <point x="330" y="609"/>
      <point x="154" y="688" type="curve"/>
      <point x="135" y="655" type="line"/>
      <point x="272" y="570"/>
      <point x="333" y="496"/>
      <point x="368" y="343" type="curve"/>
      <point x="384" y="349" type="line"/>
      <point x="362" y="407"/>
      <point x="310" y="437"/>
      <point x="245" y="437" type="curve" smooth="yes"/>
      <point x="141" y="437"/>
      <point x="39" y="358"/>
      <point x="39" y="216" type="curve" smooth="yes"/>
      <point x="39" y="66"/>
      <point x="138" y="-11"/>
    </contour>
    <contour>
      <point x="250" y="30" type="curve" smooth="yes"/>
      <point x="176" y="30"/>
      <point x="134" y="93"/>
      <point x="134" y="211" type="curve" smooth="yes"/>
      <point x="134" y="329"/>
      <point x="174" y="394"/>
      <point x="250" y="394" type="curve" smooth="yes"/>
      <point x="325" y="394"/>
      <point x="371" y="337"/>
      <point x="371" y="223" type="curve" smooth="yes"/>
      <point x="371" y="100"/>
      <point x="331" y="30"/>
    </contour>
    <contour>
      <point x="142" y="480" type="line"/>
      <point x="452" y="637" type="line"/>
      <point x="435" y="673" type="line"/>
      <point x="124" y="516" type="line"/>
    </contour>
  </outline>
</glyph>
<glyph name="ograve" format="2">
  <advance width="506"/>
  <unicode hex="00F2"/>
  <anchor x="243" y="680" name="aboveLC"/>
  <anchor x="253" y="-20" name="belowLC"/>
  <anchor x="363" y="442" name="hornLC"/>
  <anchor x="323" y="0" name="ogonek"/>
  <outline>
    <contour>
      <point x="253" y="-11" type="curve" smooth="yes"/>
      <point x="363" y="-11"/>
      <point x="466" y="66"/>
      <point x="466" y="217" type="curve" smooth="yes"/>
      <point x="466" y="368"/>
      <point x="361" y="449"/>
      <point x="253" y="449" type="curve" smooth="yes"/>
      <point x="143" y="449"/>
      <point x="39" y="368"/>
      <point x="39" y="217" type="curve" smooth="yes"/>
      <point x="39" y="66"/>
      <point x="141" y="-11"/>
    </contour>
    <contour>
      <point x="253" y="30" type="curve" smooth="yes"/>
      <point x="175" y="30"/>
      <point x="134" y="92"/>
      <point x="134" y="217" type="curve" smooth="yes"/>
      <point x="134" y="341"/>
      <point x="175" y="407"/>
      <point x="253" y="407" type="curve" smooth="yes"/>
      <point x="328" y="407"/>
      <point x="372" y="341"/>
      <point x="372" y="217" type="curve" smooth="yes"/>
      <point x="372" y="92"/>
      <point x="328" y="30"/>
    </contour>
    <contour>
      <point x="295" y="530" type="line"/>
      <point x="270" y="572"/>
      <point x="244" y="612"/>
      <point x="215" y="659" type="curve" smooth="yes"/>
      <point x="195" y="689"/>
      <point x="180" y="699"/>
      <point x="162" y="699" type="curve" smooth="yes"/>
      <point x="143" y="699"/>
      <point x="126" y="687"/>
      <point x="126" y="662" type="curve" smooth="yes"/>
      <point x="126" y="647"/>
      <point x="133" y="632"/>
      <point x="160" y="609" type="curve" smooth="yes"/>
      <point x="199" y="574"/>
      <point x="234" y="543"/>
      <point x="270" y="511" type="curve"/>
    </contour>
  </outline>
</glyph>
<glyph name="otilde" format="2">
  <advance width="506"/>
  <unicode hex="00F5"/>
  <anchor x="253" y="667" name="aboveLC"/>
  <anchor x="253" y="-20" name="belowLC"/>
  <anchor x="363" y="442" name="hornLC"/>
  <anchor x="323" y="0" name="ogonek"/>
  <outline>
    <contour>
      <point x="253" y="-11" type="curve" smooth="yes"/>
      <point x="363" y="-11"/>
      <point x="466" y="66"/>
      <point x="466" y="217" type="curve" smooth="yes"/>
      <point x="466" y="368"/>
      <point x="361" y="449"/>
      <point x="253" y="449" type="curve" smooth="yes"/>
      <point x="143" y="449"/>
      <point x="39" y="368"/>
      <point x="39" y="217" type="curve" smooth="yes"/>
      <point x="39" y="66"/>
      <point x="141" y="-11"/>
    </contour>
    <contour>
      <point x="253" y="30" type="curve" smooth="yes"/>
      <point x="175" y="30"/>
      <point x="134" y="92"/>
      <point x="134" y="217" type="curve" smooth="yes"/>
      <point x="134" y="341"/>
      <point x="175" y="407"/>
      <point x="253" y="407" type="curve" smooth="yes"/>
      <point x="328" y="407"/>
      <point x="372" y="341"/>
      <point x="372" y="217" type="curve" smooth="yes"/>
      <point x="372" y="92"/>
      <point x="328" y="30"/>
    </contour>
    <contour>
      <point x="102" y="539" type="curve"/>
      <point x="127" y="529" type="line"/>
      <point x="140" y="574"/>
      <point x="157" y="601"/>
      <point x="184" y="601" type="curve" smooth="yes"/>
      <point x="209" y="601"/>
      <point x="228" y="577"/>
      <point x="248" y="558" type="curve" smooth="yes"/>
      <point x="266" y="540"/>
      <point x="286" y="528"/>
      <point x="315" y="528" type="curve" smooth="yes"/>
      <point x="367" y="528"/>
      <point x="393" y="575"/>
      <point x="404" y="647" type="curve"/>
      <point x="378" y="657" type="line"/>
      <point x="366" y="613"/>
      <point x="348" y="586"/>
      <point x="321" y="586" type="curve" smooth="yes"/>
      <point x="297" y="586"/>
      <point x="280" y="607"/>
      <point x="258" y="628" type="curve" smooth="yes"/>
      <point x="241" y="644"/>
      <point x="220" y="658"/>
      <point x="191" y="658" type="curve" smooth="yes"/>
      <point x="139" y="658"/>
      <point x="112" y="611"/>
    </contour>
  </outline>
</glyph>
<glyph name="odieresis" format="2">
  <advance width="506"/>
  <unicode hex="00F6"/>
  <anchor x="253" y="631" name="aboveLC"/>
  <anchor x="253" y="-20" name="belowLC"/>
  <anchor x="363" y="442" name="hornLC"/>
  <anchor x="323" y="0" name="ogonek"/>
  <outline>
    <contour>
      <point x="253" y="-11" type="curve" smooth="yes"/>
      <point x="363" y="-11"/>
      <point x="466" y="66"/>
      <point x="466" y="217" type="curve" smooth="yes"/>
      <point x="466" y="368"/>
      <point x="361" y="449"/>
      <point x="253" y="449" type="curve" smooth="yes"/>
      <point x="143" y="449"/>
      <point x="39" y="368"/>
      <point x="39" y="217" type="curve" smooth="yes"/>
      <point x="39" y="66"/>
      <point x="141" y="-11"/>
    </contour>
    <contour>
      <point x="253" y="30" type="curve" smooth="yes"/>
      <point x="175" y="30"/>
      <point x="134" y="92"/>
      <point x="134" y="217" type="curve" smooth="yes"/>
      <point x="134" y="341"/>
      <point x="175" y="407"/>
      <point x="253" y="407" type="curve" smooth="yes"/>
      <point x="328" y="407"/>
      <point x="372" y="341"/>
      <point x="372" y="217" type="curve" smooth="yes"/>
      <point x="372" y="92"/>
      <point x="328" y="30"/>
    </contour>
    <contour>
      <point x="155" y="546" type="curve" smooth="yes"/>
      <point x="185" y="546"/>
      <point x="212" y="568"/>
      <point x="212" y="599" type="curve" smooth="yes"/>
      <point x="212" y="631"/>
      <point x="185" y="654"/>
      <point x="155" y="654" type="curve" smooth="yes"/>
      <point x="125" y="654"/>
      <point x="99" y="631"/>
      <point x="99" y="599" type="curve" smooth="yes"/>
      <point x="99" y="568"/>
      <point x="125" y="546"/>
    </contour>
    <contour>
      <point x="351" y="546" type="curve" smooth="yes"/>
      <point x="381" y="546"/>
      <point x="407" y="568"/>
      <point x="407" y="599" type="curve" smooth="yes"/>
      <point x="407" y="631"/>
      <point x="381" y="654"/>
      <point x="351" y="654" type="curve" smooth="yes"/>
      <point x="321" y="654"/>
      <point x="294" y="631"/>
      <point x="294" y="599" type="curve" smooth="yes"/>
      <point x="294" y="568"/>
      <point x="321" y="546"/>
    </contour>
  </outline>
</glyph>
<glyph name="oslash" format="2">
  <advance width="506"/>
  <unicode hex="00F8"/>
  <anchor x="253" y="467" name="aboveLC"/>
  <outline>
    <contour>
      <point x="450" y="437" type="line"/>
      <point x="419" y="462" type="line"/>
      <point x="49" y="4" type="line"/>
      <point x="80" y="-20" type="line"/>
    </contour>
    <contour>
      <point x="253" y="-11" type="curve" smooth="yes"/>
      <point x="363" y="-11"/>
      <point x="466" y="66"/>
      <point x="466" y="217" type="curve" smooth="yes"/>
      <point x="466" y="368"/>
      <point x="361" y="449"/>
      <point x="253" y="449" type="curve" smooth="yes"/>
      <point x="143" y="449"/>
      <point x="39" y="368"/>
      <point x="39" y="217" type="curve" smooth="yes"/>
      <point x="39" y="66"/>
      <point x="141" y="-11"/>
    </contour>
    <contour>
      <point x="253" y="30" type="curve" smooth="yes"/>
      <point x="172" y="30"/>
      <point x="129" y="92"/>
      <point x="129" y="217" type="curve" smooth="yes"/>
      <point x="129" y="341"/>
      <point x="172" y="407"/>
      <point x="253" y="407" type="curve" smooth="yes"/>
      <point x="332" y="407"/>
      <point x="377" y="341"/>
      <point x="377" y="217" type="curve" smooth="yes"/>
      <point x="377" y="92"/>
      <point x="332" y="30"/>
    </contour>
  </outline>
</glyph>
<glyph name="ugrave" format="2">
  <advance width="539"/>
  <unicode hex="00F9"/>
  <anchor x="249" y="680" name="aboveLC"/>
  <anchor x="276" y="-20" name="belowLC"/>
  <anchor x="423" y="432" name="hornLC"/>
  <anchor x="455" y="0" name="ogonek"/>
  <outline>
    <contour>
      <point x="82" y="32"/>
      <point x="129" y="-11"/>
      <point x="204" y="-11" type="curve" smooth="yes"/>
      <point x="264" y="-11"/>
      <point x="325" y="18"/>
      <point x="375" y="87" type="curve"/>
      <point x="390" y="87" type="line"/>
      <point x="375" y="126" type="line"/>
      <point x="332" y="80"/>
      <point x="284" y="56"/>
      <point x="239" y="56" type="curve" smooth="yes"/>
      <point x="192" y="56"/>
      <point x="168" y="82"/>
      <point x="168" y="161" type="curve" smooth="yes"/>
      <point x="168" y="305" type="line"/>
      <point x="172" y="434" type="line"/>
      <point x="163" y="443" type="line"/>
      <point x="22" y="429" type="line"/>
      <point x="22" y="395" type="line"/>
      <point x="107" y="377" type="line"/>
      <point x="86" y="396" type="line"/>
      <point x="83" y="153" type="line" smooth="yes"/>
    </contour>
    <contour>
      <point x="374" y="-7" type="line"/>
      <point x="508" y="0" type="line"/>
      <point x="508" y="34" type="line"/>
      <point x="448" y="46" type="line"/>
      <point x="448" y="305" type="line"/>
      <point x="450" y="434" type="line"/>
      <point x="440" y="443" type="line"/>
      <point x="301" y="428" type="line"/>
      <point x="301" y="395" type="line"/>
      <point x="365" y="382" type="line"/>
      <point x="362" y="100" type="line"/>
    </contour>
    <contour>
      <point x="299" y="530" type="line"/>
      <point x="275" y="572"/>
      <point x="250" y="612"/>
      <point x="219" y="659" type="curve" smooth="yes"/>
      <point x="201" y="689"/>
      <point x="185" y="699"/>
      <point x="167" y="699" type="curve" smooth="yes"/>
      <point x="149" y="699"/>
      <point x="130" y="687"/>
      <point x="130" y="662" type="curve" smooth="yes"/>
      <point x="130" y="647"/>
      <point x="138" y="632"/>
      <point x="164" y="609" type="curve" smooth="yes"/>
      <point x="204" y="574"/>
      <point x="239" y="543"/>
      <point x="275" y="511" type="curve"/>
    </contour>
  </outline>
</glyph>
<glyph name="udieresis" format="2">
  <advance width="539"/>
  <unicode hex="00FC"/>
  <anchor x="270" y="631" name="aboveLC"/>
  <anchor x="276" y="-20" name="belowLC"/>
  <anchor x="423" y="432" name="hornLC"/>
  <anchor x="455" y="0" name="ogonek"/>
  <outline>
    <contour>
      <point x="82" y="32"/>
      <point x="129" y="-11"/>
      <point x="204" y="-11" type="curve" smooth="yes"/>
      <point x="264" y="-11"/>
      <point x="325" y="18"/>
      <point x="375" y="87" type="curve"/>
      <point x="390" y="87" type="line"/>
      <point x="375" y="126" type="line"/>
      <point x="332" y="80"/>
      <point x="284" y="56"/>
      <point x="239" y="56" type="curve" smooth="yes"/>
      <point x="192" y="56"/>
      <point x="168" y="82"/>
      <point x="168" y="161" type="curve" smooth="yes"/>
      <point x="168" y="305" type="line"/>
      <point x="172" y="434" type="line"/>
      <point x="163" y="443" type="line"/>
      <point x="22" y="429" type="line"/>
      <point x="22" y="395" type="line"/>
      <point x="107" y="377" type="line"/>
      <point x="86" y="396" type="line"/>
      <point x="83" y="153" type="line" smooth="yes"/>
    </contour>
    <contour>
      <point x="374" y="-7" type="line"/>
      <point x="508" y="0" type="line"/>
      <point x="508" y="34" type="line"/>
      <point x="448" y="46" type="line"/>
      <point x="448" y="305" type="line"/>
      <point x="450" y="434" type="line"/>
      <point x="440" y="443" type="line"/>
      <point x="301" y="428" type="line"/>
      <point x="301" y="395" type="line"/>
      <point x="365" y="382" type="line"/>
      <point x="362" y="100" type="line"/>
    </contour>
    <contour>
      <point x="172" y="546" type="curve" smooth="yes"/>
      <point x="203" y="546"/>
      <point x="229" y="568"/>
      <point x="229" y="599" type="curve" smooth="yes"/>
      <point x="229" y="631"/>
      <point x="203" y="654"/>
      <point x="172" y="654" type="curve" smooth="yes"/>
      <point x="141" y="654"/>
      <point x="116" y="631"/>
      <point x="116" y="599" type="curve" smooth="yes"/>
      <point x="116" y="568"/>
      <point x="141" y="546"/>
    </contour>
    <contour>
      <point x="368" y="546" type="curve" smooth="yes"/>
      <point x="399" y="546"/>
      <point x="425" y="568"/>
      <point x="425" y="599" type="curve" smooth="yes"/>
      <point x="425" y="631"/>
      <point x="399" y="654"/>
      <point x="368" y="654" type="curve" smooth="yes"/>
      <point x="337" y="654"/>
      <point x="311" y="631"/>
      <point x="311" y="599" type="curve" smooth="yes"/>
      <point x="311" y="568"/>
      <point x="337" y="546"/>
    </contour>
  </outline>
</glyph>
<glyph name="yacute" format="2">
  <advance width="473"/>
  <unicode hex="00FD"/>
  <anchor x="284" y="699" name="aboveLC"/>
  <anchor x="115" y="-232" name="belowLC"/>
  <outline>
    <contour>
      <point x="85" y="-228" type="curve" smooth="yes"/>
      <point x="162" y="-228"/>
      <point x="212" y="-159"/>
      <point x="272" y="0" type="curve" smooth="yes"/>
      <point x="439" y="437" type="line"/>
      <point x="388" y="437" type="line"/>
      <point x="250" y="54" type="line"/>
      <point x="218" y="-34" type="line" smooth="yes"/>
      <point x="195" y="-99"/>
      <point x="158" y="-160"/>
      <point x="99" y="-190" type="curve"/>
      <point x="125" y="-209" type="line"/>
      <point x="161" y="-190" type="line"/>
      <point x="132" y="-159" type="line" smooth="yes"/>
      <point x="107" y="-132"/>
      <point x="87" y="-124"/>
      <point x="63" y="-124" type="curve" smooth="yes"/>
      <point x="34" y="-124"/>
      <point x="6" y="-138"/>
      <point x="0" y="-165" type="curve"/>
      <point x="0" y="-202"/>
      <point x="39" y="-228"/>
    </contour>
    <contour>
      <point x="231" y="-49" type="line"/>
      <point x="274" y="53" type="line"/>
      <point x="267" y="71" type="line"/>
      <point x="132" y="437" type="line"/>
      <point x="35" y="437" type="line"/>
    </contour>
    <contour>
      <point x="2" y="403" type="line"/>
      <point x="92" y="390" type="line"/>
      <point x="122" y="390" type="line"/>
      <point x="228" y="402" type="line"/>
      <point x="228" y="437" type="line"/>
      <point x="2" y="437" type="line"/>
    </contour>
    <contour>
      <point x="293" y="403" type="line"/>
      <point x="388" y="390" type="line"/>
      <point x="406" y="390" type="line"/>
      <point x="472" y="403" type="line"/>
      <point x="472" y="437" type="line"/>
      <point x="293" y="437" type="line"/>
    </contour>
    <contour>
      <point x="229" y="530" type="curve"/>
      <point x="253" y="511" type="line"/>
      <point x="290" y="543"/>
      <point x="324" y="574"/>
      <point x="364" y="609" type="curve" smooth="yes"/>
      <point x="391" y="632"/>
      <point x="398" y="647"/>
      <point x="398" y="662" type="curve" smooth="yes"/>
      <point x="398" y="687"/>
      <point x="380" y="699"/>
      <point x="361" y="699" type="curve" smooth="yes"/>
      <point x="344" y="699"/>
      <point x="328" y="689"/>
      <point x="309" y="658" type="curve" smooth="yes"/>
      <point x="278" y="612"/>
      <point x="253" y="572"/>
    </contour>
  </outline>
</glyph>
<glyph name="thorn" format="2">
  <advance width="514"/>
  <unicode hex="00FE"/>
  <anchor x="241" y="677" name="aboveLC"/>
  <anchor x="341" y="-5" name="belowLC"/>
  <outline>
    <contour>
      <point x="384" y="215" type="curve" smooth="yes"/>
      <point x="384" y="98"/>
      <point x="330" y="42"/>
      <point x="265" y="42" type="curve" smooth="yes"/>
      <point x="222" y="42"/>
      <point x="175" y="68"/>
      <point x="129" y="127" type="curve"/>
      <point x="121" y="112" type="line"/>
      <point x="168" y="16"/>
      <point x="224" y="-11"/>
      <point x="285" y="-11" type="curve" smooth="yes"/>
      <point x="391" y="-11"/>
      <point x="474" y="80"/>
      <point x="474" y="222" type="curve" smooth="yes"/>
      <point x="474" y="366"/>
      <point x="397" y="449"/>
      <point x="299" y="449" type="curve" smooth="yes"/>
      <point x="233" y="449"/>
      <point x="173" y="413"/>
      <point x="120" y="329" type="curve"/>
      <point x="128" y="312" type="line"/>
      <point x="189" y="374"/>
      <point x="234" y="394"/>
      <point x="269" y="394" type="curve" smooth="yes"/>
      <point x="337" y="394"/>
      <point x="384" y="333"/>
    </contour>
    <contour>
      <point x="138" y="-166" type="line"/>
      <point x="108" y="-166" type="line"/>
      <point x="7" y="-184" type="line"/>
      <point x="7" y="-218" type="line"/>
      <point x="245" y="-218" type="line"/>
      <point x="245" y="-184" type="line"/>
    </contour>
    <contour>
      <point x="165" y="357" type="line"/>
      <point x="162" y="369" type="line"/>
      <point x="162" y="540" type="line"/>
      <point x="166" y="670" type="line"/>
      <point x="152" y="678" type="line"/>
      <point x="7" y="637" type="line"/>
      <point x="7" y="604" type="line"/>
      <point x="80" y="595" type="line"/>
      <point x="80" y="-23" type="line" smooth="yes"/>
      <point x="80" y="-87"/>
      <point x="79" y="-151"/>
      <point x="77" y="-218" type="curve"/>
      <point x="165" y="-218" type="line"/>
      <point x="163" y="-151"/>
      <point x="162" y="-87"/>
      <point x="162" y="-23" type="curve" smooth="yes"/>
      <point x="162" y="66" type="line"/>
      <point x="165" y="72" type="line"/>
    </contour>
  </outline>
</glyph>
<glyph name="dotlessi" format="2">
  <advance width="276"/>
  <unicode hex="0131"/>
  <anchor x="137" y="467" name="aboveLC"/>
  <anchor x="138" y="-20" name="belowLC"/>
  <anchor x="173" y="0" name="ogonek"/>
  <outline>
    <contour>
      <point x="97" y="0" type="curve"/>
      <point x="187" y="0" type="line"/>
      <point x="185" y="41"/>
      <point x="184" y="136"/>
      <point x="184" y="193" type="curve" smooth="yes"/>
      <point x="184" y="314" type="line"/>
      <point x="187" y="440" type="line"/>
      <point x="173" y="449" type="line"/>
      <point x="26" y="393" type="line"/>
      <point x="26" y="360" type="line"/>
      <point x="97" y="352" type="line"/>
      <point x="99" y="315"/>
      <point x="100" y="287"/>
      <point x="100" y="236" type="curve" smooth="yes"/>
      <point x="100" y="193" type="line" smooth="yes"/>
      <point x="100" y="136"/>
      <point x="99" y="41"/>
    </contour>
    <contour>
      <point x="31" y="0" type="line"/>
      <point x="248" y="0" type="line"/>
      <point x="248" y="34" type="line"/>
      <point x="156" y="52" type="line"/>
      <point x="129" y="52" type="line"/>
      <point x="31" y="34" type="line"/>
    </contour>
  </outline>
</glyph>
<glyph name="OE" format="2">
  <advance width="862"/>
  <unicode hex="0152"/>
  <anchor x="474" y="634" name="aboveUC"/>
  <outline>
    <contour>
      <point x="149" y="307" type="curve" smooth="yes"/>
      <point x="149" y="451"/>
      <point x="207" y="581"/>
      <point x="359" y="581" type="curve" smooth="yes"/>
      <point x="402" y="581"/>
      <point x="429" y="576"/>
      <point x="471" y="557" type="curve"/>
      <point x="471" y="614" type="line"/>
      <point x="423" y="623"/>
      <point x="382" y="629"/>
      <point x="352" y="629" type="curve" smooth="yes"/>
      <point x="182" y="629"/>
      <point x="42" y="513"/>
      <point x="42" y="307" type="curve" smooth="yes"/>
      <point x="42" y="101"/>
      <point x="182" y="-14"/>
      <point x="352" y="-14" type="curve" smooth="yes"/>
      <point x="383" y="-14"/>
      <point x="423" y="-9"/>
      <point x="471" y="0" type="curve"/>
      <point x="471" y="57" type="line"/>
      <point x="429" y="37"/>
      <point x="402" y="33"/>
      <point x="359" y="33" type="curve" smooth="yes"/>
      <point x="207" y="33"/>
      <point x="149" y="162"/>
    </contour>
    <contour>
      <point x="431" y="285" type="line" smooth="yes"/>
      <point x="431" y="188"/>
      <point x="431" y="92"/>
      <point x="428" y="0" type="curve"/>
      <point x="529" y="0" type="line"/>
      <point x="526" y="94"/>
      <point x="526" y="190"/>
      <point x="526" y="295" type="curve" smooth="yes"/>
      <point x="526" y="329" type="line" smooth="yes"/>
      <point x="526" y="425"/>
      <point x="526" y="521"/>
      <point x="529" y="614" type="curve"/>
      <point x="428" y="614" type="line"/>
      <point x="431" y="519"/>
      <point x="431" y="424"/>
      <point x="431" y="329" type="curve" smooth="yes"/>
    </contour>
    <contour>
      <point x="655" y="308" type="line"/>
      <point x="669" y="207" type="line"/>
      <point x="713" y="207" type="line"/>
      <point x="713" y="422" type="line"/>
      <point x="669" y="422" type="line"/>
      <point x="655" y="325" type="line"/>
    </contour>
    <contour>
      <point x="685" y="336" type="line"/>
      <point x="479" y="336" type="line"/>
      <point x="479" y="292" type="line"/>
      <point x="685" y="292" type="line"/>
    </contour>
    <contour>
      <point x="757" y="451" type="line"/>
      <point x="812" y="451" type="line"/>
      <point x="805" y="614" type="line"/>
      <point x="479" y="614" type="line"/>
      <point x="479" y="567" type="line"/>
      <point x="736" y="567" type="line"/>
    </contour>
    <contour>
      <point x="775" y="162" type="line"/>
      <point x="755" y="46" type="line"/>
      <point x="479" y="46" type="line"/>
      <point x="479" y="0" type="line"/>
      <point x="824" y="0" type="line"/>
      <point x="830" y="162" type="line"/>
    </contour>
  </outline>
</glyph>
<glyph name="oe" format="2">
  <advance width="797"/>
  <unicode hex="0153"/>
  <anchor x="417" y="467" name="aboveLC"/>
  <outline>
    <contour>
      <point x="253" y="407" type="curve" smooth="yes"/>
      <point x="329" y="407"/>
      <point x="372" y="340"/>
      <point x="372" y="215" type="curve" smooth="yes"/>
      <point x="372" y="91"/>
      <point x="329" y="30"/>
      <point x="253" y="30" type="curve" smooth="yes"/>
      <point x="176" y="30"/>
      <point x="134" y="93"/>
      <point x="134" y="218" type="curve" smooth="yes"/>
      <point x="134" y="342"/>
      <point x="176" y="407"/>
    </contour>
    <contour>
      <point x="439" y="116" type="curve"/>
      <point x="393" y="116" type="line"/>
      <point x="421" y="35"/>
      <point x="485" y="-11"/>
      <point x="576" y="-11" type="curve" smooth="yes"/>
      <point x="658" y="-11"/>
      <point x="719" y="24"/>
      <point x="755" y="94" type="curve"/>
      <point x="732" y="113" type="line"/>
      <point x="704" y="78"/>
      <point x="663" y="50"/>
      <point x="606" y="50" type="curve" smooth="yes"/>
      <point x="517" y="50"/>
      <point x="459" y="111"/>
      <point x="459" y="223" type="curve" smooth="yes"/>
      <point x="459" y="358"/>
      <point x="522" y="407"/>
      <point x="576" y="407" type="curve" smooth="yes"/>
      <point x="633" y="407"/>
      <point x="673" y="362"/>
      <point x="673" y="309" type="curve" smooth="yes"/>
      <point x="673" y="277"/>
      <point x="661" y="260"/>
      <point x="619" y="260" type="curve" smooth="yes"/>
      <point x="409" y="260" type="line"/>
      <point x="409" y="219" type="line"/>
      <point x="750" y="219" type="line"/>
      <point x="754" y="232"/>
      <point x="756" y="250"/>
      <point x="756" y="270" type="curve" smooth="yes"/>
      <point x="756" y="382"/>
      <point x="682" y="449"/>
      <point x="582" y="449" type="curve" smooth="yes"/>
      <point x="506" y="449"/>
      <point x="429" y="400"/>
      <point x="400" y="324" type="curve"/>
      <point x="438" y="324" type="line"/>
      <point x="408" y="402"/>
      <point x="327" y="449"/>
      <point x="253" y="449" type="curve" smooth="yes"/>
      <point x="144" y="449"/>
      <point x="39" y="368"/>
      <point x="39" y="218" type="curve" smooth="yes"/>
      <point x="39" y="67"/>
      <point x="142" y="-11"/>
      <point x="253" y="-11" type="curve" smooth="yes"/>
      <point x="329" y="-11"/>
      <point x="407" y="34"/>
    </contour>
  </outline>
</glyph>
<glyph name="Zcaron" format="2">
  <advance width="507"/>
  <unicode hex="017D"/>
  <anchor x="257" y="791" name="aboveUC"/>
  <anchor x="261" y="-20" name="belowLC"/>
  <outline>
    <contour>
      <point x="18" y="0" type="line"/>
      <point x="482" y="0" type="line"/>
      <point x="489" y="164" type="line"/>
      <point x="431" y="164" type="line"/>
      <point x="401" y="20" type="line"/>
      <point x="434" y="46" type="line"/>
      <point x="101" y="46" type="line"/>
      <point x="115" y="23" type="line"/>
      <point x="471" y="580" type="line"/>
      <point x="471" y="614" type="line"/>
      <point x="34" y="614" type="line"/>
      <point x="27" y="449" type="line"/>
      <point x="85" y="449" type="line"/>
      <point x="115" y="594" type="line"/>
      <point x="82" y="567" type="line"/>
      <point x="388" y="567" type="line"/>
      <point x="375" y="590" type="line"/>
      <point x="18" y="34" type="line"/>
    </contour>
    <contour>
      <point x="149" y="800" type="line"/>
      <point x="126" y="780" type="line"/>
      <point x="222" y="667" type="line"/>
      <point x="292" y="667" type="line"/>
      <point x="388" y="780" type="line"/>
      <point x="366" y="800" type="line"/>
      <point x="218" y="693" type="line"/>
      <point x="296" y="693" type="line"/>
    </contour>
  </outline>
</glyph>
<glyph name="florin" format="2">
  <advance width="463"/>
  <unicode hex="0192"/>
  <outline>
    <contour>
      <point x="94" y="316" type="line"/>
      <point x="395" y="316" type="line"/>
      <point x="395" y="363" type="line"/>
      <point x="94" y="363" type="line"/>
    </contour>
    <contour>
      <point x="278" y="322" type="line" smooth="yes"/>
      <point x="287" y="432"/>
      <point x="288" y="486"/>
      <point x="312" y="529" type="curve" smooth="yes"/>
      <point x="324" y="549"/>
      <point x="343" y="565"/>
      <point x="371" y="576" type="curve"/>
      <point x="339" y="575" type="line"/>
      <point x="368" y="541" type="line" smooth="yes"/>
      <point x="389" y="517"/>
      <point x="409" y="509"/>
      <point x="431" y="509" type="curve" smooth="yes"/>
      <point x="461" y="509"/>
      <point x="479" y="527"/>
      <point x="483" y="552" type="curve"/>
      <point x="473" y="582"/>
      <point x="437" y="605"/>
      <point x="385" y="605" type="curve" smooth="yes"/>
      <point x="346" y="605"/>
      <point x="303" y="589"/>
      <point x="273" y="559" type="curve" smooth="yes"/>
      <point x="224" y="510"/>
      <point x="207" y="443"/>
      <point x="197" y="326" type="curve" smooth="yes"/>
      <point x="186" y="198" type="line" smooth="yes"/>
      <point x="176" y="86"/>
      <point x="176" y="26"/>
      <point x="151" y="-16" type="curve" smooth="yes"/>
      <point x="139" y="-36"/>
      <point x="122" y="-53"/>
      <point x="93" y="-64" type="curve"/>
      <point x="126" y="-63" type="line"/>
      <point x="96" y="-29" type="line" smooth="yes"/>
      <point x="76" y="-4"/>
      <point x="56" y="2"/>
      <point x="33" y="2" type="curve" smooth="yes"/>
      <point x="2" y="2"/>
      <point x="-15" y="-14"/>
      <point x="-19" y="-40" type="curve"/>
      <point x="-10" y="-69"/>
      <point x="26" y="-92"/>
      <point x="79" y="-92" type="curve" smooth="yes"/>
      <point x="118" y="-92"/>
      <point x="159" y="-79"/>
      <point x="193" y="-44" type="curve" smooth="yes"/>
      <point x="241" y="3"/>
      <point x="256" y="78"/>
      <point x="269" y="213" type="curve" smooth="yes"/>
    </contour>
  </outline>
</glyph>
<glyph name="circumflex" format="2">
  <advance width="297"/>
  <unicode hex="02C6"/>
  <anchor x="148" y="467" name="_aboveLC"/>
  <anchor x="148" y="678" name="aboveLC"/>
  <outline>
    <contour>
      <point x="264" y="502" type="line"/>
      <point x="287" y="523" type="line"/>
      <point x="165" y="685" type="line"/>
      <point x="131" y="685" type="line"/>
      <point x="9" y="523" type="line"/>
      <point x="32" y="502" type="line"/>
      <point x="187" y="641" type="line"/>
      <point x="109" y="641" type="line"/>
    </contour>
  </outline>
</glyph>
<glyph name="colontriangularmod" format="2">
  <advance width="276"/>
  <unicode hex="02D0"/>
  <outline>
    <contour>
      <point x="62" y="442" type="line"/>
      <point x="134" y="319" type="line"/>
      <point x="141" y="319" type="line"/>
      <point x="213" y="442" type="line"/>
      <point x="208" y="449" type="line"/>
      <point x="67" y="449" type="line"/>
    </contour>
    <contour>
      <point x="62" y="7" type="line"/>
      <point x="67" y="0" type="line"/>
      <point x="208" y="0" type="line"/>
      <point x="213" y="7" type="line"/>
      <point x="141" y="129" type="line"/>
      <point x="134" y="129" type="line"/>
    </contour>
  </outline>
</glyph>
<glyph name="dotaccent" format="2">
  <advance width="368"/>
  <unicode hex="02D9"/>
  <anchor x="184" y="467" name="_aboveLC"/>
  <anchor x="184" y="653" name="aboveLC"/>
  <outline>
    <contour>
      <point x="184" y="540" type="curve" smooth="yes"/>
      <point x="219" y="540"/>
      <point x="247" y="564"/>
      <point x="247" y="599" type="curve" smooth="yes"/>
      <point x="247" y="635"/>
      <point x="219" y="660"/>
      <point x="184" y="660" type="curve" smooth="yes"/>
      <point x="148" y="660"/>
      <point x="120" y="635"/>
      <point x="120" y="599" type="curve" smooth="yes"/>
      <point x="120" y="564"/>
      <point x="148" y="540"/>
    </contour>
  </outline>
</glyph>
<glyph name="ring" format="2">
  <advance width="368"/>
  <unicode hex="02DA"/>
  <anchor x="184" y="467" name="_aboveLC"/>
  <anchor x="184" y="704" name="aboveLC"/>
  <outline>
    <contour>
      <point x="184" y="543" type="curve" smooth="yes"/>
      <point x="149" y="543"/>
      <point x="131" y="573"/>
      <point x="131" y="601" type="curve" smooth="yes"/>
      <point x="131" y="630"/>
      <point x="150" y="657"/>
      <point x="184" y="657" type="curve" smooth="yes"/>
      <point x="218" y="657"/>
      <point x="236" y="630"/>
      <point x="236" y="601" type="curve" smooth="yes"/>
      <point x="236" y="573"/>
      <point x="217" y="543"/>
    </contour>
    <contour>
      <point x="184" y="506" type="curve" smooth="yes"/>
      <point x="234" y="506"/>
      <point x="282" y="541"/>
      <point x="282" y="601" type="curve" smooth="yes"/>
      <point x="282" y="662"/>
      <point x="234" y="695"/>
      <point x="184" y="695" type="curve" smooth="yes"/>
      <point x="133" y="695"/>
      <point x="85" y="659"/>
      <point x="85" y="601" type="curve" smooth="yes"/>
      <point x="85" y="540"/>
      <point x="133" y="506"/>
    </contour>
  </outline>
</glyph>
<glyph name="tilde" format="2">
  <advance width="368"/>
  <unicode hex="02DC"/>
  <anchor x="185" y="467" name="_aboveLC"/>
  <anchor x="185" y="667" name="aboveLC"/>
  <outline>
    <contour>
      <point x="34" y="539" type="curve"/>
      <point x="60" y="529" type="line"/>
      <point x="73" y="574"/>
      <point x="90" y="601"/>
      <point x="117" y="601" type="curve" smooth="yes"/>
      <point x="142" y="601"/>
      <point x="161" y="577"/>
      <point x="180" y="558" type="curve" smooth="yes"/>
      <point x="199" y="540"/>
      <point x="218" y="528"/>
      <point x="248" y="528" type="curve" smooth="yes"/>
      <point x="299" y="528"/>
      <point x="326" y="575"/>
      <point x="336" y="647" type="curve"/>
      <point x="310" y="657" type="line"/>
      <point x="298" y="613"/>
      <point x="281" y="586"/>
      <point x="253" y="586" type="curve" smooth="yes"/>
      <point x="229" y="586"/>
      <point x="212" y="607"/>
      <point x="191" y="628" type="curve" smooth="yes"/>
      <point x="172" y="644"/>
      <point x="153" y="658"/>
      <point x="123" y="658" type="curve" smooth="yes"/>
      <point x="72" y="658"/>
      <point x="45" y="611"/>
    </contour>
  </outline>
</glyph>
<glyph name="endash" format="2">
  <advance width="473"/>
  <unicode hex="2013"/>
  <outline>
    <contour>
      <point x="36" y="199" type="line"/>
      <point x="437" y="199" type="line"/>
      <point x="437" y="263" type="line"/>
      <point x="36" y="263" type="line"/>
    </contour>
  </outline>
</glyph>
<glyph name="emdash" format="2">
  <advance width="749"/>
  <unicode hex="2014"/>
  <outline>
    <contour>
      <point x="36" y="199" type="line"/>
      <point x="713" y="199" type="line"/>
      <point x="713" y="263" type="line"/>
      <point x="36" y="263" type="line"/>
    </contour>
  </outline>
</glyph>
<glyph name="quoteright" format="2">
  <advance width="273"/>
  <unicode hex="2019"/>
  <outline>
    <contour>
      <point x="68" y="348" type="line"/>
      <point x="142" y="376"/>
      <point x="177" y="431"/>
      <point x="177" y="497" type="curve" smooth="yes"/>
      <point x="177" y="550"/>
      <point x="155" y="578"/>
      <point x="116" y="578" type="curve" smooth="yes"/>
      <point x="85" y="578"/>
      <point x="62" y="554"/>
      <point x="62" y="523" type="curve" smooth="yes"/>
      <point x="62" y="492"/>
      <point x="81" y="472"/>
      <point x="104" y="472" type="curve" smooth="yes"/>
      <point x="127" y="472"/>
      <point x="152" y="490"/>
      <point x="152" y="513" type="curve"/>
      <point x="147" y="513"/>
      <point x="125" y="513"/>
      <point x="118" y="513" type="curve"/>
      <point x="123" y="504"/>
      <point x="128" y="491"/>
      <point x="128" y="465" type="curve" smooth="yes"/>
      <point x="128" y="423"/>
      <point x="94" y="400"/>
      <point x="60" y="383" type="curve"/>
    </contour>
  </outline>
</glyph>
<glyph name="quotedblright" format="2">
  <advance width="364"/>
  <unicode hex="201D"/>
  <outline>
    <contour>
      <point x="162" y="510" type="curve" smooth="yes"/>
      <point x="162" y="429"/>
      <point x="109" y="381"/>
      <point x="29" y="358" type="curve"/>
      <point x="29" y="399" type="line"/>
      <point x="65" y="411"/>
      <point x="100" y="428"/>
      <point x="100" y="463" type="curve" smooth="yes"/>
      <point x="100" y="472"/>
      <point x="92" y="477"/>
      <point x="85" y="481" type="curve"/>
      <point x="81" y="484"/>
      <point x="78" y="486"/>
      <point x="75" y="487" type="curve"/>
      <point x="62" y="495"/>
      <point x="46" y="506"/>
      <point x="46" y="531" type="curve" smooth="yes"/>
      <point x="46" y="563"/>
      <point x="70" y="580"/>
      <point x="99" y="580" type="curve" smooth="yes"/>
      <point x="140" y="580"/>
      <point x="162" y="547"/>
    </contour>
    <contour>
      <point x="330" y="510" type="curve" smooth="yes"/>
      <point x="330" y="429"/>
      <point x="278" y="381"/>
      <point x="198" y="358" type="curve"/>
      <point x="198" y="399" type="line"/>
      <point x="233" y="411"/>
      <point x="268" y="428"/>
      <point x="268" y="463" type="curve" smooth="yes"/>
      <point x="268" y="472"/>
      <point x="261" y="477"/>
      <point x="253" y="481" type="curve"/>
      <point x="244" y="487" type="line"/>
      <point x="229" y="495"/>
      <point x="214" y="506"/>
      <point x="214" y="531" type="curve" smooth="yes"/>
      <point x="214" y="563"/>
      <point x="238" y="580"/>
      <point x="267" y="580" type="curve" smooth="yes"/>
      <point x="308" y="580"/>
      <point x="330" y="547"/>
    </contour>
  </outline>
</glyph>
<glyph name="guilsinglleft" format="2">
  <advance width="266"/>
  <unicode hex="2039"/>
  <outline>
    <contour>
      <point x="218" y="44" type="line"/>
      <point x="241" y="69" type="line"/>
      <point x="86" y="253" type="line"/>
      <point x="86" y="211" type="line"/>
      <point x="241" y="394" type="line"/>
      <point x="218" y="420" type="line"/>
      <point x="26" y="257" type="line"/>
      <point x="26" y="207" type="line"/>
    </contour>
  </outline>
</glyph>
<glyph name="partialdiff" format="2">
  <advance width="490"/>
  <unicode hex="2202"/>
  <outline>
    <contour>
      <point x="208" y="-12" type="curve" smooth="yes"/>
      <point x="353" y="-12"/>
      <point x="461" y="138"/>
      <point x="461" y="358" type="curve" smooth="yes"/>
      <point x="461" y="519"/>
      <point x="365" y="600"/>
      <point x="262" y="600" type="curve" smooth="yes"/>
      <point x="208" y="600"/>
      <point x="163" y="586"/>
      <point x="125" y="565" type="curve"/>
      <point x="135" y="530" type="line"/>
      <point x="173" y="545"/>
      <point x="195" y="552"/>
      <point x="226" y="552" type="curve" smooth="yes"/>
      <point x="308" y="552"/>
      <point x="370" y="500"/>
      <point x="370" y="353" type="curve" smooth="yes"/>
      <point x="370" y="153"/>
      <point x="295" y="29"/>
      <point x="218" y="29" type="curve" smooth="yes"/>
      <point x="175" y="29"/>
      <point x="144" y="69"/>
      <point x="144" y="140" type="curve" smooth="yes"/>
      <point x="144" y="261"/>
      <point x="212" y="330"/>
      <point x="281" y="330" type="curve" smooth="yes"/>
      <point x="322" y="330"/>
      <point x="353" y="316"/>
      <point x="384" y="289" type="curve"/>
      <point x="392" y="316" type="line"/>
      <point x="365" y="356"/>
      <point x="321" y="376"/>
      <point x="265" y="376" type="curve" smooth="yes"/>
      <point x="149" y="376"/>
      <point x="52" y="284"/>
      <point x="52" y="152" type="curve" smooth="yes"/>
      <point x="52" y="45"/>
      <point x="121" y="-12"/>
    </contour>
  </outline>
</glyph>
<glyph name="Delta" format="2">
  <advance width="546"/>
  <unicode hex="2206"/>
  <outline>
    <contour>
      <point x="25" y="0" type="line"/>
      <point x="55" y="0" type="line"/>
      <point x="260" y="549" type="line"/>
      <point x="237" y="541" type="line"/>
      <point x="437" y="0" type="line"/>
      <point x="519" y="0" type="line"/>
      <point x="519" y="43" type="line"/>
      <point x="303" y="618" type="line"/>
      <point x="241" y="618" type="line"/>
      <point x="25" y="43" type="line"/>
    </contour>
    <contour>
      <point x="46" y="0" type="line"/>
      <point x="476" y="0" type="line"/>
      <point x="476" y="76" type="line"/>
      <point x="46" y="76" type="line"/>
    </contour>
  </outline>
</glyph>
<glyph name="summation" format="2">
  <advance width="517"/>
  <unicode hex="2211"/>
  <outline>
    <contour>
      <point x="422" y="449" type="line"/>
      <point x="480" y="449" type="line"/>
      <point x="472" y="614" type="line"/>
      <point x="68" y="614" type="line"/>
      <point x="68" y="567" type="line"/>
      <point x="440" y="567" type="line"/>
      <point x="387" y="614" type="line"/>
    </contour>
    <contour>
      <point x="18" y="-118" type="line"/>
      <point x="492" y="-118" type="line"/>
      <point x="499" y="78" type="line"/>
      <point x="440" y="78" type="line"/>
      <point x="405" y="-86" type="line"/>
      <point x="460" y="-39" type="line"/>
      <point x="66" y="-39" type="line"/>
      <point x="80" y="-62" type="line"/>
      <point x="328" y="267" type="line"/>
      <point x="108" y="614" type="line"/>
      <point x="23" y="614" type="line"/>
      <point x="23" y="572" type="line"/>
      <point x="265" y="192" type="line"/>
      <point x="285" y="298" type="line"/>
      <point x="18" y="-59" type="line"/>
    </contour>
  </outline>
</glyph>
<glyph name="bulletoperator" format="2">
  <advance width="276"/>
  <unicode hex="2219"/>
  <outline>
    <contour>
      <point x="138" y="237" type="curve" smooth="yes"/>
      <point x="175" y="237"/>
      <point x="205" y="267"/>
      <point x="205" y="304" type="curve" smooth="yes"/>
      <point x="205" y="341"/>
      <point x="175" y="372"/>
      <point x="138" y="372" type="curve" smooth="yes"/>
      <point x="100" y="372"/>
      <point x="70" y="341"/>
      <point x="70" y="304" type="curve" smooth="yes"/>
      <point x="70" y="267"/>
      <point x="100" y="237"/>
    </contour>
  </outline>
</glyph>
<glyph name="infinity" format="2">
  <advance width="723"/>
  <unicode hex="221E"/>
  <outline>
    <contour>
      <point x="333" y="264" type="curve" smooth="yes"/>
      <point x="382" y="199"/>
      <point x="441" y="138"/>
      <point x="529" y="138" type="curve" smooth="yes"/>
      <point x="623" y="138"/>
      <point x="687" y="210"/>
      <point x="687" y="307" type="curve" smooth="yes"/>
      <point x="687" y="400"/>
      <point x="625" y="465"/>
      <point x="544" y="465" type="curve" smooth="yes"/>
      <point x="478" y="465"/>
      <point x="415" y="426"/>
      <point x="359" y="324" type="curve"/>
      <point x="374" y="293" type="line"/>
      <point x="433" y="369"/>
      <point x="466" y="402"/>
      <point x="535" y="402" type="curve" smooth="yes"/>
      <point x="593" y="402"/>
      <point x="639" y="362"/>
      <point x="639" y="303" type="curve" smooth="yes"/>
      <point x="639" y="252"/>
      <point x="605" y="215"/>
      <point x="547" y="215" type="curve" smooth="yes"/>
      <point x="489" y="215"/>
      <point x="440" y="273"/>
      <point x="390" y="339" type="curve" smooth="yes"/>
      <point x="339" y="403"/>
      <point x="281" y="465"/>
      <point x="193" y="465" type="curve" smooth="yes"/>
      <point x="98" y="465"/>
      <point x="35" y="392"/>
      <point x="35" y="296" type="curve" smooth="yes"/>
      <point x="35" y="202"/>
      <point x="97" y="138"/>
      <point x="178" y="138" type="curve" smooth="yes"/>
      <point x="244" y="138"/>
      <point x="306" y="176"/>
      <point x="363" y="278" type="curve"/>
      <point x="348" y="310" type="line"/>
      <point x="289" y="233"/>
      <point x="256" y="199"/>
      <point x="187" y="199" type="curve" smooth="yes"/>
      <point x="129" y="199"/>
      <point x="83" y="240"/>
      <point x="83" y="299" type="curve" smooth="yes"/>
      <point x="83" y="351"/>
      <point x="117" y="388"/>
      <point x="175" y="388" type="curve" smooth="yes"/>
      <point x="232" y="388"/>
      <point x="282" y="330"/>
    </contour>
  </outline>
</glyph>
<glyph name="integral" format="2">
  <advance width="332"/>
  <unicode hex="222B"/>
  <outline>
    <contour>
      <point x="138" y="-4" type="curve" smooth="yes"/>
      <point x="138" y="-108"/>
      <point x="109" y="-173"/>
      <point x="44" y="-199" type="curve"/>
      <point x="79" y="-197" type="line"/>
      <point x="51" y="-164" type="line" smooth="yes"/>
      <point x="31" y="-141"/>
      <point x="11" y="-133"/>
      <point x="-8" y="-133" type="curve" smooth="yes"/>
      <point x="-39" y="-133"/>
      <point x="-57" y="-151"/>
      <point x="-61" y="-178" type="curve"/>
      <point x="-52" y="-206"/>
      <point x="-21" y="-228"/>
      <point x="25" y="-228" type="curve" smooth="yes"/>
      <point x="110" y="-228"/>
      <point x="218" y="-163"/>
      <point x="218" y="32" type="curve" smooth="yes"/>
      <point x="218" y="177"/>
      <point x="189" y="337"/>
      <point x="189" y="483" type="curve" smooth="yes"/>
      <point x="189" y="574"/>
      <point x="217" y="653"/>
      <point x="283" y="678" type="curve"/>
      <point x="248" y="677" type="line"/>
      <point x="276" y="644" type="line" smooth="yes"/>
      <point x="296" y="621"/>
      <point x="316" y="612"/>
      <point x="336" y="612" type="curve" smooth="yes"/>
      <point x="368" y="612"/>
      <point x="385" y="631"/>
      <point x="390" y="656" type="curve"/>
      <point x="379" y="686"/>
      <point x="347" y="707"/>
      <point x="303" y="707" type="curve" smooth="yes"/>
      <point x="197" y="707"/>
      <point x="108" y="618"/>
      <point x="108" y="447" type="curve" smooth="yes"/>
      <point x="108" y="298"/>
      <point x="138" y="143"/>
    </contour>
  </outline>
</glyph>
<glyph name="lessequal" format="2">
  <advance width="489"/>
  <unicode hex="2264"/>
  <outline>
    <contour>
      <point x="462" y="0" type="line"/>
      <point x="462" y="56" type="line"/>
      <point x="26" y="56" type="line"/>
      <point x="26" y="0" type="line"/>
    </contour>
    <contour>
      <point x="40" y="283" type="line"/>
      <point x="408" y="94" type="line"/>
      <point x="437" y="147" type="line"/>
      <point x="94" y="315" type="line"/>
      <point x="94" y="296" type="line"/>
      <point x="437" y="464" type="line"/>
      <point x="408" y="516" type="line"/>
      <point x="40" y="328" type="line"/>
    </contour>
  </outline>
</glyph>
<glyph name="greaterequal" format="2">
  <advance width="489"/>
  <unicode hex="2265"/>
  <outline>
    <contour>
      <point x="26" y="0" type="line"/>
      <point x="462" y="0" type="line"/>
      <point x="462" y="56" type="line"/>
      <point x="26" y="56" type="line"/>
    </contour>
    <contour>
      <point x="448" y="283" type="line"/>
      <point x="448" y="328" type="line"/>
      <point x="80" y="516" type="line"/>
      <point x="52" y="464" type="line"/>
      <point x="394" y="296" type="line"/>
      <point x="394" y="315" type="line"/>
      <point x="52" y="147" type="line"/>
      <point x="80" y="94" type="line"/>
    </contour>
  </outline>
</glyph>
